<mxfile host="65bd71144e">
    <diagram id="fZU6bpIhLs5DMu1-S09D" name="Page-1">
        <mxGraphModel dx="722" dy="568" grid="1" gridSize="10" guides="1" tooltips="1" connect="1" arrows="1" fold="1" page="1" pageScale="1" pageWidth="827" pageHeight="1169" math="0" shadow="0">
            <root>
                <mxCell id="0"/>
                <mxCell id="1" parent="0"/>
                <mxCell id="16" style="edgeStyle=none;html=1;exitX=1;exitY=0.25;exitDx=0;exitDy=0;" parent="1" source="3" edge="1">
                    <mxGeometry relative="1" as="geometry">
                        <mxPoint x="350" y="220" as="targetPoint"/>
                    </mxGeometry>
                </mxCell>
                <mxCell id="3" value="Props created in Parent" style="whiteSpace=wrap;html=1;" parent="1" vertex="1">
                    <mxGeometry x="20" y="210" width="160" height="40" as="geometry"/>
                </mxCell>
                <mxCell id="15" value="Props received in child" style="whiteSpace=wrap;html=1;" parent="1" vertex="1">
                    <mxGeometry x="350" y="210" width="220" height="40" as="geometry"/>
                </mxCell>
                <mxCell id="17" value="Props being sent" style="text;html=1;align=center;verticalAlign=middle;resizable=0;points=[];autosize=1;strokeColor=none;fillColor=none;" parent="1" vertex="1">
                    <mxGeometry x="245" y="185" width="110" height="30" as="geometry"/>
                </mxCell>
                <mxCell id="20" value="&lt;div style=&quot;text-align: left;&quot;&gt;&lt;span style=&quot;background-color: initial;&quot;&gt;FlashcardsContainer component:&lt;/span&gt;&lt;/div&gt;&lt;div style=&quot;text-align: left;&quot;&gt;&lt;br&gt;&lt;/div&gt;&lt;span style=&quot;background-color: initial;&quot;&gt;&lt;div style=&quot;text-align: left;&quot;&gt;&lt;span style=&quot;background-color: initial;&quot;&gt;1. qOrA = passed through as a prop via the 'value' attribute&amp;nbsp;&lt;/span&gt;&lt;/div&gt;&lt;div style=&quot;text-align: left;&quot;&gt;&lt;span style=&quot;background-color: initial;&quot;&gt;&lt;br&gt;&lt;/span&gt;&lt;/div&gt;&lt;/span&gt;&lt;span style=&quot;background-color: initial;&quot;&gt;&lt;div style=&quot;text-align: left;&quot;&gt;&lt;span style=&quot;background-color: initial;&quot;&gt;2. handleClick - passed through via&amp;nbsp;&lt;/span&gt;&lt;/div&gt;&lt;div style=&quot;text-align: left;&quot;&gt;&lt;span style=&quot;background-color: initial;&quot;&gt;the 'handleClick' attribute&lt;/span&gt;&lt;/div&gt;&lt;/span&gt;&lt;span style=&quot;&quot;&gt;&lt;div style=&quot;&quot;&gt;&lt;span style=&quot;background-color: initial;&quot;&gt;&lt;br&gt;&lt;/span&gt;&lt;/div&gt;&lt;/span&gt;" style="whiteSpace=wrap;html=1;shadow=1;" parent="1" vertex="1">
                    <mxGeometry x="20" y="270" width="200" height="180" as="geometry"/>
                </mxCell>
                <mxCell id="21" value="&lt;div style=&quot;text-align: left;&quot;&gt;&lt;span style=&quot;background-color: initial;&quot;&gt;Flashcard Component:&lt;/span&gt;&lt;/div&gt;&lt;div style=&quot;text-align: left;&quot;&gt;&lt;br&gt;&lt;/div&gt;&lt;span style=&quot;background-color: initial;&quot;&gt;&lt;div style=&quot;text-align: left;&quot;&gt;&lt;span style=&quot;background-color: initial;&quot;&gt;1. qOrA&lt;/span&gt;&lt;/div&gt;&lt;/span&gt;&lt;span style=&quot;background-color: initial;&quot;&gt;&lt;div style=&quot;text-align: left;&quot;&gt;&lt;span style=&quot;background-color: initial;&quot;&gt;2. onClick- receives the&amp;nbsp;&lt;/span&gt;&lt;/div&gt;&lt;div style=&quot;text-align: left;&quot;&gt;&lt;span style=&quot;background-color: initial;&quot;&gt;'handleClick' function&lt;/span&gt;&lt;/div&gt;&lt;/span&gt;&lt;span style=&quot;&quot;&gt;&lt;div style=&quot;&quot;&gt;&lt;span style=&quot;background-color: initial;&quot;&gt;&lt;br&gt;&lt;/span&gt;&lt;/div&gt;&lt;/span&gt;" style="whiteSpace=wrap;html=1;shadow=1;" parent="1" vertex="1">
                    <mxGeometry x="360" y="260" width="170" height="180" as="geometry"/>
                </mxCell>
                <mxCell id="23" value="" style="shape=image;imageAspect=0;aspect=fixed;verticalLabelPosition=bottom;verticalAlign=top;shadow=1;image=data:image/png,iVBORw0KGgoAAAANSUhEUgAAAggAAAE/CAYAAAAjazvrAAAAAXNSR0IArs4c6QAAIABJREFUeF7sXQVYVNsW/sEOEMHuLuzubkUUO7ETVOzETrA7sbu7O7C7sQtUBAxUFHjfv4YZhsMMM4R6732c73vffTJnx1l777X+9a+19zYJDAwMRpiH/zQBoPwvX1L/Tfn/w/7bBMEIDlOHrrJhW1X/S92y7l8j/uvfKhuVvsaWiZVArARiJfD/JQFD9oPSMGR7tOtQS09XvYbsl1bZYBNVs2Lf+B/5B2ASHPb/86UwzYf8zvfU/TaqrLqctl1UtKWsJ6RL0oEw/Q2RV7j3Q/qks7862tXzrSaBgb+Cww6KttDVA6Y9jdV4QjmQEU11pemOjin//1pSsV8bK4FYCURRArFqJkLB/R3xaPuj2jZEaXf02R59AELbwNNeayxqqOHXBT40tj3EDKqQggYrqECCDuDC+uXv2ubTiLJhum9sWXU7WgAl2FBZhZzU/ZU/K8pqTHr4b9UCCLoGSHuQFERDFNdsbLFYCfyXJfB3lO5/WaKx3/b7JaD0ypW6Xm1s9TmH+n7XZT90OYsqA6iyXfTmtdvRMmga400DpwMAKMuqDaFGgDSw+sqGkADyrvo9BTAIU1bNNijKyadogw21J6/drhZTEeG3arehkHGEcgr5YGk6enIKAQi/fwrGthArgVgJxEogVgIxIQGFAVVT49qGMNzflO0qjXpk+mWgrMYr1zL2Yf6m7aJrG2HtyLairLymBS4iijTowjtKO6n9b+1PV0YmDNWl7Vdri0UXOaIUcURREF3fF1E/1SJVfpexclJOqZD6YgFCZNZF7LuxEoiVQKwE/nES0GXV1IZX2xjrspKRKavvXYWnLfJRer8h9LU+wyxllF6ytneuR+j6DKkhA6vPoOoywsaOt3abxrSvr63olNXX1yjKKdIAIZZCNXa2xL4XK4FYCfz/SUCPKxbG+EXkvmobSmOsmLYLawgUKPLMtQ15OAOti9JWjqZ2KELpPmv1XV5T0+6RnBGRNZbRMfAxVTaSn6h5/R/4rZEGCFH99thysRKIlUCsBP65EoiIi42MoVa/qzbWugBDRJZI+/3fUFbzmdrG3chRiaoBi2q5yIpdF36JkLGI4Lv/Rp//RpsGZBwLEIxcG7GvxUogVgL/VAkoDWlkAsfqb9LnAWt/cwh/GiZBLAQIhFPuWn3STpYzpqx2kpuupDpdVLaS/Tc0VEocEhlDagi3qNs2hLkiMujGlI0Mpa+Uj7HG+P9cTrEAwdBCiv09VgKxEvgHSkBb46u9dV2euZIGN8aq6KtbUVa9H13ThI4M+XB71kNcNmVZ7b302nvqxXAr+6z1nfoMXUQG0BCYiMg4Gyqra6YoxRnRcOkDDRGBEmOMfaycFGc46FnSCjnFAoR/oOqL7VKsBP77EjDWwOviQA1ZKT2GXCPUEGujMd4hP0gxXQfRaPfBQNlwxl1X2fD5eNIDXSRGRBNBlxiMMZbKLhlqV1mnIfHrwmn6WAVjgIy6v+o6jOnvf38B/ZEvjAUIf0TMsY3ESiBWAsZJwFgLp8vV1OWaGrCw4ZrTTsPW9/+1AYV2/dp723QxF1rvRvUzjROi7rei0+afKKstMvVQajMHSiIlOjs1oyPH/6OysQDh/2iwYz81VgKRl4A+9zHyNRnHcWq7txG5ovraj4gf1wcqovItsWViVAJKcBCjlcdWFlUJxAIEIyXn5+eLHz9+IDiIcUY9s1lJvRliUbV1oT7aTlfsTZdzoivJKCL0HZGzpag/3AFiEbVlpDz1vWZiYoI4ceMgSZKkSJgwUTRr+y8XN+TS6ftd14TSZTh1nbgS0aRR16HHQMufI5MJp1WfzrJGWhRDYopoikS1bFTL6cNGxk7jYCAoKAifP38SXRUUHBR6ZLCxdfyD31NOH4rZ1NQUCRIkRDLzZP/gnv97uxYLEAyMXXBwMD5+9EbcuHERL168f+9I/4t6TiUXEBAgCz9x4sQgaIh9jDHixr5jjAWLjCduTLtRbVOX1TQSHPyfTRqum4/e3qKn/pO6So8a+PnzJ379/AVLS6tYXRHDcz4WIBgQ6KdPfiBI+E8uuBieTDFZHZXdr1+BSJw4EeLHTxCm6q9fvyJBgviIG9d4wMYx/PbNX0BHnDhxYrKrUagrvLEMDAzEly+f8c3fH/Hix4e5eTI9cy4iQ2vICBtRVg68C8b3b98QP0F8xIkTV3HZja7PDalXZ/XKpL9IiisGPklvi0aIw6iyeuohyKU3r2LDEoZWpfU+52VAwA+YmJhqxvvbt29SLnXqNOGbj4AY8vXzgQlMIq+roiNj9jAi/G6o7qgwODrqJEgwNTGFmZm5pkbKlkyKaRxTxIsbLxY8RHLpydCqbnOM+Pn8+TO8PN/g569f8iK96fTpMyBx4iSGimp+p8L/8OE9Pnp/0JwSTs+QhpfKMHlyS6n3n/awz4kSJQqdXMHBQuPxMf1DhiY4OAjBgUEwMTWV/wX9+omgQFUfhJKPHz9GxRb06xeCAgM1dcZNENZAq3/46v0B/h8+IFmGjIifxPi5EBwUJPXH4XhHwA5wcVOxJkqUWNOXHz++Y+2alShQoCBKlCxj9HczRLRrx1YUK14S+awLGF3uT7xIcPD06WNccD+H9++9EPgrEPVtGiJ3nny/uXnd2tvb+wMO7N+DIkWKIV++AvpDapreKZP5tHfmaYc0DKoaVY2GjEp0DHtUDJIxo6Do0/fv32U8Dx/ej6ZNW6JQ4aI6a/ny+TPOnTsjTFnRoiUExB46uB/nzp3CnLlLQssoE/J0HGnr9c4TZknNjOlt5N5R3iugNYxcy4G/fmp0kWncuKKjwjzBwK8f3/Dx6VMkSZkKSVKkMLp9GvngwEABUCZxFPVq1cL3KHMry9C6CbLOnj0NM3NzFC1SXPR47BM5CRgFEJ49e4oTxw/j8KF9MlDVa9RGzVr1kC5deqNbI5q+euWS1PHgwT1ky54D6dNlwI+AAFBBlixZWhR+/Bg2dro6+NjjITJkzCTepKHnw/v3SJQ4FCD8+vEDHx4+kEWQ2jq/oeIx8rv/R2+8u38PVtlzwCx1Gry6fBF+r18jKPCXXBxWwK5J5NAxkfWXL/j49AkC/L8iXqJEsMiQCYksLaWeN9evwefFcxAo8HuLtGil05Df27ML9/buQrne/ZA6r/HG7IuXJzxv30LmsuWlbX2PLoBA49WuTRPUqFEHffsNNlq+Hh4PMXhgH9g1bo7WbdobXU7fi5KT8v07LK1S6AC2hixc2FoJmlevdoOpiQlq17HBvn27ULp0OZQqXTYK/VS0baAr9F49Pd/KWiZA53zi+nQeMQiN7JqiZat2UejDXyoSObGHM2IResKRBBbeHzimy7Fh/WpMnjITlSpXDb9Gg4EXL55j6dL5SJrUDO3bd8b79+8xa6YLLl1yx7XrDyMlSE+vtzDX8qAjLByJqJ3/x4/we/USPz5/RrzEiWGVLRsSJrOQ6n1fvhR9RKcpXoKEyFiiJJKmTq2QbTB8nj/DoTHOKGjXBHltbI3+ru++vnj38AHM06aFRcZMessxN+zb929IYZVS887zZ0+xePE8WFpZwd6+M1KkCP3N6A78n79oFECgjEg5tmhuKyhs1erNQoPyoXGXyREvHn79+il0PKlfXXFjvnfq1DHMnumCtu06oW49W7x4/hTLli7E8+fPMH6iC7JlyxGmrHb9yrEirRQY+EtvMpuKpv6FuHHiaLz9x48fYcb0yRjpPEE3hadoRMkgfPP1wbV1axAnfjyU6tz9j0wfGtPLq9xQsHEzZCpVGo+OHMJ7j0f4+u4d7h/ch16n3CPFZnDR3dy6CR8ePYBpvPgI/BkAy8xZkc/GVtiAJyePw+v+PXx9/w7XN61H/2t3YaKDLfG8dQNvb91C9qrVYJ4mrRGyUGmllxfdcX7RPNSdPA1JU6YyAiCEggiO6ZHD+5ExYxbkzWetKctxDgoKlLnHxCXlQ+bh9KnjyJ4jN7JmzSZuKsuQH9Vmrmj04ydIoJmDnM8/AwKkzrghOSj0THbv2i5glgY9adKkOr+BZVVrArI+wq6JUGv22OMRpkwei1q168KmQWMwrJU4UWJpj30L/R6Vl6Siq1Wy5PpQrbm4+PkzQLxvltNFzPDdwF+/ZO2yLwQHp0+dwJ07t9C+Qxdh8vj4+3+F+/lzyJote4isQj9PJTNImEa5xjk2bIPfyrXJh/3Sl0Mi7/8KRLz41B0cvyDF96raVVPFbFMZ6mMZ/o+/qXNXtD1Ffm9gUJBex0M53kZM4vCv6CFGHj68j96OXTFk6ChUqlRVZMP/JdBi5AiC79y5iXjx4iNXrjzy29o1KzBjxhRcvnIvTFuqbw2EqWkcnXPcy+uteMsx+Xx6/Rq3dmwFQT2NMB0Gi0yZULRVWyS2ssL7hw/w8MghfPH0FBBRpoeDgATl4+/9AXf37kb6wkWRtmAho7v44dFD0bdZypZHzuo19ZaTEKICIHDN37p1U2xWzpy5NKFKNdtAWevSFepGAoMCEfCDuVARv2f0x/wLXzQaIPDb2rZuAjMzM8xf6CaxnVu3ruPB/XvifSSzsMCli+5gfLhQoSIoW7YCEiUOpYbVsiEynjFtMpo2a4VGds3kzwf274bL1AkYPMQZ1avXEmP35csXnDt7Ep8/fxFwki5DBhQvXlJiTPzN/fwZeHt7i5LjoiHYSBlibPi3hw/u4+HDe/j61V+MAfvDhbVs2QLs3LEV3Xv0RsqUKZG/QCEVjarniQgglOjQBQFfPsM0TlxB1kpq7efXr2J845ubS9tqZffr+3eoqTgCjngJE4Wj6End/fT3FztAT//yqhUagKDu6ocH97G+Y1s4nHIPZ8BFqX76hF/fvyGhRXKowwSk9h8ePIAr61aheBt7QeUfnz/F3T27kKNyVVg3aIS4IfFS78eP4NaoPvpfuxeG3gsMCAC/gQ+BA/uvpP9oFH998xemIn7ixIifJKmGhQgHEGiE/f1FJnEUylMVYlABBH4T58/dO7eRKXMWVK1aQ5IZ79+7g7t3b4shohLlmObOnVdjFKiUz549CXoUefNaI3OWbDh18pgkn5YtVxHW1gXw5IkH3M+fxZs3r+Dg2E9Ap4+PN44dPawx8hbJkyN//oK4dvUKliyei9Rp0qF06bJIlSo1bBrYhZlBrJt9JTsQEPBTQmgVKlRCckurMO8RDKxbuxLbtm5EkaLFZZ7Sm3z79o3MbZsGjWRe3751U2hnJmN179kbjFPfunkdZEayZc8p7AMZOq7LYiVKokyZ8hpj6u/vj0sXz8PLywvfv/nDzDwZypQpJ2UXzp+Nb9+/o3ad+kicKJGsycuXL+Lli+fInTcvihcvJf1lmPHatct4+/o1/L/5Sx+rVK0uXhnH4NzZ0yK7LFmyIhgmuHb1soSRyIKQXteOwXO9UnHfvXML5uYWAkLOnTuNT35+yJM3H8qVr4hkIR7q06dPcO7sKQF+pN+zZs2OsmXLy1wisLp69RLSp8+IpGZJcf3aVZBh4juUG/vA/xEglChRCiVKltbkn3g8eoh79+6IHJn7UapUGVhbF4xQD5w4cRTv378Tx6JGzTpSN417MnMLqZsh1/Pnz+Drly+oULGygKQ+vbth0OARAgCuUiZBgShYsDAqV66GoKBgCS1x3Fgn66BclQCB8/fly+e4fv0qaPRoqAsXKYYcOXKFAbf6AAJ1Cb3/Xz++i+evHTLkWiaFz3UX8PWLjFlCM3NZ1/y7+9JF8Lp7B9Y2DWGRMSN8X77AhWVLUMCuMQo1baHZJUFn4frG9bC2bYSMJVRzhg9ZzgDqMeoKUxNhGUx15A79+PpFdCn7R32i0XEeIQChXHnkrKYCCD+/+YuujcvcpBAkrAYIViEMwq+fP/H4sQeuXb2EtOnSo0SJ0kicJAkePrgHd/dzAuqZ70M9wrWiBv+sn04nx5bOJHWKn6+fjGeevKEOid6JEvJDVC81jM7RDr+jbJQBAhfWgQN7sNJtMXLkzI0KFSrDz9cXl69clFyD8RNcZKEqvQcVQJiCps1aagDC7l3bMGumK5xHT0D58pXEEKxZ4yYUbq7cefD61SvcvHkNVavVRPXqtXH40H4BFZWrVBfAQBqJCL1nr77gxLh27Yoolew5colC2LFjC3Jkz4l6Ng1x5PABLF0yH4OGjESqlKmRI2cuYS30AgRFiEHNIPj7eMMqWw68e3BfjH/uWnWQvkhRyQf46f9V5aF7eEjSULJMmWBdzwZJ06RFwNevuL9/D+IlSowv79/j47MnsigL2TVBuiLFpBv08Gmw3z96iARJkyCheTLx6Iu0aC0MgiGAQJT/5NQJvLpySQBK3ISJUbRVGyRLn0E8gKMTxiCRRXJUcBogIaPAgB/SX/Y1T10bJEym8iRVAKFeCEBQJ/YF49XlS+I1MASRwMxMFIW5VriJ30MQIO8EBIjyyV6lKjJRQceLr2IQFs5D3SkqBuHNtSvwOHlc+pg0VWhiVmiIIRQgMDY+aeIo2DZsgv4DhoHhr5UrlyBd2vTImTM3Ll+6gJSpUqOBrZ0YZVFSQUFC9botXySeMsHkxo1rcejAXnTs1A31bRrh9auXcHNbjB3bN+PYiQuSWLZpwxpcv3EVderYyJymQaXxorJ3dZmINGnShhjJVDL/1NqS/eY8I7igYqHXf+zYYTRq1FTmMBMsVQxAsADY7ds2Yc3q5ShXriIqVKwi8ehdu7YJ+J44aRpy5sotbc+cPhW3b9/E0WPnQKO/c+c2bNq4VoxF4cJF8enTJ5w/fxqMa8+euxhWVimE/eB7nm9fI2++AmJoTp06jnr1bJE9ew7MmzdT3m/cpLkYuCpVqmPrlo1Yv34VWrW2l3AMQf/+fbvx6tVLkTGN3JEjB2FhkRxDh40SGa9buwKbNq4TgEOA5uPzERcunEOSxEnQ12kQMmfJqpm3NHjHjx/B/LkzkSJlStSv3xC+vr64ffsGXr18gf4DhqJosRIyboMG9pG4OsHIo4cPcPGiO3o5OCGfdX4BdPPnzUSKFKlQtlwFYSEe3L8r39ejZx8kSBgf3h+8xbAmSpgQfZwGIWPGTFLPwYP7kCFDBiRPboVbt27gxvWrGDtuCtKmTadTFfj6+GDN2hWil3r06C15BdQzLi4TkClTFgwYMFSA7JIlC0RvdejYTYw5AQLBF99hHXfv3sK7d+/gPGo8MmfOisuXL8g35Mljja7degkY1AYI1IUvX77A5s3rkS1bdmF5CIo4x9q0aY8sWciGqR4JMSgYBIYQn54+hRcXL4BgIIG5OQraNYYldbOpKZ6dPY0PHo+QyMICb27dRGDAT2QuVQY5KlcRXbFncH8BB7lr15G1y3yoGxvXwd/HB2V7OoYChJs3cH3TOljb2oUBCL7Pn+HqhrUgSIkTLx5y16yNtAULh86FnwF4fPyY9O9XwA8Em5ggf31bDQvx4dEjXFu/BlnKlROA8ObmDQlp5KhSDckzZ9E4ZUqAQHB28cI5kW2hQkXRqUsPAf0jhvVHXuv8yG9dEE+ePMad2zcxZNgoDSBlx+7du40li+YJsKUN27Nnh6yRWbMXaZhzQwBBAJFWeq8x7/8T34kyQODipdc23XWiAITOXXqKsXZ3PwvXqRMwYuRY8R7UnrP64wkQprlOQoMGdoLCiaDXrVkh1Jhj7/5IlSoNHj58gNGjhsDVdQ7Spc8An48fsWTJPFG0BAHHjx3G8+dPZRFSCfLdWzdvYOv2/eLF0CPLnDkLbBs2FYS9bOkCYSFat+0gE8LRoQv27T8hdRt6lDkIBAgXly2WnIC89WyQwCwZnp45KdWU6txNjDAp+lvbNiNvvQb4FRAgizBlrjwo0aETvvl8xAnXKYLWc1SrgYRmyfDoyEF8fueFpovdZBE/PLQft3duR5469QRR0yC/vnYVFZ0GGAEQTAQcPDp8AGkKFIR5ugx4cuYUgn/+RNVhzlL/dsfusK5vC+uGoV7v1w/vxeAntkohC1kAgocH3OzqKgAC8OnNK3g/eYz3Dx/i9ZVLKOfYF6m0Euo+vX6FA6OGI1OJUkiZKze87t+VcEiBJs2QxrpAGIDw+c1rnJ0/R76VIIvASf0oAQL/7uPjg8aNaqFe/UZiSKgsaazJCFWsWEXi5zTmBQoU0lDmLPfi+TN07tQa9u07o3WbDuKxLl08D3aNW0hCIJ+dO7YI1X/g4Glhvwb07yVbp5xHTRTa/eaNazJPs2XLiQH9HcRYdu7SQ1g17UfA8/49wkp06dpTQNjwYQPEOHXp2gsWFqr4rfq5f+8uRjkPEYNs27Cx/Hn1KjccOrhPDAkBAp/Fi+Zi3dpVAhDoOZGxowIsWaoMWrRsK97n8WNHMHXKOCxYtAJ58uQVYzhp0hgMGeosFPbr16r1QVBsa2uHiRNHi+EiOKfBp6IlNT6wvyOat2gjAOHSpQsCsGrUqC35RwTdZ8+ewpBBTrLOa9aqi5s3r2Pk8EEiyyZNWoSAnO0CfggitJP02MarVy8wdswIWCRLjv4DhoiCvnnzhlDrrVq1E1BGJrFr5zZo2cpemMVHjx6InGxtG6NZi9Z4+/YtJk8cI2CufYfO4g2+f+eFOrUrw8HRCU2btpJ+EAxs3bIBffoOFJZm/rxZ8ncaebbr6+uDJo3ro3sPBzRp0lKvSmCfu3ZpJ+PUpk0HMA+ld+9u0r6r62wEBgZh27aNAhyZI0NQxxBDO/vOqFWrrowPWdeRIwahX/8h4uy8e+cJV9dJMle7d3cMBxA4lyhD5ir07jNA+s1xX7hwjsipStUaGppcCRBolB+fPI77+/ciXaEiSJYhA164nwd1WJXBw5EomQWurHbDzW1bUbRlayRNlRqed28LY1msdTvET2qGQ2OdUbnfIKQrTKOu8lGZExXw5QssMmXWyMpTD0Cgs/P29k188/XF/QN7YV2/AXLXrqcp9+LCeVzfuA7pixYXNpNhT48Tx2E3ez4SWVoJeBGAULYczNKkE0cmRfYcyFO3PhJbJA/LIHz7Bit1nkFwsOTWcC3QpnTp1kuYIrLgrtPmypohiD1x/IiMVVKtNXzlykVs27JRQAXXycEDezF8WH/s3H1Y2Kp/6xMVwBJlgEAhPX3yGK4uE5A/fyH06NVH5EY0zgQnTuaKlaqG21JGgDB+7EikSZsW8ePFF2qHip30Wtq06eX99etWYtHCubKAqAjpsZDuocff08EJyczNhdakEicVtGTxPLz/8B6HDp8R2nX+/JniZbBffEgLUilR2Z8/dzpGAAInfNXBwxEvSRI8O3MKN7duRumuPZA6n7XE7r9//gzLrNmEir+1dRNeXbuKBtNmCUA47jIJ5mnTobh9J2EHPG9cw4bO9nA4fVE8/nPzZyF+EjOU7tpTlCQX+Y1N61GCSrBUaOb+hwf3QkIMFzQhBrZ3fvE88vEo2aELEpgng8/z59jcpT3st+6S+jZ1aY8SbdsjV+26Ec51b49HcLNTMgihRV5duoAbWzaAoRZtgECAc3n1CtjNW4KEZmYg+Pjg8VDyGywyZtYAhGJt7HF24TwUb9ceuarX1IQ2wgMENWhQxe1rVi+HWrXrC0AgIBg7epjMBRubRkIl0tAlSBh2OyOVQ9PG9dCmbQcBCO7uZ7B0yQI0bNhEAxD27tmBCeNH48DBU0iSNCnmzHbFvr27UK9+Q1SrXktAJ2PgpIZVACFXCEAIG/cleKbxICjlNkF6icyzKViosIBgzkNDAIFA4OCBPRgxcpwGIJABWblimQAE7gChUZ43ZwYqV6mmSSa8cvkSBg/qA5dpc1GkSFEx7PSo585bKoaEnhVp+ATxE4Ahk3FjRoiBVAME9svL0xPdu7VHk6YtBCCQpaDHT3BO4MWH4Q+7hnVQpEhxjBs/Fc+ePcGAEFBBdpDPoUP7sHzZIgwaNEIy9LUf748fMG7sCFhaphAQxIdghoClbp0GwgAx9vvksYewDHQS9u/fLd4cjTiZIDIm48c7I4VVChkHyjXgZwCKFMqFkSPHCWjic+LEESxZPB+9evVFrtx5MWbUMPHuM2bKrDGulFGt2vXQr98QvWuC4zpm9FChrlev2SJsx0jnweK4DBw4DIkSJhIwRRaFoE6Zg0A29cWLZ+jRvaOAERsbOwndUIdSD+oCCBybESMGwc/XR7Or5fMnP1XeSPsuEkpRJ1srkxS/+/ni0ko3YSjLdOuB+ImT4NOb19jm0B01nEcjfaGiuLJmBe4f2I/G8xYjoYUF3t2/i6tr1yBzmTKSl3TMZRKqDBiCNPkj3vmjDyCohfnlnRdOz5qObBUqhgEI5xbMEbBR3L6jABT+f+qP7JWragGE1UhsaSXAJDlzpeo3QGKyg1qJNkoGge1+/vQJkyeNEceVAIH2pkP7FrJ2uO7LM+SX3FKYM+1cBDJmPmzL0hIejx5g69aN2L1rBzZt3o1cuXJrduEpJ4qBg7nDvK401jFVNqI+8bfIgAS+Gy2AQA9pmsvEMADh9q0bGDlyEHr31g8QWIaLkfQn6X96VXXqNtDEKadMGov79+9i3AQXzfcSJFCpMYbLJDF6e/SGSK0S8TGpat+BE+LZLFowByOdxyN3nrzhFjsT1aLLIFxZvULqLe/oJP/l4rjothQlOnZB2gIFxSBeWb0SXvfuIMD/G/w/fpBwhN3chRqAQMRc0K4pTEzj4LPnWyyuUxUOJy/IYj4+eRwylykL64ZNpH6vO7dxedVyFLBrqgAID7C+Y2s4nAoFCN/9/HBmznQ8PnkCZmnSStyPnsSbm9dhv2mHoP4t3TujSPOWEk6I6PH2eAg3O3UOQvizA15duhgCEDqHAQhXVi7D29u3UN9lplTPxUt2gpQmAQpDDEcnjhN2xffVC7TfshMpcqq8ZO1HwyAoclm0AQLfuX7tsixi5ibQm2/briOqVK0ZZltTOIBwPgQgNNIFEE7CPFkyeHl5Yuf2rTh27BD8/PxQvkJltGnbXrw8GkN9AIEa5M2b19izewc++njexvwnAAAgAElEQVQLxUkPlgCjl6OT8QDh4B6MGBE5gMB49qCBfeHiOku85UkTx8Dz7RvMmrNI51CPHT08PEDw8kT3riqA0Kx5a6xwW4LLl9zh1H8I8mgxRfZtm4kHPnvO4rAAoakKIHCLH4HRwEEjUKyYAiB4f8C4cSEAwVkFEOhxT5wwWih5sgQECKTxt2xZj3Rp0yFd+ozYsnk9atasK0wQAcKE8c6wsrISBpMAgQCocKGcCoBwVBjInj37ijfJMvXq20r+CPfO82F4gqDQUKY7GVKnvj2wbPk6MdJ0VBieUCd0kr0ic8G+P3p0H44OoUmKKoDwHD17dEC3bg6St2IIILA+J6eeqFixMurUaaAaQya/BgaKcTM3NxOGSvSQYhfDZy9PUFfR8y7WRrUbhWtxXbsWKNmhM3JUqY5ra1fh5ZVLsJ0xV373ffEcV9aslB1aqXLnkXVaedBQpM2vPz9DrQOZ0KzMQVBPOjVAyFqhIvJoMQhkKJJnyoxCTZojfkiyL3Ml4jDRPU4cYRBOzXTFu/v3RX9UcOwjeku5xVyVePgNllYpNUZQGyAwfEPbwRyEdetWCQvDcz7IVBFo0aFQPwSPR48cxMWL55EjR05xCiZPGo8t2/Yie/acOteRPsOr73YO7UoiY7SVjUdU1lC9un5X9vc3AISbIQChv14GQZ2DQHps+rTJuH7tCsaMmyLJjURyixbOwe7d27Fp8x6h1LQfonXSwHHimKJ9h65ImTI1FsyfgcOHDmLv/uO4cvmixKgdew9ApcrVwg1mTACEq6tX8oxPlOvVW7Uwb93ExeVLQgBCIewe2Efou5Kdusn3EBE/u+AOu7mL8M3HB8enTkSGEiVRoJFqeyIzhBfVroJeJ9wlxndiygRkKF4CBRo3l/rf3rwhVGDBJs0NAgQi8DNzZyCBuQUKN28ZEuIJFsVAtoKGet+wgZJNXKxdB418Xl5yF/SeoXhJJAjZKmUYIFzAjc1qBiEUjF1bv0piiiqlE34/Fds6PHEsKjr0w7Pzp/Hx+TM0WbBUkbzEQ04CVOcgyBwITRWvWb0CateuKwaLFKz/16+yFfXlixdizDw932DYiDFCqWsUlDAI9VUMQuv2Egojg2DbqAlsQkIMe3fvwIQJZBBOSiiBAJRggGzAyeNHsXbtSjRs1EQSbAcO6B0SYuiudTiLanl5eb6VWDTZMComeigjhg+EZXJL9HToq8mNUPdNV4iBDAJzfEjh58qZR8TotmwRVq4MyyDMnTMDVbQYBCVAmDd3htCo9HgTam8pDREnaX5f349wHqUKMfAhMNIwCK3bS0iC3jtzCYoVC81Qb9SwtsT+Bw4cHnWAkDyUQVACBDogPXt2wqRJ0ySxj4mb48eNRNWqNQUEhjIIWgDh108ULqgfIGTNkg2jRw9DmbLl0bx560id5ULZEIA0b95AkjeZgDp8xDgcPLgHu3Zuk8RDzjnmRvGJDEBgXku37g7hQgxMdh0y2EmYD+Y5RPSQUtfOQfji5SW7n5KkSoUS9h01AGF1y8Yo170XslWqKgCB4UubabPCAoR8+ZG5dGnsHtwfZbv1QubSZcVAU4+8vXFNwhD5G6kcmLAAgTkI4Xcx6GMQjkwcC/PUaVCoWUvJZ1I+BAhn582CZbYciBMvLnyePZXdYylyhDXU+hgEhtcYvmGoj4ZefegdE2K3bNkoLJ1T/8Eyp9QP82mYbNqtuyOyZ88lybkOPTth2/YDyCI7oP5/nkgBhNat7MRDW7hopUiISR4qBqGgJsTAbGsVg6AHIFx0x7Rpk9CseSvY2TWXbOkRIwYi4Md3TJ+xQDJO7929g/b2zWDfvovElmlkSc0xC53Kds7sabJA23fsInG9qZPH4tixIzhw6JRQkmPHDEeGDJnQf+BQUcb0/k6fOoYyZSuIl+no0FnyFdRokIwEQxXMcqUC1E6sVOUghB73y/jdVTIIJqYo56AKqzCDVwUQugqDsKR2VVQfMRpZy1eUnQSc4L6vXxkFEIiM3RcvwLdPfqjpPFYW5Z3d2yXEUN7ByWCIgd6F+9KF+OrlhVJdewht98PPD/f27YJ1oyay4+Ky21I8u3AejWbPl90T3319cGKaC5JYpZA8CVWSogm8Hz2EW2MyCOptjlqYMxjQxyA8P3caRyaPR6uV6+VsBe/HHri7eycyFCsBehBkEM4tnI96k12R0Nwcq5s3Rv4GtiI/bQ7sR4D6oKSwZyWoAQKTzq5euYwLF87KzgM+NIZbNm+QJDVrLVqUDEITu/po2669hBgIJGfPnoY6depLrJ0NM9lxwbxZOHj4tMSVnfr0wFRXxquTSJhq4YI5sLS0RDv7Thg8yAmZMmUSr5Rsg/YjYY8xIyQ7mrFwshxDBzshefLk6OXYzygGYdvWTZIQN3bsFOQvUFAUG71rJugePnJGkqUYYtAPEGajSNFikiHfu1dXdO7WC/btO8ncZhhOtduoqCTZ8RC08RNcNcBFCRCY8EtZkZZt3KSFKFrS7PbtmmLVmi3IljX7bwEIjOe7TpmA/YdOyU4RhjSpW2rUrA17e1WIgWwA97l3MZJB4PkSkyePlWTWsWMnwzp/QdEvHh4PZDdMhYpV5YCj9Bkyyu4WXc/KFUtEHh06doWDQz8Jqw4a0FscnH4Dhkpf+egOMehmEChTGiRlkiJzX5iEfeL4UYx0Hif6iXOBIZ/UqdIgd958so1b9JCCQWCy9KWVyyUZukLvfpKI6HXvLnYPckKjmfPkXJWra1Zqwp+sQ8Mg5MsPaxtb7HcehgRJkoiuEwcjMBD7hvSXnVk1R46NNkC46LYEH588EWeLjCdDpBs6tUUt57FImTtvSA7CatnmmL5IMRydNA5W2bKjWGt7SbhUP9rbHNWuBOcHQww8G4IhhkcP78sOpO49HEWvElCNdh6CuvUaCGOlLjdqxCAJWQ8fOVZyDrjjqU/v7tiyda8wCspdrcZ66rrCCux/RMeH6duZYGjHQkTMRWTKGgUQSNXcuHFNEoRMTU0wfqKrbCMjtT9rhougeyq+ZMmSYc/u7XBbvlhith06dNUkjXBikXZlRvXGDasFsZEm5IFFN65fESo0SZIkaN+xm2SEL5g/S7LIeaBSipSpZEsKvb3y5SuLF8G2K5SvHHKxTxJs3LBGMtIrVqouVOWcWa7iBWbMkFGS1lq2tEflqtXx9s1rEOgwS7p06fLSZvYcOeA8YjCy58gJp35D5JRI9aMECEy6YdIMqfvS3XrJa+oQQLF2HZHGOj9OuEzGkzMnkKd6Tfj7+eHjs6eyuBpMnyMJQqdmuCB9seKwtmmkYhDeeWG5bR10O3RCtgO+uXENRyeNhQVPq7S0wldvb9mmVKZ7L8kQZgIikwS/er/H3T27UaxNeyQ0NxPwQKr+3b07cs5A3PjxYZklG15evQyLdOlR3Xmcagup51vsHT5ItjGlyZcf3k+fqBiRHo4Sa3xy/BjeezzElw/vcXPbJpTu0FVyLTKVKoVUufPh7c3reHb+DD55ekrMMm2BQkhilRK5atSEVfacsmXxwKhhEmpJl78g3t69LQlIZbr1gnm6dJKFfGHZYtQeNwlJUqTEmxvXsX/EYNhMnYFUWgcuKZMUGQO+eeM6enTvgKJFi8sCZmY9QSqpcHpv9HQJGvnvFFontkmmvl1d2HfoIsldr16+lDnGXQEEuFQwZKVOnDgmsUlS1owNU2E3a9ZazutgVn71GnXkd8bur1y5hDp16sk2ulat7CVmyYfznGd93L17B8WKlxDamiEzxvZp3MhiqE+HJAOyd89OLFwwS/Iq2rXriFSp08i2xilTxsmJmdz6x/4z1nzs2EGh/hvZNRfmjSwI+9Opc3epc8um9cIykOa2b99RtgfOnTtdPFwmVYqHaWKCli3bSr4G8xo2bVonbfNY61KlygmDQBauWrVaArRkRwd3fRzej2rVaiJTpszYvGk9KleuihYt24FAjgmVM6ZPkfBA5849JTl47doVkuxFQNWwUVNNMifHkcml48c5S6LwkCEjhQlk8vHSpQtQsFARdOrUXdYtk/zotZUoUVJ2fDDZVDL427aXfe3Lli2U72Z+ARPKuN1y0KA+qFWrjuxyIf2+YeNq2drcurW9OCWSvDZ1HJ49fYICBQvhZ8AvfPn6GS4uc2SXR/eu9pKMOWr0RJ3HFjOHw6Z+daxdvx1Zs2SVREMedEVnpGPHbjIHuCVz9+4dkljKJE7mF7C/nJ8zZ0yVnTMdOnSRZM3582fJDiLmcaVNkw4zZ04VitvFdY7kM3A+jRo1BG9ev5Jtusyz4CFzbe07IXOmLBoDQ+ZKuYuB6/PCUoaXTJA8UyY8PXcWuarXQNE29rKd8Pr6NXh98wbqTVKFcxnyu7Z+rYQMCRA879zCkQljRQ+lzJlTEo6/+32GzVRXJEufUQ6N4y4EJll73ruDVLlyI1na9MhSqSJS5c4LJizf37tXdm89v3wRyTNklCTDtIWLIGOp0mCS8uEJY0VXWWXJgmcX3ZE0VSo0mDZHdBWdC7KU3FmRvUo10R3nFy9EqY6dRReqz2fRZhBoAHnqL3e+MYmX55Uwf4bbQ4cO6SdyL1KsOC5fvIjTp49j+MhxkliqfmRNbFiLgoULC+vH0Badg6rVaqBRo2ZiO5SPvhyCmPq7dnvG1Kl+P7K5Dsq6jQII9NyvXL0o23f4kA4rULCwbAeh4eaTN29+ifHcvnVdDnrhU6hwMZnQqkNZAsRz4dkE6idL1uwCLqiAuCPi7p2bQuFR6TAmeOXyBVHgjOfxlEUaAKJ9LhQmHvGpVLm67CHetHENLJJZoEbNuoIOuc+ZNDIPqmECJPunPqWRZWlouGe7cpUaYhyYoEbF2KJFG2ExNABBjloOZRBUJyneEyWbJiQJkoeAvLt3F6nyWsvhIUE/A/DgwH588nqL1HmtYZ4hgyDzbBUqy17kN9evyiKwzJJd6qFBvbd3J/Lb2sE0fgIJA5Def3nBXTzwFDlyCbBIni0bzFKnxbOzp/Dp5SsJR6jPpeU5DGkLFUZy2U5mIgvv5eWLAj4sM2dB1gqVw5wx4O/tDY9jh+VwkyQpUyJbxSqwyJxZqntx0R0+z58iOEjruOWECZG2QGHZHvX+4X28uX4FJsEqLKr6TzCylKmgqoNJbF++yG4Kv9evBBxkLFlKlAwfOUnxzm1kLlNOTlIkUHl+/iziJkokLIP6CXuSIu9SoDHdgZ8BPwWgEd1zpwy3tjE5j0o5e86cKFmyjIYuV9dFpc4kxcFDRoox5PP0iWqPPVkL5hfQCN+7dwtZsmQXz5L1nTxxVAxKkiRmKFVaNQc5nwkw6MXxcCIqcRpx9cP59OI5txMeE/aBdDbleur0cZDipoJR050fPnzAkUP7NWXJahUuWkx+575+Jjgmt0iOGrXqytke3PVDz5ZsBD1dhtz4cKsjDRBzgOh18ileorTkSTCmyu2B9JCTmpnLKY2c+7LH288Phw/vA/vBtVigQGEB+Xzixosr30umgXvDuRbJtHF9FS1aEvnyWUsYhdng3LXBh/3mAVYMDd24cV2jM5iITDDANrnGeVokQ0N8uAWS2/WY4c/LhvjkpQdrXQAXLpwXB4L5RGXLVhSm4saNqwJ2uNWT21P50NFgHZQJx4R6Imu2HLLLicCOU5RjwbwMAhyCD9LI3A1Fo0xgQ2fh40cfyXNgWIkhFX13sOzbtxN16tpKvdRVDEf9/PVTtlPz4dZEUtM8s4UPd3GkSpkKhw8fkH9TF3FXy8+fv4QdlW/IkFF0Eecbt4JStsy3YDIpT2Y8c/qEsAQEBSVLlRXmRPvRBRD4O9f48wvnwDXPvIKMJUtrdgvxLJUv3u+RpWwFqYqOyPsH92WtWmZT0elMbHx6+qSEAs1Sp5bdW0lSpJJcCFL+rJuPdjCRxjt51uz44vVWdnUpH+rKNNzuaGKCbx+98ezcGZWuyJAJuWrU0hwf/83PF96PHkgeBZOcZW1dOC85CmkKFlSdhRCSW6E+KIkeucqpvSqAjz3j/OA5OhwXbn9k6Ibn91SpUiN050NIJzlmJ08cEeBXrFgp2bZLBoc75Lg9WO0IhPuoKPzBEPsQUZV/oqxRACEK3/2vKUJvhtnIPASFE4b71LUzWjmRqHgjOnEr5j42zC0uMVetsTWFTxcwtmTMvyeX2ARI3DzMRTdRbIkeGTPqXafP1bvXPYpVR7+YkVcURL+h2BoiksCvwF8hZy0wOS2XnEsR0WNo2AxRubrq1qaGxfBFYsg+fHgnJ3D+m24/1T4dOzLfqpQTWTyegWMRcvaJMYb1T4+Puk9/wrAr24rqt/7fAwQide8P78UTI8pUAgF6rcyOJWtiHEjQcyA8jxY0+PyGw+T/ktGPTrP0EuiVUdEx/yO6l3iRCeAhQ/Tk1QlkBofC0AvGDKehOmJ//+MS0B42JZ1KWpqJkJxv+g5Miii2q+9jlGUiYyAi0x4ZFeZykfUwTldFXfyGpn9k+q3LmKk1ofZ/9fVWjtT/+TPEmYipC5l4HqhJpABaaP+MLxteToZtQEzMJ2NH/v8eIBgjKCa48eph2XYrK8OYNJWww0h8YMhohjD2xnQpUvtZlRXqiksZ1Wgk99EarFPpPmgEZCIhBDIHMXF5FylwnqOhPjbYYL+MecGQhjSmjsi+ExnLYmjQI9v2v+B9w6o1dOUaY8D0iTsmyhrj4UZF5AyT8Q4B1VLixd3/9Uf1pQR1DFXHPjErgViAYIw8ucf2xw+56EaW3O9adYYQhDF9jfQ76o8x1Lix7xnZAX2MiomJeD9yiJZcB22gPn3dUlqL3zVmRn5u7GvRk4AxwxcVGlXdq6hir+i2qcvdMEZS+tol+xbw4wcYLmGOgC656XIQ/oZ8o9oPbfmQZaSeMOZmXmPkGvtOWAnEAoTfOiOUhGZU1cFv7WQElUdVbcZQf43RWjHUVGw1MS8BXQSRkjLWNnRKo6cMAUQ0HaJjbKIzyw2Vjej331HWELsRkYwNzQBD/Y2ofHTKGuqX8b/rCzAZX0OoxxIV5fQ34WRU+hvJkxQjI8Z/x7tRE9q/49v+wb2MFfs/dnCUhIzSyLPj2kZI+0MielfpqSuJoaiW1dVf7T4qBa3dbmTK6upvRO0YkpOyrD6AY0y7xpQ19lt1ja2+sn9mEseUsvhnQJQ/I7OYa+WfwyAYE0CMue+OZH6wIVUQox37b1cWU+v9vy2lv/J12oZA6ekrDby+FaHPRzLWc9XlAf/Ossr29LEWusxLdMtShsrl8Du/VRdIiyxw+PMTM1Zh/HmZh7b4DwEIxkyC6NIzxrShayiigzz/VtkYnFJKqxGVqqMjhqi0F108F53+RqdsVL/ViHJKQ6Auoo901WeodXn6xnjDamNozCpWGmljyhoCFvq8bKWnr49BMWRIdQELXd+qD4Co+2HMt+oDa5Epa8SUieYrkQkIRdRUTC2o6NTzt8pGcwiiVDzst+oACIZceX2qxpjeRMba/NsG5W/1V0+7+oYxMsMbVUxlaCr8w0RlqLvye3T6bFQDMfOSMcOuNPLGeK0RGW19IENp9LT/rQugKCWgq19qI6htJJV/09eurumsjxnQZWwjAhm6Rk+7/4bKGvOt+mZIzE/NyCgJ7V7p4p2i07volI2Z9RS5WqLT339mWZPAwJ+RNAP/zA/RP5D/tv7q82mMmKq6+MpIjq6mlX+j2LRFFJn+R+ZdXVbsN8k4Ijity2PWNpqGoLi+8oY8XG0TYMjo6RoOfaI25nt0vRNRfw2tJGPKagMFQ2yLUv7GyFjfdIrOlDRCU+h5xdiJHJ3eRadsVL8sOm3+G8vGnJyiABB0qaHIamZDaiIqH2hoICP6PTplDfU1mt9qrKaPqBuR6YIuVyaqekNXuxH1RZcraMzUMqTptS1FTMpJh8XQZUB1dU9flyMSf0QG0ljjGdGQRNQnQ8Yxom80VO9/tU+GNEPM/K7Lazdm0RjS48b0LjKKxZj6jFmov0uP/4NtgE7RRae/xpfVARCM0baGBlup5ox5X1fowhjLpOyvISujb/EYElpErmNky2ovTj39NebTDYk19vc/KgEllosMPjJiRkQY5dAFEIw1E7+zrDF47L8ipz862TSN6VMUf0OPK2dcdHTx3yobFcUbWXv375FTSA7C3xCKcRFBHqPJS3t4cYnqVD3VxOdRvLyAh8cg8/xxS6uUckkNL1zRfcxoRINoyMDrKBtR4DUymsJQ0yF30PMCLH4/TwvTfJ8RZfV2xciylD0vrmG7lC2Ppub12HzMzMxlXIx+jGwzSoDZGEukeEcZi1f7L8qqONcoA35rMovk8rN6RmirMe2/6epORBBYe4bpqkdZVldd+kTwN8oa863G9jcmZMzLpn4GBCBuvHiIFzdemKZVxwkZGj2jZ7mRLxqn/3jw0ffvP/D162e5bCpx4sQ66v9TBkq5gKPDIPyNsn9KTsoh+hvfqtZSxs2zsD0OlVM0QgxGroNovsYbFnmTVrZs2VGiZClZyDRS7ufP4cmTR3LLGe/ubtasJS5fvohaterKnQqRfqKicXU1os8dM8Y46igrt2DeuoGDB/bILYCVKlVDokSJjE+ai4p7FjK32PbRwwfg7n4OdevZytXFjx97YP/eXXINcj2bhnKDZrjHmHUYw3IKY7WjgHeVJkJdxa+fAbhz5xb279sj14E3bdYq3DkA+spGJHptEQUHBcmNiLwRkAZB/S08U98sqRlSp0krd4HoEpkSqOjzGyMqqyuKpase7TrUY64LfCjb0gd+IoqeKdvSZ8Ij6rv2Nzx98lhu8eNV0rwpUvsxZmmq3lcGkIyBgaoyL188g4+Pj9QRL34CpE6dGnR+eJUzTzzk1ca8YZNXlT/2eISvX3kLpAnMkyWTa70fPryP6tVromixkpFWbbEFYiUQVQkoAILxS0W3VYgKWlEinbB9uHfvDqa5TEKFipXlXnkerfn8+TOMHT0c3Xs4ivIcN2YEKleuJlfI9nJ0kut3jXqiYEiMqjeSL1FR3LlzU67aVT68B+LggX1y730ju6Zo2bIdkib9M2eOs+0li+dh48Z1GDN2ssj43LkzWLRwNnLlzovevfsjRYqUkfzav/O6UrUrh17bID14cA+ZM2dBwoSJhJU6cGAvli9biIqVqmLgoBGaD9BnCHV9YVBwEGikeGNoQt64p2VuyFB4PH6I3bu24cb1a3JtcbbsOeQ2Sx8fb1jnK4CateshYYKEmn3zEfm7ur5VafD1jcJbz7eIY2qKlKlS6wxp6AIJyroikq0hX13J6hiSsbEah1cluy1fhCZNW6J2HZso3HhobEtK6KECFqdOHsfKlUvliusaNeuIPvP/6o81q5fL1dME/+wbL4k6sH8vjhw5IEe72zVujlOnjsu15AMGDkOVqjWMWECR1eP6YGVkYVRUPWWlRxGZ/hvjjegW2fdv3/Dq1UvkyJlL5wvUyw/u35Orxn/35VdGDOpfeSVSDAK9G94YRg9WW2D06Pkbz8QmjUc0rIt6Dg5ShQZYVh81zZv3EiTg9coq6pp09v37d5E8uaVcwcpn796dWL3KDVNcZiJjhkwCGMzNk8n934ULF4WlZdh70nn/PGlEUosRXYXK88vlO+LEjbQCYTneQ0+vz8TEVDOYqr//lL+rbin8Kd+mvqGQk5D30q9btxLz5i3TOQnoWU6aOFrulCdASJgoodSZKGH4m8soX9KpcePG0ynjHz++y7nlHDPeX58gfgKd38r6KSuGNurWqSIAgezMR5+PWLRwLjhOSoDAb5ErmhMmDPMdqvkRhDhx4soZ8Rx7U20ZiQ4NkVP8+Jo7Lzhe2mo5KDBQvC7SxAEBP+QabjW8ZBv8Teo2VclfXZblpP24cRH4K1D+rrwhUq1mHj18gBkzpsB51AQBn/w7rwPn3/hvAgTKmHXKWJuahiGnVTL4IffVx+NdEoD0iyzE5s3r0LlLT2TKmDkcqc25cfHieUxznSRsTevW9nj3zgtbtqzH/n27MXbcVJQoWTossAj8JXWTXVCqcsrj+4/vSKR1/W8YYxtynXacuFyrqn6yvcWL5qBChaqoVLmqzrnIOvh9bFN962a8+KHshtxXwjUUT0XjK00Pb03lGKl/V7/D/3LO8UY0Xbd3ht7wybFT1a1mW3iJWkCAao3x4dwkuDM1DYVRDEd6PHqI9BkyIkOGjEYrW441ZxJlpNQdDL+xhfgJVPMwoofjNHnyOBw5fAAzZsyTtUxZrFnthuPHj6Bv34EyvqrHBKNGDkaevPnQslU73L17G4MG9Eb/AUPlNlL12lR/r3a7JKBU4xP+RkeWo+z5HQzNUg9E1/DxuzjXtNeduj+0BVwf6vHkePFdPtG9oVU9/rxtl/ZCaU9oa3hplfr7qJcYolX/m2N3YP8ePHxwDwMHh4J+dd/5XVcuX8SG9asxcfI0nXc9qOZGzHyLofnzt343Cfyl2OaoC5CZAPSqzp45JbHoz5/9kDFjFpQqVQa3b9+U3zKkzwh6SVSEVP7FS5RCmTLlES9+PHCwPD3f4vTpE2JEOVGtrQugUKGiMmicODTu9x/cE4Dx0fsDypWvhPwFCuLa1Ssgi5ArVx6Ur1BJqLYVyxfjwgV31K1nIx6snR1R9jG8fvUS1WvUkXAEVy7DD1evXMK7914SQ05hlRJ16zZAUjOzMPKmQrl96yYeeTwEDShj6+XLV5Ich9OnjsP/mz+yZ88hipu3pR08uBcfvb1lQRctWkIW8KNHD4QW/PH9u6D87NlzCnA5f+40OIkrVKoC93Nn8OLFc6Hna9aqK17qxQvnMX/BLDx8cB+dO3UX41q5ag2kS59eY+HevHmFiRNGo2DBIqI0rl+/Kt+TNUs2NG/ZRpTBN39/+Tvlw0VoamIiMmS/CVhofG5cvyrhl0yZsuD4scP4/Pkz8ubNJ0qHAIyPj68Pzp45KUCQVoxK1tV1UihA+PgRixaFBQhcKOfOnVfUUU8AACAASURBVIaXpyf8/b+I8atduz6SW1rKd7FtGkWrFClFHpRP7jz5xFPlnKF35eHxEOnSZZD2KE8qumLFSsg8imMaB1evXsK1a1eEHQoKCsTJE8dg17iZlOH7DMNw7GiUS5Uqhxy5ciHgRwAuXDiLmzevo2zZinj58jmePn0sALBYiZIoUaK0ZuFz2j979hSLF83Dnj3b0aFDN6SwskKhIsVENjNnTIGVVQrUqdcA586cgq+vL/LmsxbQxDXBb7539zYuXDgnyooX5ljnLyg3SD554gG35Yvh7n5W5l8KqxSoVLU6smfLEWYesp/Tp5OpqQ779p3lN49HD9Ctqz0aNmoKx979xSB99ffHpUvnZb5T0XE+ca1xLRD0nTl1As+eP5V58cnvE6pVrymMD8v+CgwUpXj3zi18+fpF5mbJUmWQOVMWLFu2CJs2rkH1GrWRL29+8azKlquo6eOb169w+cpFvH3zGg0bNpF1QCPXtZuD0Odnz5yQOUXjkzVrdhk7UuZ8nj17govu5wS8fvjwAXnzWqNKtZoiK5+PH3H58gUJsXAM+T0VK1WBlVVKMWYfP3rjyOH9Agj5vZybBAUWFsmRKnVqPH/2VIxEvnwFZB5SLilSpoStbRNZR58+fcK1q5fg4fEIJUqUkjDDnt078PTpE6RKlUqMFetk3ytXqYZ8+fKD7NnNG9dkDVNGnAOVKlVBcssU+P7dHzt3bBU9pgL7cUROGcOFNsMq09u3b6G3QxcBia1atxO5nDx5DMuWLkTzFm1Qu3Y9kQdl2rNHR0x1mSVjqgYInTpTPySSuc4+V61WU/SoGihQDmfPnpK1Qz1LZ6lgwcJ4+eqlhFf45MlrjZs3rss6IBPZuHFzZMyUWQNM6MBQj1xwPyeyZx1FihaHr48Pjh49KDqxSpUaMvc5j65dvYwfdApNTVGseEnkzZMPvn6+OHrkoKwn1s959M7LE3v37hJwXbFiZemH+qGXTpaEMs+TJy9q1KyL9etWybinT58RpUqXgZ+fH9zPn5U8KH73u3eeYhvoRHzwfo9ChYoIw0fd9/LFc3G6mLORIWNG3L1zGy9fvoClpSUaN2kh82vf3l1YvHierAmbBnZImy4dSpcup9GDDOvw91s3b6BN2w4yv6pVryXgkvP3gvtZfHj/DgE/A5AhQya5Sl6tQ/+WMf8d7YYHCDpa+er/VRBt7jzWKFKkqAzAiZPHMGDAMJw5c0IGk8q8XPnKYrhI5xEQ9B8wTOLWnz99wuzZ05A/f0EZHIIITp6mTVuiSJFiQp9duHBeJruZuTk2bliDL1++YNLk6QIq1q5xQ63a9dG1ay+8efsaK92W4NTpE2hv3xmp06RBiZJlsGjhHPG0xo93QanSZfHB+wMOH9ov3kTOHLmkvZ07t6Jnrz6igLWRJdu+cvkCChcpJveKHz16CDlz5RYARMV+/NgRzJyzEGXLVBCwsG3rRpw7exr9+g8BZcPFlClTZlFYnOjv37/DhAkuePPmDVxdJuD586fo2Km73C/+4sUzXLh4HvXr2YqB4/3zNLiccKOcJ4DemHWBQrAMMdgcDjVAoDdIZU506+HxQOLis+cskgV8/95dLFwwB4UKF0G2rNmxb/9upEmdVsIyNGz8pnFjR8gY1KljI8wMjTLBXYeO3VCtWk3526pVywW0UUlSWVGxrFu3GmPGTEat2nXxUQdA2LdvtxhBKiMa/T17dso40qARoM2fNxNp0qYT+pTx1a7deqFI0RKIGyeOgMMdO7ZgzuxpKFmyjNCvvr4+uHTJXei/zp27o0SJMhI+4jtcrLduXUdQYJAYJipvGqqiRYuLQiAYIWWr9tTptc+a6Yo2bduLsvP+6I0rly6KguGYVKhQWcM0vH/nhW3bNmHhgtkYNmIMUqdMjcxZswlAmTF9siju2nXqS5sEW2S2xoybLPOWY+LYqwty5MiJUqXLyXdz3Lt0c4C5uTk2rFuNw4f3o3WbDkibJi3yFyiEVKnThPiLKix4SwdAuHP7BhwduqJDhy5oZ99ZvMMjRw4KICUt7efjK0aBc9fGpqEYk3nzZqJRo2ZIlSo1tmxeD7IE48ZPFWVK5X/69HEJY1Chbd+2WUDF4CEj5ZuGDe2Ptu06olixkjJeBHLqh+uec5X9rF/fVmRN4zJo0EisXesmXjaByLOnT3Dj+hXUrtsAFStWkX9v37ZJ6kqZMqXktLifP4MxY6eIgT+wfze8vLxk/nA9HTt6SABl5649Bay7TB0v4NvGxk4MDeeCRfLkqFfPVgCH2/IlAizq2zSSdU19Q+bFtmFjdOveG36+PjKuu3dtR/sOXdDA1g4D+jvK+uB6ih8/HhYvmi+AiUY5Teo0OH36JB49vC9OCpMEDxzYI+DCtmETHDq4T/5NOXFOXL7kjvwFCkt/wl8oTempeBR+g1PfXkiYMAFcXGcLOD118hhmTJ+K8uUromOnbkhuaYVLF92FJR09ZpKUvXv3Fhx6dka9eg0E8Pv6+QmwoIx69OqLNGnSCLiaO3uagG8CVurYp0885HtNTOPIGvTyfCPzN0kSM1nrG9avEmPM0IW6jzSwnNdz50wXo9yjZ2+UKlVW+r5q5TIBwYOGjMTnT5+xbesGFCteSsbo2rXLAswokyxZs4l3Pn3aZLhOmyvhFK5pzkUCsz59B4qRVz/s+8wZUwUAuE6fI6B6544tmD9vFho2aoIWLdtKjg51MfVstWq1RN/TCaPu45ymPKZMnSGAgv1fMG+WAJUaNWoLEOL82rN7u/SP9an00iwBswReXAs5c+XRhG8Jttje6TMnMHDgcAEIdNB4Df3mTeuFKS1YsBDev3uHc+dPo1DBImho1xTJdOVk/Q7L/Yfq1M0gKMJt9Lw6dWqDYcNGSxz661fGZffIQD16dB/z5s5AmbIVxBgRzVIhDBjQGwXyF8SYsZOwc8c2nD9/GqPGTEKSxEnEKC2YP0sGlx7V9GmTUL5iFdSoXku8BCpALvBp0+ZKUtysmS4ySWlY+KxduxK7dm2Di8tsmTAMH9Bgjxg+CJMnT5dFT9qO3kSTxs1FMXFBDB82AE2btUT58pU1AIHG181tiSinuvUaSP3r1q6U+gYMHA5v7/dw6NUFrtNmo2LFqrJQqOjpxdWr2wCrVy2HhYUFGjdpKRnGDx7eR9fObWWiM3ZMOp6gYcrUmYI+CXzoJSZOlAQ9ejoiZcrUmDdvhiivAwdP6Rx2dYiBnj8nd+rUaYTFqVG9PPr3H4I2bTuKQli3bhXatu2A3LnzSu4AFw5BDEMzDBU0tqsrRriP00CYmyXDvft3RBGUK6tSTjS0jLd36tRdAALpQXpR9GAJEGrWrive3uJFcwUoMcRAj2DihFFo3aa9LGyCChqs8eNGYsbMBUK/0rCz/ebNWwt7QTlQiakpW08vT3Swb4EaNWujR88+YsjUSiptuvTo1t0BXz5/Qfdu9ihevKR40wSapJqXLJmPVClToWt3RwE2VOqTJ49FkSLFYW/fGW/fvkazpjYYNnwMGjduJhQ2DSEVJo1Zz159RcGp1fiZMyfR27Erdu89KuwEVTu9jxnTp4j30rvPAHmf/XMeOVj6VrNWPWE+unWxF2VDT4QyWLpkPlq1bo+aNeuIwmMYafzEaTIeuqK+AhCmTULpMuXRpEkLAYakOP0+fcKQoc4STiPwHjN6KDp26iGyoAdDRUaA1r1Hb7x+9Qo7tm+SEAmV1ZYtG7B06QK4rdgggGzz5vXihdJj5Xxlv6gsnfoPEdapUsUSmDx1BmrVqh9uLpLdW7FiiZRp1qw1Chclu2IlgGzenGmYOHmGgBJ6mdQJDEV26NhVDHjy5MnRomUbYRRevXyJkSMGYejw0fD1+Yg1q1fArklzARNkh3bt3CbxeuqbAgULo2b18ujrNAhNmrYQo8U1R6DQt98g+Zbx45wlV8PRsT+ykj0EMHSwk4RYFi5aIV7lmdMnsXz5IvFoCRDWrFqOsuUrIWvWbLh4wR0jRwyUNpifwOTnTRvXic6pUrW6gNgli+fLWhg9dhJmTp8i37xoySqZ//SkyVLQiwz/hI40vfNt2zZjzSo3jJswVYAlQf7mTWthZmaG3n0HytrleqpevTZKliorwIKgz6lPD3Tp2ksANOf5yhVLcenieQwZNho5c+bCNNfJ0pf+/QdLKI1e+dw504RFbGTXTMaDxp2gmswWgdRo5yF48uQxNm/dE6bbrIdOGh0uzgs6f3zGjRmOChWrCCiY5jIRCRMlEpkR6Dx96oHprpORKXMWWQNklOzbNsWkyTOEDeLDeTZhvDN6OTiFAQj8jYnoo0cNxdz5S8WJIXNDnVDfpqHoMM7vE8ePSNvUfy5TJ4iuIxv04cM7NKhfE+MnTBX2i2CErAzZS65PshUEkk59e8r8HD/BRQw8+0K7MHPWQp16d4XbEmzbugkbN++SuUy5nD51DGtWr0S/AUNk/AgwOH+PHjmE4SNGi2wjCmP/IbseY82oAIKBHBUatR7dO+Dzl8+wtW2EKlVrImWKlBLfvHvvNubOno7yFSqjTZv20jEuKA42KbVNm3diQH8HYR3oGfMhHU7vtWrVmihQoBA2bV4PR8d+yBPirRCAkF6iIXn8+JEY1MKFiwmDEA4gZM4soP3u3Tvo1bOTsA4FChTE6tXLJRzg4NhPlAhBBBEu8xPoaaotAumnfk69xPOzSpFC/kwK1dPTU4w6EXvPnp1kUc5fsFwUMJWXeA/fvsnCI2tCT4oMAWlHGhka4QY2jbByxTJJOFq8dJUY5R8BP2Rys6yDg5N41joBgtaYvH7zCpMmhOYgqJMUS5XML8aci56eDFE2kS7DDGRduEhHjhyn8QLr1K6MypWrYtAQZxlyjsHMmVORP38hdO/uKP3y//YV3Xv0kYXEd6gI69erhtEhDAIBgnaI4cH9u6IwM2XOiiRmSUUGHD8qNRo1GsO5c2eI/Pr2HSRgSplEx77TiNezsUXXrg7SbsDPn5g/b4aEl8hEJbdIjjatG0sOhtDvJiZ48vgRBg3sI+CG4R8+jIGTKWG/RziPl3BXjepl4eI6R8I6rJthlOVLF0q4h8qHSk0tboZXdAEEhhiYgzAoJEmRoJkKhzHiBg3sJKbOOZ7MwkLmGY0oPexOnXugfv2GGoAwIQQgKLPv2T5DDK6uExA/XgIZR8qRZRnKYmiIBpx19nfqJeG2BCG5HsyQJ1jq3WegeG+cj1aWKXD9+mVs3LBWwoCLl66WBLn161fJulMnu9Hb5pinSJEKX798jhAgyNpb44Yd27dgwqRpyJkzt8icyX8E1TRGFCTZHc4trikyGfQOHXv3E+VOw0RlTXaIXtvePTskxDRk6ChkzpJF6nv9+qWAchubRgI8q1YujS7deqF9+y6i0GncWX7Q4BGy7XTsmOHyzZxvBNxUCExifvzEAytXbZI6Kbcli+bBpkEjAQh+vr5IkjSpAHYCuzx582Lo0NGS30NPlgCXHiqZCs61Vy9eCDO4cPEKHD92CHNmz0DtOvWEjSMbxDBe4sTaOUHhE++YB8NEVbIXLFuvfkNh6Ah6GPIjQ0QmiEnX4ya4wMxMlYxM3TZogKPkIFD38vvI2h46tE/klitXXjSwqS46maGiIKhyxZ489pDwEkEwveX7927Dqd8QDYhymTIeJ04cw979x8IZFALtqVMnSOiKwJ5AdGB/RzHgDMV07tAa9h26CAsq6y4wUEA08zzIRtG5aN3STvSxGiBcv34F48eOlP5oMwgsz/52bNcCxUqWkjVJFolzimCHdZDy93rnKWuN+pu72xgy4BrmuyvcloqBbmDbWBi+lSuWCECgHs6cOav0sV/fnjKWrtPmRAkgMGGZztHdO3dEDqpt9xAGmbqTwIgARVduSIxZ7D9ckeEQgwkkh4B06fr1q8UzZ5CLsdeeDk5CGdML1QYI/AZ6aKR91q3fhlYt7SR23Kq1vQpAIFiUCD0Y0p3bt2/B4MEjNQpHbbxpSahoIgQIIfEzbYCQPUcOLFowVxZ7nz4DVElcOhJjSQuTyp46ZbzQbOokSP6dIMfKykrKkp6nIdqwcYcoCcZLHRz6gROeKJM0NeP46odIk7SyCumHAIQlqySRUg0Qvvl/g4Ojk9C4ehmEkD7rBwgF0KlTV3Tt5iiKkwlQpPryWRcUxE1l1H/gMOTJnVe6pgYIg4c4y78ZkxWAYF1QPL1Ro4aIl9yzZ18JS9CI+Xz0ViUp6gkxEAzt2LEZTk5DJENfxjc4GEHBwbBIlkwYBwIEhhxILTKxUpnJrgYI9UMAgvp3N7fFwoIQSDF8Q4DAbyUToMpbuYYhg50wcNAwYbPU5Uht0sMfNXqiGE4lQCAdTbbl+vVroowyCwulmiLaDEL6dBnke5RJimpWwcmpJ1q0aANb28aiFEhL79mzQ3JgCJ4Zh23WvJVQz2oGQQ0Q1HNFWxaSgzBtkoQoOC/IAtWrbwt7+y4yLupwDHdUzF/oJp4b+6JOzuT8YhIox4PxWXp+TN6jx7102RpRqm5ui4SFIhumfD75+SoAgnJPAQHCCmG7pk2fKwl/7BM9Xs+3b+E8eoKmSvaJbCCB1JhRwzDSebyEv1QJvCp4RMO4auVSCY+NGDlO4sB8qODbt2uOcuUrCqO0ds1K7Nq5BX37DRbFfujAXjEwauZm7JgRCoCg8napO1auVgME9zAAQd3RKZPGSRhzxaoNApJo6DhuBEIMkWXOojIuap3AEMmPHwHYv2+X5CGQXaLHyx1V1vnpAGnTr+GVDnNXCDapR5jHQWaNsXMaGIY20qXPKOEShqKY28BHO0lRDezILB08uA9DhjiLI1WrZkXRoaXLltOsQW6fTZQ4segdXQDBdeoE0ed79x8PNxeow6jXyfYShDDXgKEaggKyDp07thadqWZdWQHzd8hqMARBvRkZgKAuT+Zix65DwhpTr65atUxAAUNrZJ8YIuHD3LD9+3cLI0nGrnu3DhjpPFbCTPoAAoE1H5coAgSC6YkTR8u8nTd/qYYpuH//nsw3smAE9AT3/5UndBdDBBuKOYmp8HkgEWm7LZs3YN3aFRrvi7EvFUDooJHLlMlj8e79O0ydOksSbriflyEBzROydhiDY34CjRYVmuQGaK0rbv+iwi9cqJgqxGASEmLYGRJi0GYQenUUtJk3T37ZlkbESa81TZq0qmbDg3rcvnVDQhM01kR/YdzbkM5ysTRqWFtyG0g1MQHPOn8BSX4RGq9cRaFsJbtaq+9MFFqxYhmOkkFYslpAQ6QAQkj76hwE9S6GUAaBAKGbhHZ27NgqSJqLmWGXNWvcBNk69RsssTU+dckgVKmKwYPDAwTKdtSooULV0pNKn15lHMnkRAQQaKQZQiC9Z20dll7jlCIbIwDBzFwyteUMB8WjYRDqN0C3bo4qBQdIGIrlqXxpbAgQunV3hJ1dM/n9scdDODp0QfsOXcXLUZej90dvmcY/KChYAMJUl9mSBMaHyVArVy6TPAR6VOqzHFinsD+OXbEnJMTA93UChFcv4dS3hwYg3Lp1E/369cDs2YslAY9JlUxyatK4BerUtdEJEJQb51QhhskCNuk5L5g3E9u3b8bwEWPlb1wbVIyTJo7BjFnzkSdPaKKXWqQ0PsxPIDgiW3bs6GFMc52IZW7rNaEA5vOQrlcuCq7zShVKSCyXxjd0ModO6rAAIZMAhPnzpuP0qZNwW7keiRKRnQtVJsy5GTigtwAl5hAw3q9ul/lB1CVMfqPXSbmxTRpPhpNat7KHbaOmktz78NF9YZ8YsuI8Y0KgOnM9FCCMkhwH1kFWgfNDBRBUzAsBF1kJMgh8qHucRw7BxEnTJMmQ65WJmBzvuXNmwKF3PwEpSjnRa+X6YMLk9WuXMWuGiyRRjxk/RWtXgJKWVc1O6hIyJgSCDIUyLFenbgMBJGSvyGg4j54o7IuaqjYEEHLlzoOa1crJNmg6bboeOmwEYtQH6jAMQQlpe10AgXXQEZo6eRx69OgjoapRoydI3gx3u7Rp1VjmqDqZlu/TqBMw9ek7AIGBQQIQJk52lbNb+ETEIPB3hgMb1K8hjgQTSLnuGaYjK1GpSjXRs2R16AgxhDB0+ChhnX/9CkSVyqUwatQEASy/CyCQ0Zs/d4aEc2fNWaTJNyB4mjRpjDijDLVHd2eIzgH8S3/UzSAogO+lSxck254JL/T6GePhoiea4wDRA+chRlTezCL38/skoIADTBS4du0KieE5jxovcUZm2ZIyCgwKkoU+ynkIkpolxbBhY0SpkSamF8R4G5PiBCAwxKDJQViBXbu2w8Vlloo+MoHsQqCxoIfGrNe9e3YKSGBSW926togXL64gcR8fX8miVQ/iy1cvRJnwQBoiYlKUNFjMMyC9Rk+OD3Mi2I9Klath0qTp8je/T37ClNy5fQtO/QejAD0IE0i8k2CASS2M2TI+xXhlsmTJxDvgwlQzCPS658+fJTG/I0fPSb+oGEjR8eFQvHr9UrXNsWBRtGzdTvpKj6ZM6UKSvNaseWtZnO+8vIT6ZTyTntn582clhpgvr7Uo8np1qwrdR6+DbdCQzJzpgvzWBSR+zbAMDQDBWrlyFWAaJ67Q5S2aN8CIkeNRt66NhC0WLZoTss1xgGwlIvXI5Cpn5/GyaOjlnT13EpkyZBHmQAUQzGThMwdF+Xz7/h2NG9VByVKlMXLkeEkEYpyayoGUKz0Ib29vtG3TROYA48jsP+PQ48ePQvwE8TFq1EQkTpJElMzE8aNkt0GtmnWlvwQIDGGR7qdAyXpxTnJO0YtTAwvKmrkDnEfr1m/XMFo0GuptjhJiMDERz5iUJWXPnAgySavclmDrjv3CPDHxlXQks6bpVezevV1yBWiMaEzYf24HVj/qnTwzQgCCffsuEt8cPqy/MCULFq4QhovGk95b4SJFJUeGuRwEdQS6pJrpyfBvzmMmSsIVY9xzZrti4aKVIicqOIYKmT+SJWt2MVjbtmyAjW1jMWAECCOdx0mCH4WlMsIqhcA+clseE81cp88Nydo3wdUrFyXcQq+XYDVOHFNhr2hI2Kdp0yZJwpzk4WTMJFtNr167LJ4Wk4K5tZMypCy5O4GM3fq1KzFuvIvIkrk2q9ds0ew+Yv0MG6q2Q5tCBRB8BBwzNEb9MnbMMDz28MDK1RtF1txdQh2kAgiN4f3hPfr07io7H+jx8h2CCOo5hg0mTxojoScmNVtaphCjs2/vTslRGDjAAVOmzpa8ChqNTRvXim4ZO26KtOP59o0wHIyVhwVZqplGD3zE8AHiEQ8ZMhLZsueS8mNGDZV1MtV1dpit2gwRDR7YF/36D5ZMeo4DQ0VMluRaZoydYQkmby5fsV7miTrZkDke1FnaAIFnbLAO6u2TJ45iz75jOo0a58aI4QP/x95VQFWVdeEPO1BRERu7A7u7u7u7W8dux+5uxe5u7EIUO8BuUQwsTFD+9e3He1wu9xXg6MzPWWvWzPDuufecffbZ+9t1jniPM6TPhCHDRgvNaUmPGjlETnck8GaohnuR8pGJs1xLPlOndmV06txNjCe+i3KRXgmGGGiMaSnSHt07ihdi+owFyF+ggMhOhqubN2+DDp26CT/OnTNDQMKMWfMlKVFKsSuVwsDBw0VWMKmUiewMtTLEwIRczpceBP6bvMtQMHMQmGQ4e+5ig9xVjomh5DWrVmDz1t2yp0jTM66nBNx17NwdFQVEQ2T31auXJDTLw67+Sy0IIKi9YXprG5BYDpU4XcAFChSVMhuWHQ0b8beUEk6aOEaIR3crBQCVM0vaiC4JKD75fsLgQX0EeZGZCSLixomLhk2aSzkVLQi6wJhtnSljZng995IKAgpJJq/MnzcLTk65ZFHYd8GCOcJsZDTWazOpjQlgXCgmhdVv0EgUMJUzNwDdhNGiRhOmoPBj3F9v5PBvrKKggmUcmXFQKhWGUJhAScZgY1Jei2b1JElN6Z4lY3B8tPIzZMgszxEcsJqCCWUMjzAjlpYqPSR0/TNLnnE8ZgizTJKbYOzY4eJOJmCii7pwYd1hT7RSmGzJRDNaLe1ZR58qtdTo9u3TVdxrHBMzw+mSZ04HPQjMv7h69YpUnTRo2Azv3vlIrgXLJIcOHSNJfkyepJVOy40AgSERxhFveFxDoYJFJNYXJWpkrF2zSjY+PUQxY8TA4sXz4ef/XSoFqGSPHT2IeXNmSEkr1/fly5dSrsRQBUMezFmg4GMMmQKZpZxKhxUBGWOodKMznyB5ckcZG0u5GjRoIt4nxmi5RkyybN22o2x6nkVw8eJ5zJ83A+nTZ5Is83Pn3MTSpEfBPpEDXnh7o0K5IqKUmRxFwMIqG3p7WrRoI+5XpSOdFm+rVo0kAYm0pRufuQfMNUmWNDm6dusloPHYscMyL5ZX0cJiTJzrQcDMzHcqFFqw5B+C1C9fvmL27KkiQPgM30FLno1gj/uI5ZVMjmPCbJNmrYSGBEaDB/aBj89rSbiip+7kiWMi8BnDp5ufa00rlFUmzN6m67VQ4aKSrU6LmvHq0qXLoUbN2vjw4aN4fBhTZikiEwrLl68s2eIU/rTgWJ7KU/vixrNDhQpVDMf7UpjOnz9L9gtzewg2ST+uH+P7DD1w/zBuT4VQv34TSdxjwhwVLitIyJ9UHgkSJhTPyLev37B16wZx85csWUbmRHlQuXINKTkk2Kxds6J8wwCmECBAs1HjFmKFM1eFZcdMHON+IqhlEiSB0OjRzI9JLWVtlBEMRTVt1hIb1q7C/gN7hO9Z6vjmjY8o3cqVq8rhRAdd9mPxwnmIbRtbaMycFgJTKjYqLAKDNm064qPvBxw55CKAjaEh7u0L590xdNho8ThqtQ/v38vhY8yb6N2nvyg9yk96Mvkehqz0Z4kw+ZEVIIzHM97PnBeGOAieT504Ksm5FStVhe/HD+jZo7OAMuZgUcDFiWsncXEqPfILz/jo3LWnlHBzLRlSZEI5AQn5WOtsGoKQWq6WWAAAIABJREFUaVMnYvCQkZL3wneRX5kbxKTElI6OYtlfuXJZ+jds1FRCjXyGlRdM2i5bprwkn7Ik9OixQ4EJxG0loU/dxKM8cwo2bNol72OIg+EUllbqcxlovM2dPQMpU6ZE2nQZxPCiDKWXkt/nejHHiId+0cPKdXjy+DFGjhwkuV9MFGZuGY0oJiHSEGWYhjTQe1s5rqNHD4IhKNKLuT2Uq0yKXOm8VEKfrCphmTaTL5lPwj0XHuc7/EkAI3iIQe2CV4yUio0up9evXskpa3R5UvgQ3c6eNU0UO11dFDiMeTvlyhvswBwmeDDfgILUwSGJ1KAnSZrU4NKnG4nvp/BgyRAXlUzPPAYKWzYqMib6MHZOLwMb3e48Yc4tsM6Xsd/s2XOI8OPmunrlojAp3cg8iyCRvUOILFNuTqnTPndGBBGZgBUIygN/iDxdXU9IyZ2c3aCIWPC41AsXzsk5AExWpJeErnS+j+WVbPSMcPysSHj08L78zT5RYlFqFMx79myXGDGVB6ss9JuVLn7WLb965S3fpOuRCYFypkRg/XHKlKnktC/X08fx7u07OY41WbJkYs3Q/UZaE2R8+/pFrF+GXKiE+DcCFTYqoyxZskuVBkMTTBRjRjWBwYYNq5E5c3bZRHQhPn3ySPowXspSH25MeiN41PXHD+8lB6Jw4aLiZbjAcyi8X8jYKfxZ1krwyKZnN12IoZpkSPObnDMrDHLmcEJs2zgizEhf8gPfQ9BJq1yUa4DuuFoevU2LhkCAJ1LSeuazLG8iQGAMnLzD+XFt6ZnQH7SkdvWzdJcWOelKWpLHaYmx0cVJ/mfCF+PJbBQqLKHk2Qz3792W+TNx7dYtDzx+9BD5yOtJkgq9mfxFcEBFo/8+lSktbLpg9Y2uXIIvemToFaE3iEK2dKlyApju3Lkttf304LBig+EG5kEwF4UxdP67UKFiSJM2rYyL86bCjRMnHh4/eoBz7m5CT7rrczrlCeR1ZszfwOmTx8SVTIXHEjpdsxGasGpJf0BMrtz5DF4WejvoFaRAJ++T5yhU9TkH9G5x/s9feCFt2vTidtbvr2/fvoj7myEWlvny/AR6BgnieMLoti0bxXLXNd5NwNLWvaCipXKix4njIwgtU7aiZJqTh/T7jkdkcw/Re8dGxcTyYp63omzc1/T6pUmbXg40Yw4D+c7fz1/2AXmTz5CvCRC5l2mwUAaxH2UE50CvJ8tuJcFRo/E5ehk4RqWSJOinV4fJd/Ro8Dl+g2eHsJGuWbPlEKOBFQn6Q4cYDqKS5BpTUdIwofJkNQz3Js+84LqwEYRzn7GShwqU7hYaAqzWMCRvK8ZMubh08QIxQhI5OBh+4dgIRljtRQue+4Jyk8aRvtHbRWDG6hnyEsE5Qxo8F4EJrgSX6kaDjV48VsuxMRzIcnEaNPTYsDHJlWfy0BNIOVG0WHFcv3ZNyp/z5Ckgp5+yDJyNHmGCUv7G8bDR+0RPEpOVXQ7skTNLKA/01R36MZHPCUaYfMzScZ5Poz8zg3uBeU6URTRaJIk40Ouruej/0j8Gr2LQSOSTeen/rgqr0ZVHBTx9+iTZ8C1btg1OJCXgMPZuI4RTJ7IZo6/Wc7+rb2h54HeNNzTfVVcgmJuzJd8gSGEVAw++YvKnsTIhS97F8Sif44FBNaqVE/evPpygH7MaGJiby6/53UTyj+GDWvFs/Uz1G1Q5c2OJchpJOCFqSsKjr3rjqymuFijq+QXR5G9WpLx5JetHZceckg8f3kmYg54TJlzS46Fr5uj0a1bwv/hWejd4OBINNBpX5StWlsTbf0VTCyn1FlOyn3Ib6SdnRN+Z3CqmtqEpdld+09gW1npGuRAmDPtgutvUXNXvC6Shjb+/X4AimqC5/sYEs5wJ4LJPElhotTVt3krcS+pjdM293xrlHxYGtVTBaH3Dkr7GnglLX0vma8n7LXmPUoz/U2tGi+HkqeMSPqCLjy5BfVlSWNaBfelBoruah6rwLAJW0SRJosspCXvTkkJaiFiLkuHZV2vVzHGE+nfl/5uC3FrwMLz6aq82XdwMuzDUkSx5MnFT0/JmHhTDCbx4SQco/wy4F3a++jPewFM/Geenl6xTp25Ix7M7hM6/qBljLb3i1cKtWrjSlLJUvstYX1NsZAlw0BqvsTkoSallJxgDBsYAjlaagJKu6vlrAQblNwMA82WOKn5QigP9iXcMAZB56EKne46n6ambcv7WslhY+4aWrc2JWVPzCG3fsM5VzVOW0jq049XzWGhpLAmhh/aDJVkMq9Ctz/CHuWaMTsr9TZci3bbMTqdiyZgpk+SJhG8zBQv1O9LYF40pV1OzMwc4tL5panW1JIilFAprX+V31PPS0YCxbIYueDQwXet0szOHiCEVvctZs4bZ0ilEPKdJAYaUWXbLMkLm4/yjpXtqttIaoZZVbkrhqVnNFCBRKckQVrj+d/X21fqGMYGshdHV3zUnzC2lkyXjNUJjAQjWKAeteRlTDlr0Uz5r6XfV4NEapaT1DWu+G5rxWjM+9bpoqQZLxLtyb4RmzOFFJ0vGr1zPP0s+a3GaltTRVma6uZj6Tfm71u62tK9yx5uSQKYkjNYqaFniam76s1YsYjS/kQLGBLO1QzJn9Zt63+/oG5Yt8TvGqxY7VqyP1R4EK94d8ej/EQX+OaVvzGq1BLpq9VVDGmPWuykYrt71oYHMpr6rNUZzMNAUnbQkhtb7lN/951b4/2jb/LlTNbWdrGEFLbe8uVlreQcs/aYxN7vaOtfCwspxaSlyc3Mx5vo3N1/9drTEI6Aeo7KPuTlp9VXTRfX/VnsQ9PZUaF3KllrvltA0NM9Y+321F8SaeYdX39DM01gfLX7SUm+WeBSs5Wfr52FMMWpR1pyiV89cORotaahWoqZ8mlomhTHQYIwrjAGEkM/rRqL+u6nxKnet1ndMASel9LJ+BSN6/AspoFTGWkpPqYhMKU1LFKYp4aPF4mplqmdtLSVrbFsa2zqmxI05Jf4fpZNZD4IphWKO9X93X3Pjs1SJWvKe3z1XU+pPuYcsmcvvecYUdDP3m1I5qkdvrq8pyPc7+pqDsOE9JqU2+D0rH/HVcKCAKWvEUuystv7UQEGtjE1Zi+b6WjJeNeY1Bg6MufzVQEZrfuGJ7Y2NN6x00pq3Wqibs/KM2UBq/K98j01gkqIltouShU3ZLvrnjIkxU3xhrq/yd2MqQeu7lozX2Bpa0tfSuWqN2dK+xvZAOIgWC15hTmmZekVY+lowNM1HwvLNP71vhEIPLVf8K/uZEmhait9U5En5vLm+WjjbjDKRLsbGq9VXS2mp8bqa3VUKzDDMCDoFX7FwolOYQwyWrLEpcGGKn7V4VO3JsQRUmAMlxgCSOcCp/F3rG1r70dw+0b/HWN/fK+SUo7Mm2KKEu6HpZ2zVzVEjPJR9aN4RHnRSwskIUGBupf/Tv6vZyZxwMBYNU29DLbYyFj4w11frm8asKy2lrzVHtVWstcimvvsn0kk/B1MRS7WSMNVHi8bhSKdg5yBYKwrNKV5L7Mrf8U1jQNeS8WqBhj9TOJmirDmqh2dfa5Slse+aG29oVtRaaKm1yuFBpwjl/2fun1COSovdTSkqS1zDWgrDmvi6eiqW9lWCBaWSUm4d5di0wIXy21rWoDUgQgukGKOfpeM1BXwi6GTZOQiWiGdj2+lP7GsMwKp56s+25i0VYOZWICxKzlJIpX7u3zomtbRTc4ga6hujj9p8sHQtI577V1BACQjUONSYQlQrXb3iVWJfU1a2WtEZw7/G8Lp6zMaAjpYzL7R9raGT+ruW9LV0rlr2hTV91f0t7WspjS2ZqxafmOMJC/jJbJLin7QheXELz+bmeeK8RMfSZkyMW9r/z3hOrVRD7koeaMF703lwFc8b1591z7PrI0eOImf165oWx1kK8dTmkCn3v9aY1cExc2BBa7zGdqCxnW5K2irnbYrGalhpnCt4Tj1PiPz8+TOiR4/27zmi9s9g9N8zChNCnVe0U+7w7gDDHrJkGxhjbWMKVQ0StKJxSja0Jt5qbrzmtpR+C5l6TmvljH1Xa0sq+gf81N25wftKeImfXmzxkjGuBXUB70GIFTM2vn3/arhUzyDblOcD2wQA/P8Q+Q08KlDlJtD3M/SxpG/gJC3tG4xOVvSlgFePV0Re4Bz0Y1bS1sBT5voGyk4VnUIFEKxRL2qeMbdnjEkHXsDBU/GOHHZBzVr15HKNiBacAjxamBe78IIb3n6WO08+udBpN2/XTJhQLmkJ/XGplijyf+OKWK74LZ0deZXXBvOmyUKFiqBI0RKWdo14LjwpoMWyWtaCCdc373vgRVnHjh1C27adwKuSQ5zJr8SwWsJZL3sRILd28kI7gkh51MYGUaJGQRzbuHKnRBCIV2pLjftwQouzzbn5lSDFXC6DOYBizELWf8MYALKB0IkXcvE2Wh6nzfbt61e5/I2XNPG6dbv4CVCgQCFcvnQRjZo0g23sOCEP1bSETmoQox6fOfD0q+mkqfDN8IQFNA52OrkROhmSFLXep9xfpoAg+771eSPHovLGPh6Zy+d5fC5vEeMVwFo0t0YWeL94Ltexbt+2WW7m473of277dcqUx1sTPdvbJwpxexivueU1sDwitUu33ihbtoLceDegf0+5iW3EyPGaV7oq6cibA3lNMG/GCz2YCP+V4TG7L154yVHMpm9NU5tYSumtFVQN/7HyiOflyxbi9KmTcn11zVp1w/8j4fjGt299xOPBG/P+pDUP8xS1BJgZYUtw9/rNa7nal+3pk8dwdl6C/ft2Y+68JXJzY7CmBhxacevAb/L2RR4b7XJgn9wQyquxeZQxjwL/4c9bOfPK9dUxY8UKfrVECMtXcWCntUo48HkqYI7HIXHi4JUHWttHCzQYo6PW3/VbUJ2joHyvQkEQPPGK8BHDB6BW7QZo3Li5/MobFFetXi7XYbPt3r1dbkndv38P5s1bJlep/zHNAlHDey6++32DfUJ7OQre6mbBN6x+p6qDJCla8xJapAQC0WMEufiptHbu2AI7uwSoULGyuLf5jPs5N6xatQxz5i4JvqcCAuTKWDICEbOmUAoIwLfv3+V6Tf3Vx3zf9OkTBckTIHBjEYjzClZTjVdD83u8SlatXDhObhSOw9/PTw6g4TWz5gSl/spb/f3f1qyVvi/nFfw7AaL86VbjuHjlLN+vZx5eq7pl8wa5DrZK1RqIGjXkvHmd6upVy9G4aUsBCKQxvQqxYseCk1New/f4ftKPc9XTlwp41cplKF2mvAgrhiWUjdes8jY9tZVD+vE7HCv/m+8lD2g18g+/Fyky7+sIkny6dfCX8fAdStoQHPB63Zse19Gxc/cQ7+a32Ze01LrTXi+zyOhB8yZfBZ8ff+M/QfPwC3bltzEeU/Ky/hleEzx/7ixUr1E7BEDgGuvWNfidJUo6UmGTuaMo9gfpoNwPwdfmh2HsSp7Shzu4R37++CH7gO/Uf5u39vEyJF7rXKVqTbMA0hpZod9bst6quXJ+/Jt+vehS9v/hr+MNPqvC2KQN3ye8FyixuD9sFO/g2Hi3R5TIUcQqVzdZ3x8/EEk5HsV3Pn/6BBeXffB69hRduvUydCfvzZg2EaNGTxCAwPVji8b9p0qS4/XjIb6hV5CB15Nfungeo0cPRf36jdGgQVM8ffoYq1cuw81bnhg0aASy5cgZRK8A3ZXmXLdg3wscHa+iJt14V0IImUXvOALkump6prm3OF4CwlUrlyJDhiyoXKWa9pIq6MK1EpkfnfLGxkB/mWvgfuH4DPtPtXZ6HhSetwnkeQXooSFJmop85u82ANeCF0alSZMeadKklTFu2rgWp11PoGPH7kiVKjXef/iA79++4tLlC6hSuUYwPcBvkj9gE0mu5DapH37odJHQx8pmise5X7kuOpmjk+V6fqe3d/v2TXJDaeXK1S2SM1YOLVwetxggUDkdPXoI379+FcUd2zY2SpUqJxuWt34tX7YIyZKlEJcqL2wiQ/Jvt257omvX3nLJCl2tZLLz7ufkCle/736ws7OTO90TJLQ3TIh3zl+5fEkUBd1KvGec/1w4f1aulm7WrDXixouHq5cvCmPxrvYSJcuEIAhjWLwH/vGjh2Ds6sdPf5QoUVasA777zJmTePrkifw/50H3FZmK99HnypVPxhy8BcjtZnQfMw5GYURGZbjj9i2O+SL8/P3EJcY5vXz5AsePHcHXb19RIH8hpHRMhRvXr4lAYJ4AFX3hIsVhZxcft2+z/wUZV9FiJaXfq1fe0qdYsZKIG9cOe/fswOLF85AxYya5gzxhwkQCFJSNAGHN6uVo3KSlKPqbnjfEo8B72itWqiab+NHDB7L5dIrQH46OaZA8RQrs37cL69auElryvvaMGTOjQMFC+PTpk9z77uv7QeacNFkK5M2bXzakJ99/5RKyZs0uzH/27Bm5lz59hkxyg6L+ilh6gK5fvyK38DE2nzFTZrmNj2M4c+YU7t+7J7SMEzcebly/goIFi8i98WxHjxySGxm50apWqykAqm69htL3udcznD9/TsbIuXDMOXI6hbjbnn15fzvHagMbEarZczjJRTTsx3UhnXLmzA3YBODcWTe5V57jLFeuoibg4TfdzpyCr6+veGoS2tujVOlyEhsVgDBvltw7r/cgvHr5Uv7O+X/88B5p02VAkaLFhYdJmzu3byNlSkcRFnyOfy9SpBjSps0AN7dTuHnTE7a2cVCufEWkTZteaMNnuMYPH97Hp0+fES1aVOGfxImT4PYtT+F/NlqmJ04cxevXr8TSIn/axomDXTu2YcmSeciWLSfyFyiEhPaJUKlSVaPChWE+0okKIWs2HZ+/ffsWR48cxIeP75ErV16hKfmZe4K8wJY3bwGh5Utvb5EXX799QZUqNZEkaVJxGZMHbG1thdcTJ06q+74N8PXLFwmRvXn9CnnzFUC+fAXFk3Tq5HHwmvBiJUoKr/KGx1Mnjokg9qMyjR4NpUqWRYKECeVv9+7dEW8m30cAUqBAEaG1DqhCLPh9e3dh6dIFsu+rVa+FFClSyt5mqIgAYdCQUfjk+xHXrl0RhUJZV6hwMVGY3Pd379zGnds3ZW8ThPD35MlT6pS9QiHe9PTAqJGDhZcpy4THjx7ClCnjxPipVq2WjJ88e/H8OTx68khChbFixZY1Spo0mSjQ8+fPwtvbW3jg588fqFixqs4jQCDy4yeeeT3FlSsX8cn3k8w7c5asSJcuPXbt2o6lS+ajSJESyJ0nr7yPfGtogQqe76VRRsDE+Xz+7IsCBYsgdao0Ij+eP/eCQ+Ik8Pv2Dffu3RVQRrlE+ae/3OnJk8dwP3dGDAvKVvIZ+YM04f9fu3YVTx4/hO8nX7mMq0SJMkidJrXImydPniBTpizIkyev8MjCRXNw984dlCxZRt6RKXMWeHhcFz5r176z0Ic0e/bsCa5cuSS89+XLV7lE0MkpV4g9TCXNeXBNv3z9It7J3LnzCa9cvnQe3/38kDlzFqET+YthJu5d8iBl8B2u951bst5RZL2LIlnyFLr+ly/KfEqXLif9Xnq/QPIUjsLfvGSMXo/Fi+YhTZo0QlN6hKtWrRkuSj08X2IxQFi3diWOHzuMBg2bCuG3bd2ISpWry0biYi5btgCJHZKIcqFSo7JY6bxEBN2AgSOEYbioV69dxoH9e1C8eClhbCo0vqNc+UqSeOhx4xo2b15nUB4UBBTm3Xv0g9ezJ5g+baIocDKpxNzPnMTLl95wXrER8ezsgtGG396yZQPSp8sAx1SpsX3bJqRI4Yh+fw0R64whC1rb3OQUbD4+r2W8BAv8Xvr0OgWlb2SEjRtX44efv4CgR48egJu9avVaAnSmTZkAb+8XGDJ0lICh169eYvVqZ7mJrlOn7rKhKLSp+PguCtVixUuiarXaIuTHjR0hgrdd+y7wefNa+nEDNGzUDBUqVsV5dzdMmDAaWbNkk3wCxiy5oUwBBAreqVPGCaOPHjNZ3j950t8iBMnoZPBPvr4CJjxv3sCyJQtQpmwFZMmSXZB7tuw5sGa1M758+YwMGTOLsLh29Yo8w7EzJ2Te3BmiAPLkzSdrQkBGpT1oyAjZNKQJn6OgplB++PAB3N3d0KVrLwEW5KUFC+ageLES8Pf/IYCqUeNmwgNs3GxcdwqUevUaCy+VL19JXMFcPwItritvoLt9+xaqVq0h9FHeQEclPnRwPwGDOZ3yyPe/fP6ENm07ye2ABEfz5s6UdcuVK48AmQcP7uPG9asYMHCYCGZlIx3Xrl0p1iIVLgX2rl3bUK5cJdSt3ygEQHjr4yMWEIEtBTIB0969O9G1Wx9RtHt378SaNc7ImjWHfItWHhV6rFgxUaZMRQnXvX33VpRYocJFMGDgcIOXjjybOnVa8YgcPXoQyZMlR7sOXeHpcR0Txo8STduydTv4vHkjgpyKslmzVihdphzOuZ3BuHEjxWNUrHgpCRFyXY2169euCv8wjDJ85FhZ3/fv3mHTpnVwdT2Jfv0G4fOXL7KvqWAJfhkjZuiqc9deSJggoVjLO3dtw4yZ85EjhxMePnqAhfPnwOfta/TpM1B4T3+DHhMEeeXzhPGj0blLdzRr3kb21Zo1K3Dy5DF06dITZcpUEE/lvTu3UbxkGVGWe/bsQJMmrZAvfwF4etwQ/kudJq2Ar9OnTyKOrS1atW4vgEivUE+eOIolS+aL7KrfoImALIZHqYinT50gYI/z+fjxA06cOIaAgJ+YNWexABvyCUE9eSFadH7juID61m3aI0GChMHIqQUQDh3ajxkzJst8ypevjKjRouL0qRM4feq4GEDcE+fdz4oR1qhxc1y66C6KPn++ggJMV61aLtelk370GlAx79qxVX6zT+QAzo3r36FjVzzzeiYAhQC+YIEiSOSQCPkLFA6x5BcvumPrlo0CmkmLU6eOwS6enewZ0p+ylQovT+58wg9UtgTbPXv9JXTjvp8/byby5y8o+QGUL8+ePkXL1u2RIX0GnDxxDNdvXIVjylSIETMmVq5YiuQpUmLMmEkimzesX40mTVtJiOHJ40dYuHAObt2+KQCWciNZsuSiZLnWR465Ib5dAslN2LlzqyjcRPYOOH7iCLj3evcZYADVnCh1z/r1q0SJp0+fQejlceM6KlaqCgeHxHL9PA25/gOGoUSJ0rIfuT9pZPTu3V+AAvmP+46GEvUUFX/rNh1FL4wdOwJfPn9Bly498MbnDR49eighkjp1GqBqtVogbSdN/Bvp0mVAiZKlhUcIfKxvvy6czbFYDBDmzZ0u1nzvvoNEoYweNVhQ6uRpc4S4M2dMkgVo3aaDwWqcPXOKxIkOHDwpQkqu9nXZK1Znx07dZSOOGD4QDokc0KFjN8kS7tunKwoUKiKuN7ZTJ4/hoMs+ES7PvZ6KoiDyJjihNeV6+gS6d2uPjZt2IWu2HMHoe+rkURFaNWrWlethaYXu3rkVW7YfEBBw66YH+vXtJu9q1KiZZMLu379bhB2ZnFasvtFioPU5d+50jB49UZQKN8XcOdPFOidjHNi/GytXLMOMWQvEkv327SuWLlmADBkyIk2adNi0ab0k1RBVchNTsZLhRo+ZJDQb2L8nXr1+hUmTZ0lSIeOfc+ZMEzdbp849EPDzB9q3a45SpcuiZasOqtCKjlH0HoRGTVqgbNmKIsx6du+IZMmSYdSYSZIZXK9OFbTv0BV16jaAl9cz3L17R8bIPJJRI4egQ4euKFm6nFjoRMkjhw/ApCmzkDx5CrEWmedAgENh9tH3I/r36yEouEmT5pLr8OL5c3Tr1h6169RHy5btQOF3wf0cGjZujrRp04n3pWf3TgIoOnXuLlZQy+YNRFnUqFEHyVKklPFyffVt0KA+EgLS0SqmbOzNG9fC1fUURo4eL/FzCsDZs6aKcqdAICjUN1qbf/XrjjZtOooCpit54/o1IsBpcRNc9OnVBaVKl0fjxs0QP0FCATr9/+qBuvUaoVlznaWnb5cuXcC6NSsEzGXImEn+PGfWNAEei5euFo+A0oOwa+c2sTxbtGwrdCTY4bo4OCQRRUsQNGvmZOTIkUueodLZsGGNCMlhw8Yge45cwrNTJo3FjRvXsHb9NhHAmzauE+Fdu049CTnt3rVd1mfBImfEi2eH/n/1xMcPHzF2/GQRQgRnc2ZPQ/bsTpIfwfBbyxYNUa16TTRv0VbnAjUhc7gPCBgJzObNXyZJe1yLnTu2Cr8TIDk7L5Y1Iq3jxI0L5sb0/6uXWHxDh43G+fPuGPBXDwEIdNnznSucl4g3hvtOn5QmRA2AKMcqFUuiTbuOAhDYqPA5Bq4LAQJlAJUL+/Pbhw+7wCFRYgEpW7asB0MYzVu2FdBIj9SihXMwZNhoZM+WEzaRdOY9+YZAhEBr7LjJhrVmiIFyp2PHbuLxix0rFg4fPoixfw/HsuVrBWRs2bxeaNe0WSv5xuFDLli0aC5GjRovlrvS/U+AMHLEIDGKatWuJ8qPYR62Tl16CIglmG7fthlatmon4J2AdM/uHSILKTufPHkowIehRPLTpAljcOjQAbgcOiVglUqSa925cw/hA1qxnDfpRa9NjWrl0a1bb+FtQ1OFS6hAjx09jL/6DxFF9vjxQ9lvDRo0weXLFzB61FDxjjVu3AKRI0fCuXNuoljLlCkv67R8+ULQ89y//1Bx3xOYzpo1BcWKlUKxYiWwds0K8eIREJFm9GrcvnMTEybMkGeZO0XjqEmTljLEZUsXCvDu0bOfeBZIE46RivbY8XPyDu6zR48fikHGedMI49xbtGiLdAqDj4YXge7YcVMEdDFxdMH8WYgcJQrad+gi/ciT4ydMF8OWoJP6g14/GlZc72jRo6NJkxbi0Tx4cL94d8eOnYwUKVJg0MC+ePbsKabPmIeECe3h5eUl8j5xkiTo3r2vMHbXLu1EFrVu3V5R6fRrFb61AMRigECLhxs5VuzYOHH8KFbiW8IBAAAgAElEQVSuWCIobd6C5aLIiH4p/LUBwikZF90/jHkSfTGedvHiOVl0biASjQCiQYPq2LnrkLybjcqE7p2kSZNLgo8yB4G/k5Hq1q6M5c7rQ1h5dON+9PUVgXHvzh2xMshgRJtc1BcvnqNr59aoW7+xgQmpYClgad0qs885d+fli8QFTwXNGAqtR1r+FJLctJxT1y5txTLr1LmnAIiJ40dh1OiJ4uojI2fKmNlgUdx/cA/e3s+xeMlqcdUNHtgbL168wDLndTL3F8+9BIDYxomLLl17InKkSCYAgm7pg0IMLcTKZ+vcsQ3s7RNg5OiJkh/QpXNbAXlM9ilctLggZqJgukcFIHTsipKlygpAWLdulVh3FStUkjn/+PlT3H32iRIJjeLFi4duXdujQvnKaNJMt1kIStq3bY6SpcqIslu1YpkIL7r+9XkTF9zPimIdM3ayhFUIWspXqIyuXXtJjFzd1ACB3xg2dAAS2SfC4KGjDAKYCnPjhjUi/OkJ0Dd+g8ieFjLDElu3bhTA17FzD8nVoIDo0K6FgCZ6L6gk6I7v0a290JFAQNlWOi8VDwDnoA+jPHn0UADevPlL8eTp42AA4e8xw3DT44aEXihY2Pj9OLZxsHjZaknKIsgWgdGmo/zOvJ6FC+Zg4aIVSJHSUfbPwgWzcNDlADZs2ilAgcqea0cPChtd8XSJz5q9SOg9cEBvCYstWLhcfqfQInAnwOWcqBMEIFSrheYt2yAyk6W0Mt0Vk6cs6NihFSpVropOnXqIEpgwbiS69ugr31+wYDbKlqmgUz4MWQcEYOKEMWJx7djpIpZU715dDACBr161YilOu55Ez579gjwIgd8kz1apUAot27QzAARdro2zCOgy5SpgyuRxwvsE3+QjKgO6sem1mzzxb/zw90PqwLDMu7c+uHz5knj6qKioFNjevX2LCRPGiKJXA4QZ0yYF5iDklmfpRevUsZUkx8WOE1u+H/DjJ1IFxssJtvmNkfSyFCkWjK4ECFwXyjgaF9xTRYsWF5BNQMN9R09Pg3rVJD5NmctGutOSpTs9R85cEjZgQiO9F8uWLhJ+cDt3VdzZBMoMy9av30T6EiBznais/Py/BwKEPhKqozzevn0zjhxxkWdpeder3wi+vp/EIKJHqnKV6ihcuLgAW+4hjm/woD7iaakXCDIov4cO+UvWfMCAYejYoQUSJLDXVX4gQMKAt27eFLlAY+DoERfxCHIubNxv9FTS1U+52LlzG3l3cIBwFj16/iUAgY3eg0ED+whAoFeABhX3Pd+rm/eHwHknChbnZ67VihWLBVzqZTm9j1TuNMa4p3v36oyChYqgc6ceYggNHz4A48ZNE2/YtKnjha9TpdblR+jW+yJGj5mIggULY9iwARLKXb1mi/xOL/d8ApBIkQTgcI2DAAKNau2cLaXM+R3/bTFAoDJdt3aFKBa6aE+eOILPXz5j7rxl4tYhcjTuQdABBDYqvT27twszkIF37NiKpEmSomv3Prh37za6dm6L4yfOI7atbQh6qJMU+QBjnXVqVcJy53Uh3GR0d5MJmTHMcAER8L69O7Hf5aRRgMAwyuJFc8VjwfiqvlE4jx83As+9vDBw8AjD36l4mJBH64yLThTKEMqGTbuwa+cWiWM1bNhM/rZxw2p07NQDKR11wpzvpGVDy4d9Bw/sI6DFABBeeGHenOmIbRtHlDEFXocQHoTgqdpE/LTwGjVpLoqPTQkQIkWyEa8ALVPGk6kIGeKh6+vpsycYrQIIkyaOgaeHB8aMnaiYMxOWosucCeC0AAKVLd38DRo0Ftegn58/WrVqjyhRddm6jPky0ZXWLy1QCkN6eij8tBqFAIWT3oNAa69Lp9YSburTd5ChCy0shisGDR6BfPkKBFsnumyPHDkobmC6rmmxNm/RRoREEEBoiEaNmxoAQs/uHaRktF2H4ACBCoEWfMuWbWEXP75hPWkpJkmSDFevXjIABCrSwYP6ScZ1zZp1DAKfNOC6c/0JdGdOnxwIEDrI+2gFLpw/OxhAWLRwNlwO7MeGjTvEW0G3LJML6Y1h0yf7cQwUOmqAwBDRrJlTkThJUrGU2FrpAUKLNrqac1O1yFT4PwMwc+ZkHDp4AFu37xNlSc9g/4HDJD+HoLZBwyaoXqOOgf40BOhdO3T4tHhXggGEAGDVqqXi+heAEFjWpu/M+HuVikYAQtMWsn7MaSKgOuiyX9Yye/acwhdUEIztMyRFd7gesPj7/YCDg4Oshd6613kQNADC0cOYMV0BEAIgMqVjh5aYO2+pxN4JIJigzZwS0k+XJKerEmBOisGDEADxGtJzynAsAQIBLS1lglPW9XOMlK89e3TBxk07ESNmDHkn4/jcv1TQlCv79uwEjYxsWXPghsc1yVFyPXNFDLaRIwcF5r/UC7GdqOxqVCsn4a169RqKt4L8xzwWLn3sWLElbs9wCj2wu3ZuxS1PD8SNH1+8DgwPawEEfoheFcoEGkgtmtcTZU6FKbwpc/ghnsETJ45ICIVeJrXnl8+aBgg6DwIJpQQIDCOOHj0Y1avXkX0W8uADGYWMZfz4UXj44L5UxOnbjx8/ESOGTq7R40GPBo2AFSs3wuXAHtF3zZu3wZUrlzFn9lTJ+ShUuGjg3HSJ9wyzE7QNHfpXCIBA4Ew+II/rAQI9yq1aEyAw6V+r7lM/ZmO/mfpdWXuoKVaNXJ4RRCeLAAIRZs8eHQT10bqhUqSAePPqlcTgjAKEWVPE5akPMdCipnXO/p279JCkEiokZth36dpbUFbzZvWwcOFK5M2niz8rpZU1AIFWB619CiO61ejyp1uIbqPde4+ECiDMnTMNbmdOY8mytUYRn5fXUzRrUhcDB43Apk1rMXnKbHF1EXgsWTQX3Xv2Q8FCOqZStyAPgs7dSLAQBBB6SjVDEEBor1m9YQ4g0KXMWDazZxnL3bZ1kySIUVnQqqQHoaPCg0BXLN12BDwUdOpG746mB6FdC4nd0eW6fOlCUaa9+vQXQKBu4jmyCCD4C0Kn4qM11K9Pd9jb22PchGmGV1Kpbt+6GX36DRQloW9cN8bjmYnOZDm6SjesY4yzhSRoBQGE+hLj1XsQjAEEKu5z7m74++9JSJoseYg5KZMUa9Ssg2FD+kvibs/e/Q3eMWUnAQgzJiN/fnoQjACEHz+xaFEgQNi0QxJ56WGoVqOWofRLPRADQFiwXOSPSYBADwJDDOqmARjojWnSqA6GD/9b8ooIRhkrZ4b+9GmTULFSFTRt2sog8+hadnM9hVVrNgugIECYPnOe5P6wMas+GEBQZtEHAoQWrdsJoGMTD8JqZzRu0gKlSpaBj4+PyBEK6Yvnz2PixNGigOs3aIzJE8eiaLES4q431QgQJgYChL9VIQa1B0EAQnsdQCA/Tp0yHiVKlZHcDnNNmYNA3lgwf7aEUml1i7chcmTxsrRo3gDOKzYgp1OuYGWPBNS07D+8fydhIXodli1bJC77k6cuSNhw5IiBQlsaFsFbgHgTalQvj67dehksbV0Fzc/AR1kNFEloSu8UldrTp08kl+n+/ftwOXhSwhfiQajfGPXq66x1tiGD+0luFJMtGzaoISGULl04huBMtHfvLmzdukGeK8xET1ULDhBaiPLUhRjoQdADBGD3np1iWB07flbCnsytYKIh9YupNn/eDBw+fAgrV29ErJgh5Rr70pht1aoxuvfoI6E8hsQImhieIGBk6Edfgqn+1pAhBAj3FR6El+JZ0wGEvgJAgocY/nUehMAFtQHu3LyJLl3aiPVL1xNdRbSmmfwxd/5SqQSgcEuRMiXatO0sNfRsdGVu3rwex064C2GY3Tly+CCx+hgrJKMPH9ZfNli37n0RL2481K1TRZI9GLqwjW2L9x/eS4Y53XHcwOoQg96DQKubGbT6Rlcn3Wx0O3Xr3keyS1c4L8YK56XY73JcARDayJyY9c9mzINAi4BJQn36dJEkHcbWadHfv39HXNa0epiARaqNGT0URw4flBK3Pn0HynvpBmR8k+EUblpaAXQR0tVNC55zHziwD7wlxKAHCPQgzAj0IDDEEEVCDExSY86GMglPP29diIEeBOYg6D0IrUWRjhw9QcIeUyePw+Sps6ULE3MYLipavCTSpc0gG4xhgQoVq0jM29PTA61bNhThSncy47WMmdJ9ljFzFkHCpjwIzDHQxcXnyztq1KwtYQa6us+ddRWvAS2YBvWqg8LSmAdh8KC+AgqYn0Ggwnj3CudlguzHT5gmrn4BrtMnScVK23adJS9B32bPnCoW1toNO4S/GMNmYldzxrCDhRiCA4Qe3TugjIYHgdYPk0qZZ0F6MbRCIL11y3rUqdsInp7Xg4UY1q5xxqqVy8WqZQiKpXgEaju2b0KrVh2k2scAEForAMIClQdhwWy4uOzHhk078Pz5c8yaOUVyM3r1/gup06QTM43Jk4zrMh9EBxDeYsFCZyGFAIRZU5EkcVLxiuhDDCwbbt++i66y5ecP2at3bt9CqVJldd489ZkCdCP37yl8wMqTRYtXSnWI1/NnmDN7uoyjRy+d14RKmyEnClQqUHoK27ZpiuEjx0mFCPcBqwdYBdSr9wBJ2jS0wAqB2jUrCj/37jtQQntUMEycZh5FoULFxOXbtl0n2edsUyePx4sXz9B/4HBJPqWw/mvAEAlfcC8zgc/JKY/kqShzEMaPGyWevUmTZ+qs/gBIia0pDwKT5ebOmQEvryfo128wMmXJKt/gmS1M3mVirjIHgTlYI0cORrVqNcUipVExbuxIMZDGjp+C9OkySiiwWtWyEvufPGWWWN20zK9duyzVKju2bxZXPPcLLd7Zs6dg3drVcD1zWcK49GTS0h06dJRY6Nwb+/btQs6cuSS/hh4E0o7fN9YWLZojuSrMxZIKJTdX0QOnXS/h2bNn6NO7i1RRMTeDjXk8BEo0Cpi8Omb0EMnWp5ud1RMcA70nlHGMxU+bOkH+TllG+U4+4bgpr2lQBIUYCBBC5iDwb3t27wTDjwQINKCohJnrM2TISElk1M+ba8110DdWOXTp3Easd4IUemYIegiEmNCtD3FTZjO/gPJwwICh0p2GG71k3i+9JSmXxqduvTeJF5s5IUOH9g/0IGyWPi9feQsQtLGJFAwg5MzpJOFpLePL6ML8gz9Y5EFg1QLR8hufV+JWIVKj248lbS1athHExs1wzv2MZGQyY5WnHZ45fULqfamAGSNlXIdeADI5QQIPiGDchwSnm5CWPpE5BQ+RGpUpM6SdcuUWBc7wAF2qTCps2qylAIvNG9dh5qypaNO6vSTusXSLjcCAio/uO5bycBNFjxYdW7duQu3a9aQqgOUwFAhMFurcuaegZYYBmBzGag0iY8bY9WbQl8+fwWTN3Tu3SYyTrmVav7Q4aaHohQArA5o3rYdNW/YYmJJgaO/uHVi0cK70I7MS6TNxr2LFypLY17dPN1GWTAhMkzoNmAjHDUM3KJNumBnMhMD79+9JchDDPaR/3Hi66o2PHz7I2DdvWod6dRuifqNmErckqufcmJDDbzesXwMNGzaVMZ9xc8WzJ49lDqTd8KEDRPmWKl1GXKQEQ/RikI5p0mUQtywBYq1a9aTM1fXMSXGvclP16PWXZOi7ubkKqmcpJBOcKICZrMnELQo8HpVNi33osDFIl54lfK6SoFm4SDF069ZHXO7quvkF82YJmKJCpnUvVRzx42P82JEiTGtKstdjEVJNmrYM5j0gbehZIR0oIDlWWlHkPXo0GjZqKiEvxvPJa71695fYKTPIKcgJPAn0mKuhb1QiFBKbN62X3BseeMNvk9cZA2f54PLli2S/MFue85k06W85PClr1mzCV1zHYcPHSHUIk6KoZJjxTVDF9SKoYqY6Ey5Zr84E0b9HD8ODh/eFdgyh0AU8a8YUcd2y3I8AkOWABEgss+3bu5vwJUEUlSFBLoVogvgJRDCxT+8enfDU66nQ9vMnXwkNLFu6AOfcz6JHj74yH63GmCuTS+lFYOWGvlGRMKGLibmsjDjrdhqfv3xCv35DpIrD96OvuJ9JQ46VeQ/cC/SiEKy1atUumFeGmfEjhg/CGddTUvZJgEklyFAZw0XtO3YVIE3epEfhw4eP8v3mLVpLLg2VwcTxoyXcQNc0Q4+Zs2QR5cCYvL5xP7GKgWEKhguo+EkfyjnyPxUfXfKRIkfB6lXLBPBRyXIvsQSVSW+UlfRQUW5RMbdu3UGMATYqESo+Kmpaw0WKFBfPXapUaeDhcQ2TJo0VYMVxly9fRdaWoQh6IAmA+U7Si3F5hu1oDFAR0z1N2UrAy3WvWLGKyBEaKsyrIJBnPhZLNhs1ai6ysFnjOvjy7auENaiY69ZtKF5FZaOspXeR32NpMyu4okaJiiFDR0uIgTkGpBGNJXoNdu7cJmV7tWrVlzGzTLtrpzZ4+fqVnOpKYMdx0rp3dHQUWUw62MWLD8dUqfDg/j3Jg+GeYShQZHO5irIfOJ9582YJiCQQLFu2vIQt58yZih3bt0rieJmy5SVMMmbUMAHFMu/370X+U74pq0moH5g0yDFQJiW0Tyh6jXMlKNbLciZwt27VGGvWbjEcniXG4vlzmDJ5rPQhQHj7zkdkDkMm5C8m2xPITZ02R0AQS4OZg8AzGTgflnsOG/IXPG96SoIw9QhLXlkN9yc1iwACB8ySO8YZufBly1USdynLj6j46SJiUhYFKl3YFAq0ZigAtm3dIEKLm4WxKyYNUViTqZkRzIMxTp48KqWRefMWFMFI9+WJ40ekvpxhDSbvcGOxtId/I6yn0OYiXrjoLhZU5ChRpcwnc+asBvpSCbHK4e3bNyhYsChSpU6D/Xt3SVY0QQHHz0ZLmYKDVRSXLp2XRWejAlWf3McqgAvn3cXNxBAJN2jadOlCHFLC2Ji6rpUxdAoSxo5JJ6kZzpJNDgjZu2enMDUbBQrnTCBFi4+NJVosN6IiO3LogBwQQzBG5tY3WvanTh0XQUSFRBDGOBstEzYyX+UqNQTZ8jkKHFpcnEPSZMnkGQpTWvYEJRUqVBErnJuT+QoM19BSZk29bIq3PqJwSGe2dOnTyxpSmLJxDBw330/hTPczrSdaQ7SiCSa+fvmKbds2GebAmC1jxeqDlphox3gg3ao8frVgIZ1bkoqCgpRxV9bP09qhdaJuFIJMwnr04AFy5sotcVtuWiYcUUEz057zYWMZKi0OhqRkHpEjS6ks6alspDOV4dUrFxFgY4OiRUsie/YcQu/Dhw4Y1oGu94wZMkvt/+nTJ6Q0ljRgmRnDE/wu9wQTtNjI8zTYWRKrP5SHz3p4XhdvnfAIz9AoXEz2IwXr2bOn8eH9BylLzZe/kCRkseySoJGNFhHLRslT3INsTB4jYHr5whsHD+0T4U83ORUWrTAC4SLFSkhWulbj2OrVqozV67aK4lc2hh1Z//7mzRukSZtOlKE+vk5XNs+9oBeHvE63Oj1+9AZyPzBfiGVvykZvJbP4/X/4iZUWI3oMccMzuZdZ5iyFpleHsoP7qVjRkkILNq4TPVZnXE/IeDJk4PkehQ2eTt1DukOFCKoO7N8rFVpMGKU8otGiXxvKMApz7mE20pm8wvwrlsVRodI1z2Rk9ldW4tCaJf0pO/SNhgJDAVTOnD/3GN/P5EJ6cwg6KcPonWIyHz0S9BzSBU8ZyTNpuF+YiU/DIGasmKhatZaUSVJmMnRBmcE5E3xSxrHduXtL8qLIPyyV5hkk6sY8nYsXzsl49YqQlVH0JtDDRK8eZT2r0AiMmFPGtVAm3NGYYGUYeY6ylGNlhZZ+XehZpbLlt7h3eV4BE8vpdWSjQqWMY+Iy10HfmB9GOt+65SF6huskZ2gkSSIG5+mTx/H69WsBa6w6YK5HiPl9+4bznN+Na4gZI6Z8nwaL2jjZt283KlcOfqAUeYo8zmO4mfSaMVMWCQ+y+oh0ZWkjG7/LsXI/0TvBRmOCuop6iUCIuSXFi+vO8/jTmo2//3fe4hBYdmzsbFIOW31WoPoAav0zgbst2PPGzhnUOsxb6+zSkIc9csTc0Nop1+YOh7Tm3EP1koWl7+9Y/n/beH8HjSK+qaSAlCMf3I9XL71Rp27DEFYNwR7vKLh67QouX7yAAYOG/XsIqCUaTByPHGxi5sTKH08FtWxVynX1Yfym5fitWzeleoA5HvRKBLtD6B+jQ1hk2+/q+48RR/Gh0M81ECD8ikGHflC/YjQR7/w/pIBSHppKAtYize/qG9ZlCk0ZtWqu9AwwTEarWKv8yu2MqxzIdP/eXQwaPFI8aKbOTjA6pbDQWK+/lHaJsXUMK03/E/3DD93Qm8GzTZyXL0HxEqXQtGnLYOG3/wS5IiYhFPiFACGCwhEUCGcKhEb56YcQlr7hPI1f/rqwzNWCvgwPMK8ghaOjhA3/8RZ+uu4fH/qv+eA/SxCGQo8cOSRVD8wHyZwps7jYI9p/jwIRAOG/t6YRM4qgwL+PAuGo4yyp/jZGIAvwURhpqz3RsHw3tH1/F51CO16908haZ2BYbYT/Zzr9HwOEiBBIGCXd7+n+u6TL75lt6L/6q+lkLFVIK5StlND6//6/3X7hiIRCzx1/TM/wYFNr3/ErFb6psZgbZ1j6mlrQ0EbypJ8uSTGiRVAgggIRFLCQAhESQ4NQEUSxkHsMj5miWFjwY2j7qq6isGo6of0mP/In9zUDEEI79LCQ2qp1iXhYSQFzEPVXUCtM3wwtf5k4IdSSOYZpzJZ8IJyfCct4Len7f6vbLJ24kk+tlW3h2dfS8arVThj2mZXqy5IRhmU04byzIl5nhgKB5yBYsqwRtIygQAQF/pMU+E9sf0uQkFasQ2tFzZVlm+KC39HXFGgxp46tBTzKuYd8t9J9H1q2Mjfi0FD/T7XUf9VczckpU98NBmkjQgzmSBnxewQF/mUUCK1k/pdNM/hw/y8nHS4rpk4nMfZStS9ECwz8U/BI/R1zitbY2I0BB0vmai2dTEMr3a+mxqnvbw2Nw0qniByEMG6xb1+/ytHDPMntzxFYeqvA2OS00nTMp+7wrdGix5DTwjQv9VF9jrcV8lAd3o0gV7mpm557LdkV6t2htUuM7QZz0kNLSljSR9+P/7ZUPyneG2ATeMwX/8OSF5ihE8+i570JPGVQefZ/GFn8D+5uqWqzzn4M6YuwcH00Gdwa5lCrkLD0DcmQWj4WS9n2D2aCiKH9QgpEAIQwEJfHr/IIUh7zqT6eU/u1lggaS57RersxV2Fo36c9Ax67zKNBeSEXj4I11vz9/PHu/VuhjannwkD+iK4hKBAg/Bg9eky5svffDxKU6issfByWvqFls7B8M2x9dSfMhq6F5cuh++KfnaRnbE7/L3T6TwEEnsnNuxJ4X73cQAfIbV78h0qKSpz//fnzJ7luU+uUOEuZnBcE8UQxXotKy+3/qfGiLl6YRBprKSGeU86bF/lbBDj45zmDHq34dvGFx39vsyYvQD3S0Cu53zvn3//18MgDCO0swqI4/419/+t0+s8ABIKDx48fYf++3YgWNSratOska8fLke7euSUXI9knspcrUPkML/zhrZChbTyvnkCDl7UYb9ZGgJRv0tguAQH46e+vu4OCN2hEjiwXCamb/9cv8H31CtHpbo5nJxc7Wdr4fj5vqg9pzX8IsHiSmrrxN17gxFsbI9o/TwFeTMW7StS38/26kRhT5uHJ/9aoD2ueVVPFmniXqb5hobbx8YcFNoWGKlpRQEtn9rv7WjrO8FjF3z3XsKytKTpZDxACjYLQDChU57VbuMp0ffMWrfnzZsl1vlOnz5WevDN+x/YtGDBwGLJkzYYVzksxf95M9OzVD63bdDT9dhMGkPUAwTKKUUG/f/YEX9+953WIsE2UCLHtEyFSlCj4/vEjvK5cwlffj/jx/TsSZcgEhyxBt1fqJ/PqpifOLl2M1EWKInOVaogSPbpFVPzh9x2Pz7khUfqMsOXVxiZuYKES4vXZ0QmQVHQiQOANcsxVMNssNDK/ffiAjy+9kSBVakSKqrOMf/j5wdf7BSJHjQbbxEFXMZv95i96gJ6Tz69f46P3C7naNlaCBEJHA/0tnKvm8Ez11dAavLI7fnzdrXkWNwWLMnzGWyZ5nW/wZkSBkle08kwMndUhMHOKWP07X2SpejT3bpMiUfGd0M5Ve6RhUSKWjtiStbaWOsaeNyXRtOZqmQQMCjlY+rwlc+Yz1r7vv0wnS9ZOaGZNFQOVMF3GlAVUEHStq2PvvHqZVi3dy3rXvn4BqTj4N16vrG6GdwOS1MZrhdWN36QQ1o1BL3CCnqJAmzF9ktw0pwcIvNqYl8rkdMqFhPaJ5OH8ebOiS5eeaN3WNEDgmDg/rYQ8hjIYYjDtQbCUdXXPBfz8ifsnjuPuYRf57x9+/ohtb49MlaogSfbs+PzGB557d+PT61e4f/IEMpUrjyLdeob4yAevZ7h37CjsM2ZEMqfciKxBb62RUQnv6N0N+Vu1Q+qixWBjEyn4ZZmKTlzn6NFj6ABCYNPfsCkehNevDGEe66ig/fQj19O4sMoZxXv2QaLMunPfP754gdNzZiJRxkzI26JVeHwmTO/weXAfVzdvxNe3b+Wc+mi2cYSOjgULI6rq+mKLPhSGEDyvNE9gIUDg5UxRo3JP6TxNzGPgZUzcO5279AgxVO7B79/9EC1aVNU+tFQFaoknS/uqh2OtGFf2V35TdqDZZVGmRSolkNZS/WqFpDUT/i0s3zVLgF/wQFjG+2/pGx5k+x1ztQgg8C72a9ev4Patm6hcpTrOu5+VO+9t48RBLqfcyJQ5K3iBh8eN63j27Inc/e7heQPs16BhEwETvD/9pfcLfPfzg108OzjlyoPEiZOIELp+46rESxMlcsC927fw2ucNkidPgaLFSsLe3l7uR7950wOPHtwX7qehwnvsU6VOE0x5qwGCj88beHpwTE9RvERpJE2aLBhAaNaiDW7cuApeXcqX8j5z3qu9ZBIAACAASURBVEf/7u1buZf93bt3EkagFVW4SPFg3zIFEGjdf333FlFixED0wPvX+eGf/n5iWdLi9fv8GT9/+IsS0YcJqNh39e2FtCVKwrFQYfh9+gTPvXsQI25c5G/TTmfVB7b9QwchbpIkwQAC3+3/7Svw86c8FSVGTPE8qBu9FN+YIxApMqLHiSOhCjYdQOiO/K3a6gBCpEjw//YNAQR1sWIFe40WQNA/oAsxvELs2CE9CAQ+/M6PH/6IGc/OMD4qnR/fviJSlKgCAv0+f0LkaNEQNUZM8WTc2rsbR6dORrYaNQUkcK6P3Vyxd8ggZK5YCWUGDZXP8/30tHB8MeLFCwJHAQFCG86V9Neth7+sQeQoUQ004N+5dv7f/RDTzk7GoGyiHD/5wv/LV1mXyHrvTEAADo4ZKR4Ep4aNZNz3T53Ah2dPkbd5SyTOlgP+X7/K88qwEP9GOhu+I+//BD8mv9rGQVS+PxAM+zG/xt9fPEt8P5/hOkaLbSvrqPT4BAcIasWnU228z/727Vv49Okjvnz+guw5nJAlS1a56nnxormIESMm6tZpgCRJk8lvDCnduHENXl7P4OvrKzQuWqwEHB1TWSj/1F4Ec92sV+Ah32jtN9VqV7jK8EfzEMLcnLR/NwWZzL0xPCCSuW9o/W6twgrNN9R9/t/oFFoahxudLPEgeHu/wOJF87Bt60aMHjMRdD/yb1euXIKdXXy0a98ZtrFtsXLFUri5uaJS5aq4cf0qYsaKjfETpmHH9s3w8LiOHNmd8PnLZ1y/fhVJkiRFvXqN8Pz5M8yaOU0Uf61adfH1yxc8ffYUp04eR5myFdCxUzfxAGzevF4UfIoUKeHmdhrZsuVE1ao1EEsR51YDBAqy1SuXwdX1FEaMHIvcefIJv+k9CE2bt8axo4ewZrUzcuTMharVasr79+3dJaWLSZMmxxuf1zjksh8dO3VFocLFDPxqDCC8vnsbnnt2w//LF1F0yXPnQYbyFRApchQ8v3oFr+/cFuDAf3/9+BFJc+ZEpoqVReDf3L0T7qtXoOFiZ0SjwA8IwKMzp/H04gVkrlQFCdNnMHxfCyC8f/oUdw674PNbH1EeWavVRNIcOYPtMYKQGzu3izfCJpINEmfNhnQlSyOGnV0IgPDlrQ8urF6FjGXKIHEOp+AAQRliUO1iYx6Ebx8/4u7RI3h100PCAzETJESuBg0RK6G9KMU7B/cjaqzY+ODlhQ8vvOS/M1esDPsMGXF7/17c2LUDn968RuNVaxHwIwDnFi/Ek0vn4ZApiwCE776+4ll5cf0qGC6JaRcfOWrXRZykyeR7nru2I36q1EieN7+M+M2d23h1+xaS5sqNeMlTCBiih+b17VsCLKjMs1SpigRp0snzBH5Pzp/DE/dzAjaixYqN7DVqIW4KR3z/+B7L69RAtYlTkSLw/T4P7sFt8QKkyJMPWWvUwpVNG5AsR04BCwQJHNPF1SvhWKAgEmfLLv/vdeUiHp1xlfUjKMtcuSoSpkknIMJzz07QS/EzIABpihbD3SOH8fHFc6QrVVZ4SOkp0gGEBAp7MrjIIDg4ePCAeMASJkyEWzc9RPkPGz4Gt256YumyhYhkY4M6eoCQPQcuXbog+5h7N1rUaFi5chmyZs2GESPHGZH9ljoyrVU/5sSmjS5PJ3D2wVW8aQWtVraW9LV29OYUpbnZGesfVigUWvAT2vHq1+ff9F1L5xoWBf2n8JOsjyUAgR6A7ds2Y8L4UVi8dDVy5HCCv78fjh87gkUL56BK1Zpo3qINtmxej40b1qBUqXLIkzc/HBInFiukW5d26NtvEEqVKiPhg4Mu+7F+/Wo0bNgUJUqWxuhRQ/Hxw3sMGjISqVKlkdr5FcsXY//+PRg7borEszesX4NOXbojb94CuHzpAnx9PyFvvnyIGTPIsg0CCL6YOn0O6DrdumUjtm/fjAEDhyJ37iCA0LlLT9SsVVfmlSBBQrnX3N4+EU6ePIaTJ46hZs26yJotu8zzr349xJU6fcZ8kwCBLu8T0ycjbtKkogSohB+dOoFsdeoifZly8Ni1E5fXrxUPQbyUKfH+6RPcPXYEFYaPEiV3atZ0vPfyQtWJUwzf+fbxA768fSvKlEmH+qYFEKjQX9y4gU+vvHFt2xY4NWyCrFWDJ2LSyv3u+xFpS5TGZ5838Pa4jjTFSyBLlerBAIJD5sw4PXe2uMbztWiNOEmTagOE6CGTNH8GhAwx0OL32LUDj93ckCyXE2LEi48HJ48jSozoKDd0JL68e4dDo4eLByFNseLg0QD8ncoxd+NmeOx2Bk/Pn8P7F88lnGCfLj32Dh6IFHnySN/S/Qfhlst+3D9+DEmy5xDQQXAVKXIklB0yQpTvwVHDkCJvPuSs30jmwvczFJO9Vh0kyZ5T8i/OOy9F5srVEM02Np66uyNWwgQoEBiKenrBHR67dwjIiJcipYyHXphi3Xvj7cP72Ni+NTocPIZogTz5zfcjTs+dJZ6IfM1b4dTsGbKG+Vq3E3Dx9tEDbO/VDTWnzRIQ8uL6NVzbuhFxkyZH/NRpJN+EXo7CnboK2OH/v7l7B8dnTBXgQ6AZO6E9EmXKjKTZcwbzFgUBBP2yBYkshvnWrVtl8PDRk/f27Vs0bFADrdt0QJUqNTBhwigJOYwbR160waPHD7Bq5XLky1cApUuXQ/To0TFnznTxAE6eMlt19rW5PHoeAKFLtA1qapFqXBSbUijGelki2MO7b1gUtiXKM7zHa8k3TT0TWhqHhU6W9I2gU1Ck2Nq9YxFAIFMcOXwQAwb0wp69R+AQ6Op++vQJpkweh3jx7DBo8AgcOrgfa9asQNeuvVC4SDFxyW/ZvAFTp47HocOuiBXopr5z+xZmTJ+MTJkzo137LpgwfrS48ocMHYX4YvUA9+7eQedOrcU7wVDCjGmTxNVfuUoNCS/Eih0LsWLFDpYDoQYIfM+e3TsEjPTpOxC5c+eVd9OD0KRpS3z/9h2OqVKharVaiBs3rvxGT8nRIweROUtWQwz9yuWL+PD+PbbvdDEJEG4f2C+KudzQ4aJAaAVeWLEMr+/fQ7VJ0wQgeO7dhcIdOyNpzlwSZtjSuQPyNG2KjBUq4+iEv0WRlR8xxpyRAS2AoO/0xccHRyaORZoSpYIBBFrwS6pWQJ05C5A0hxP8vnzG82tXRLEkz5MX3z/6Soghe83aYiXHsIuHvM1bBQtt6L/Bcw6oJJiHoG6GEIMC0Hx66Y2Ts2dKUmXOOvVEuVHZrW3eGC02bRdr+fDfo5AgTVoUbN9RrOFrWzfhpacH8jRvhVeennjifhbJ8+TDQ9eTkpdx68B+GTe9MYU6dMKZhfNhm8gBeZo2l/fR2t7UvhUaLFkB28RJQgKEE8dx//hRZAsECJ67d+D86pWoNn6yKGjfVy/x9cN72KfPCP/v33Bx9Qr4vvRGoQ5dECtBQlHwO3r3RN35iwUg7OrfB12OuRri8vQyuM6bLdZ/wbYd4XX5ItxXOqPKuEmSW3Jp/Wqhc7WJ0yRn4fq2zXhx/TqKde+F2Ikc8O7JY+wd1B8VR49FwrQ6L8bH515Y0aAWinTqKh6i6La60IK66sRUiOHt23eYPm2ChN4yZcqMyIFhqIMu+1CsWEl079lXjIEggADZ2wTPjZu0QObM2QQQvHjxXPZt2rRBnq2gjFXtsIaOV9QRez0HKSP8wcEDPQKWKANjkMMS5aW16az9pvr76tma3diBD1j73bB4PsLS1xi9LZ2nHnBE0Mk8xazlibDwop4nrAYIe/ceQaJAgEDLfuGC2fj27Zsod3oGNmxYg35/DYaTU24Z37SpE8RKP37S3SA46fqfPWsa7Ozs0Klzd0ydMgFfPn/CYAVA4Ls7dWiFeg0aoXr12nA9fVKU/cOHD5AoUSK0at0BBZj8pUjA0wQIe3Zg/bqQAKF+/SY4e9YV6dJnwOAho2QsPNuAwIW5C/XqN5LwCdsPKS0EMmXSJcexaYUYqEDe3L+HEn36i6VIq/nekcNwX7UcjVeshefuXXh89owI97gpUsh7tnbrhIxlyyFrjdo4MXWiVChUGj3eLLdYBBCKBwKEQM56c+8uVjWqh+6n3RE5WlAlAAJ+Sgz824ePAhA++/jgw4vnKNa1B/I0a6E5FrMAwSd4DoLP/Xs4t3Qx0pctj/RlyurUxM+fmFeqCGrPnAe7VKlxbPIEOBYogOy168nvBFxP3N3g1KgJ3ty6g0dnXVGsR29saNsC9ukzSPjh6/v3eHX3joACd+dlEtKh4pT3B/zE0moVUXHUWCTJlgMHRwd6EOoFeRCUAOHTq5di8Xvf9BBQlCp/QQEiVNb0BpxdvAA3XfYjvmMq2NhERsDPH3h66TwaLlnBAzewrVdXdD7qasgxIAA7PW+WVDEUaNNBxrSte2cUatsBjoWLYlPbFnBq0AiZKlWVnIsLq1dIGCJB2nSG93tdvYyaU2ciVeGiAgI+Pn+Gda2aocbUmeL10G4Bsid1VQzqtLoAPH78EFOmjJd8m7JlKxpya3i+BfOKWB4Z3IMA2UOXLp0XQJ8hQyZVpr9avFsWWrA0sc9S5W6tW1etGK2xrkz1NeYLMQhdE+mQlvtRQq78f4VO+plZxkW6py2du9az1ngYLB2TufGYWuew9FVzRVj5yQqA4IIBA3pj9+7DSJwkiYyDeQiLFsyRZLTefQeIAmcooF//IICwwnkx5s+bjT37jiJhQl3Z1aNHDzBrxhRkyJgZbdt1wpjRQ/HJ9xOGDh9t8CAwCbJ9u+bo0aMvChUqKomKzNW6d/8uli9dJPH9kaPHS6KjvpkECH0GIneeIA9Ch47dkDFjZrGUSpUuh+49+koS1pzZ0/Dg/j306PUXUqdOY1RRawGES2tX4dXNmyjZf6BYdgQIdw+64MK61Wi8Yo14EB67n0WRTl0QN7B8jAojQ6kyyFqrDi6tcsbDs2dQd/4Sw3dpRb65fUsy9+Mm14EKttAAhHePHsK5Xk10PeGmmVWvT1J0yJQZCVKnwjnn5WiwbAXiJtEldyqbWYDAJEWFB4HWPBVs+rIVkKFsOXkVFficIgVQf8ESxE3piOOTJyBVocLIWrO2/H7H5QAenzsjoZI3t+/godtplBk8FK6zZuDReXfUW7gUdw+54PW9uwJkzi1bjOS58yJb9VqB7w/A4kplUHX8ZDhkzYaDI4cheZ48cGrQRH6/d+wI7h8/ghx1GwQq2wB8efcen9+8xsubHrjtcgA2USOj6vgp4tk5t3QRvn36hLxNWxiSGpnAaevgIGEg5zrV0WrbLsRJrAvHsNrk9NyZiJ86LfI1bynhCLfF8yRXInututjcuR1abd4p+Sb0NpF/fB4+QKH2nRXv/yneBn0VBD0IG9q3QsMlzoijsS7yYZsAfPtKgKDMQZAfRDV5e3tjypRxcEyZCi1btUXcuHZBQMImAO/fvQ8BELZt24y9e3agS9deun1kOB5aofZChA2COEZdpWmuQMMSZWpsc1rS15xSsFQRGBUQRn4Iy3tNASBzSkVrONbSSQsUhWU+pmgXlvf+bjop52UtjbX6/k46WQ0QFi5agTyByX43PT2waNEc1KpdHyVKlMbuXdtDAAQq28aNaqFHz37i1mc76+YquQrVa9ZBqVJlMXzYADx8cF9KE1nJQBc1XZpr16zEjFnzcfniBbzwfoFGjZvJb/zOnt3bMXzkWCRPntJAP2sAAgUdx8OzE2bPmoo6dRsKWHE5sBdLlyxA02YtUa16LcmhYMLi6lXL0LFTd8O3tAACrdEzC+eh5vTZ4tJm0pvrnJn4/O4tKo0ZbxwglC6DrDXr4JWnB7Z27ywK0z5TZpnr9e1b8cTNFfnbtIdDYHmfxQBBFWKgkptfuhiqT5qKVEWKiaLy2L1TlB8tcP7/dlYxtGglFuuRsaPwwfsFas9bFOK0SAIE5nhcuuSONGnSI02adAZLVCvE8OX9OxybPB72adMjV6OmEgJ4fuUSNrRvjU4Hj+LnjwAcnxIIEKoHAoSDQQDh9e07eOR2CmUGDZdM/u+fPyF63Ljw3L1TAELRrj1was4MxLCNg/yt2yOarS28r1/Dlm4d0XLLTkSPbYujk8eJZ6dE7/4C3i6tX4NHrqdQpHM3AQgMYfDdKQoUkgRRr8sXcPDvUWiwdKWcaXBp3Rq8unVTno+TJKlUSzApNH25CpJTsKZJfUlIZTiBjcmGDCNkq1EbGcqWl7+9uXcHuwf0RcYy5fD5/XuUHTTMAGY8dm3Hw9OnJMTAEBVzRchTXAvmoFC5EyBs7NAaDZeuhK0DwbFW4Z3Og+Dn54+jR11QuXINQwiNIMH/hx8WzJ8tCbr9+g1B/gIF5WRMAveLF8+jTJnyGD9+JPz9f2DylFkCKy5fvoipUycgb578aNW6HezsEkh+DnOQOnbqAU/P67hw4RwqVaouuUehFWrWKtyI5yMoEEGBX0cBqwFC9mw50KfvIHz//k0OIErhmApt2nSQWOSyZYuwc8dWtG/XBZWrVpPcBCb3OS9fjFWrlqF1645wcHDA8eNHkC5dBjRp0gIxYsYUgMD4Z7NmraWS4N69u3Bevgi9+wxErtx5sHfvLqxd7YwWLdvC0TG1JFilTOmIxk2aG06Lo1Ly9LyBsWOGS8kkQx70dKxcsQw7dmxBx45dUblydVy7dgXdu3VAseIlpbKBcfRNG9dh/bpVcnBSxUpVsXD+LOzZs0NcqUxcZOb28BHjRJDqmxZA+OnnjyMTx8DbwxMZSpWGz8OH8L59E9UnTRO3scfuXZIFzxyEuIEll9t7dkX6UqUlxEClRCV65+gRZChdBt98ffHm7l3krN8Q2WrWxtf373D3yCEwx+DOkcOIFsdW3OAx48dHjvqN4PvcC/eOH4Wvt7eU2DGZziFjJiTKlEXKFhlGuOi8HO5rVkhp4IcXL6Qsr2C7DkhdrIQkKe7s2xP5W7ZBqiJFxapd2aA28jdrAafGzYJxIQGCq+tJzJ8/C9myZke/v4ZIsiebFkAQhXn6FNyWLISdoyNsE9rjxp6dKNCqnQAGJlgenzoJjgULIWugB+DOIRc8OeeGnA0aS8UBQwylBww1WNN04Xvu2YU39+6h9IDBkjTotnihJBbGS5pMwgFO9Roib8vWCPjxE7cP7sfRieOQvnRZyV15/9wLsRMmFI8CExsfnjqBA2NGIFPZ8hJiYAJpgjRpUH74GOFjVje4Lpgjng8mlT65eB6x4ydE+RGjBSDcP3EMB0YNQ8q8eREzrp0kFToWKoKCbTsgRmC4inTY0qUdnl64iEbLVkgyq775PLwP1wVzBXiw+oThheixYwsoYs4DvSmPz5zGFSag1qkn65sibwHEk3BVoK0i/7IBD0pau8oZziuXoWfPvmjWvHWwnH6G6qZOGS8VRUw6JtDw8nqO+QuWSa7QwoWz4XJgH6pUrSFVC065cuOs2xlJHmbZI0sbb3rcQPtOXQXkT5wwBqddT8r5IrXrNDDMSWlB8Y9a2QfGXPumrC9zFrOxvvy7ehxq8RqWvnyXMQvW1HfNzTUsfS0JnWi5on81nX6dWot4c3hRwGqAsHCBM85fOCv3HeTPXwi58+YT4UlvAmOUjOOz5XTKg+zZc8qhRlQYV69ehvs5NxGu+QsUQs6cuQ0W5/ChA/Hpky+KFS+BRw8figVSunR5JE2mc23z4JZrVy/j4kV3sYyyZcuBQoWLwpYJWoGN8dNDh/bj1auX8peUjqkFoLB8Sz+mfPkL4trVKyI8mYCVNl16FC1aAu/fvcM5dzc5ojlvvgKIGiWq5CewjDNG9OgoX6EKUqdJG4zmxk5S/OnnhzsHD8D75k3EThgfGcpVQtzkutPofO7fx0fv50ia00lq19nuHT0CuxQpkCB9BqEjvQ4PTx2H15XLMkYqdibmMZGQVQcPT5/El7fvgo2FyYSMuzOBjgcKEVgom3369EiRv6Ak/tElzsQ4Wu9RYsZEqkJFpIyQ8RuW8dFidciaHXGTJZPx0Kvx8tZNZK1eM9hZAQQITITbu3sH3r57i5Yt2wUBBH0Vg8Y5CK9ueeKRm6vE9FPkzgfHwkVknjwPgFUCrABJkC69aJJ3jx5JuSOz9Hn4EP87Zf5CiBQ1ivzOMwx87t2TPIQU+QuIZGbi48MzpwVMJcvhBEcmywbeSUDaPj3nJjkGCdNlQLzkyfH1wwckSJtWTqvkO1mC+eD0SfFQOGTKhnSlSgc7C4HrxzySD8+9JBchbckyiBY7lvRlTsXrW7dw7/hhfP/8RcIZKQsUEvAgLVAKv7h2VapHGDoJrk1swDwIVlO8e/oEdsmTS6JpDJ6lYQM8dT8Hb08Pw9KyOoK8wRJNeUBc/DYSfiOAJ5/PmzsTmTJnQ9OmQbkkeoXh8+YNzpw5ibt37iCRg4OAc+4Z9ueZJXv37JQzTLjXsmXPKSE+VhC5u58FDxErXry0HED28+cPMPGY+6Vs2QoCqrX9GkFcqeWuVvKsOWChlQKprp0wBQaMfd/Yd9XP65WnJW53S76lDMEYC7+Yc50rFbpy7pZ83xgYsLavuefDS3FFvOefoYDFAGH/vj0YNrQ/tm3fhxQpHXWjM5Z0bMXYCR74Xl/fj1JPrbdCrXjFb3mUwpfnQUSNFu3PuDUvtMXEoaAey+SYVf70yRMBZUUKF0Ou3HkDLwcKkNsefd6+QcwYMf8M2lg0R7WIVotYtQhV23zGnjcn1o19Vz9oY6rQ+Pd5yiGTd8+fP4cTxw9LaIyVR8ZrBIIIZGlugL6HftZaCkZrhKbqF4wBBEvFjLHvWWIdmxurHt9prYqpFf7ddNICSeFJJ4u2VsRD/1oKaAMElUxibH/D+tXYsnUjunfvI5nPJi/iMeUvU5BKd8HSQ0yfPgnv379Dz5795ITFSPojfq1Velo79RctDU8C5FHL9IiwTCzUV+tqZW+pzRhjc7BUcqr7h4FOcsqhH4/ZjSanafLfTBRlDFuPGuVOgs+f4efvJ96YUNMmPMZtlheVdqfKBgtGJ1POcbUYNqc2Vd8xoG0tNWTMdlU+GzQHgjeeNcIKHOYEsFIhjm0czUOEtRSnJSxlSukYY1U1S5ujprEKB1NARE8RY33N/d3YtviT6GQKwJmisZo2YRABv0iiRrz2T6SAjb/fd7NqmMcc80ji/7F3HWBSFEv4v5yAIx0555wzZhFQoqKCCpIE4wMVBEVFRQVElIxiRAEBRUQURAmSg4IgAiIZjnTHBbic731Vu7M729s9M7t3R9Cb73tPbnequ6q6uurv6upeWplQmvGWW+6Q/IiL5+JRoKErmAkk0PXJ4eHh6Nz5nhvmJ4KpSC8tLcXFvVvSgqnGLbVy9V+yRwa63yIkOFT4jQrXlTCBP7qOVzu/bvg7PgUmiWx1bpTMFdeHsqyAFqKMvhMDvV5Ao4yBiBYN+nLz8PTznj68zUGXhwXar4AW4YUIAKysnPXcG7VntpLOL1qNH1XgNguGMvh2o+hJNlVkvBfYlCps+D+lAUsA4T+lEQ+FpUru9IwM3od1W6b922C6jw/8/f34ciTO8jgefdhxul/SCW3FZGXnmPzSn4dKz/PrRtsJRmtgI3BgHfXJYICRSDJIIzMtGhMqutV+zMxsc0IM/Jp0qiCk+l6WUdAHcREeqQCH2K9Z8sdoehnRyvI9ZtkFUR7VaHvSr0z/eohqNfD/29xMnqd3YQP5poFCgJBvqhQb8jQMeMqImBoXg5eqPRmdila2/0Hv6tdgMlrVStgKrYxvb2XVhzTXsCDbWJCtLGWBTkVrlJ43C0pGoy8GCqNArgqyes1bgTIyfq32a7SyN7Py/NKTJq8VWcV3jQCPTL+ilXnSp7e0Znq8Pr6X+Q/Rd8j8pqd+QpYX07drlpmT+QmN3oofV/knmRxW5PW2T7MY4LmevAMI1xNkzQsvntJahfT6qCL1FuJ6xU5giR/5at3UITgusdGvcUypbC94RGtLdTuyKdI794XJ55BbBUjEiSZTqvl60iiAmw6ZwW1tVla6qkBghVa2urUycp4Gak/M21zb7hxakVUFQqzQqvRkNq2M9CQDC/mlJytjeOO9I/NPngY8K++LAEAP84xAiJGPMQvoVv2TlVHz0o9z097S6oGMmY5t33sHEPRjYaQLs5lZULSydl14MVOO0IBlWkm7VnTgEoCtGJfuHW7fSJ6CklXCZ0Hryf4bfUarTJVrEKeGkYmIbchoVUFFRmvEr8qtiWsSM/71/XpCa0VWUVcqiHk960nGsxU95cWePJzJ18Hr+ehHXKTx0AdZpi2ods2G4r+jJ+cpBtmiTK8nWaCzuowwozWD8EZLKDEo8d+Kae3iqYWVrgOVKRAaBXFKrTMvMiRpb9x+Ft3lHaWeiAcdv4a0kj6ltPZBM5M1L3pyZAgkSFbs12U7Qi+DntYI/TsHX+xN1YIKv+qDhJG5q8xVtro1C/7aFJL1bUYr0uj5yiutEeDI67S+2noqKB2bhQkjPZnRXrvvJXNWGZBlEMoIHprB1LzSyrQm88WiP1EFdAM/brpK95bWiF9F7HGIbZU2//RkzyBYQGJGQU4LAo4AZ7QCV0wNj2gFflW00q4s0FqRlduW6M0KreodSx5HMVZSWiNZdd95S2tFVoee1C5R5Yb0gUYB+Zw7GULzIqZUTRkZNDGjtcKv1q7Yb0HQmvFrpEcjWjMIZ9ZvQcgqgg+ZXRiFNT2YMLKJaxfA89KzUdAya9dCDFA2oaf1pJ385Pda9WumV/333upJ5kVUHtHsXc/05NxiMApafE2cyJBBgHEBiia0ojyGtCZBLV9oPZTVxeMoaLUVt6jjAtOTTqmq5bBDlSLPVoCDrX29IxZNXx8gZdPCCq3KfRjR6lfW4npGXIHLAqAM9unfE9dARkFQFswK9eS0Hdl60wiwycbWKoixhL098fUF9q4nDlxjwiqN7D1Pab0JcvnRr6eyquCflcCan/zKPIrKePKzX6vjauTxYK9B4PS5kKiGbwAAIABJREFUQWreaDLIaK3ORtnK3wqtit9rRWvFWVwrPfHQCpPCEz3xtorNPrRgqBdX5uStBGaRKzHQyvoTA7zeZcgAiZ5fI1ojfvUBS+xDJoMhzrYzrJJVBmAK9eRqvSpAYKYnme1ambZX/x2ZdVjl4kajvdH41XslK0BDHDdv5fWWLu/82jIIjmWRfjVpn4r8nY5B/RLKZbZKkKVIq+nLxRMqVrAqWr3HdgMYMp5dCJx336toZUlrN5klmQIzWR0yXy090RVFTudqFoBFc7dCK66m9QFbv9pTBVYzvCx+r5fBCB8bySrj2YqsRqBIJasIcjzRsZmsEitysGiVtqD0lFcdW9GT1ZBZsO+ZOW6ZBRtZi55bM1qjAKWaHWb8ahar51EGn2VaNeNXhHCeyJoXWk/0JIOfKgtSzUAzHd9YerIVKWoyyfbUZUHd6DOZPg1XrEau3uBsGfcjoTXqy+U7k35FOdxoFUYr699QfhnKtEIgrjed4Ug0Ub3Zi9NdFvhkpq8K1qrgrx8dWQDWm5CIc1VTzGGmdmKZq/VE1rzoyRtas9BgRU9mLlwEJWbgzGhcRVoxbFihFcdMa1P2uZVgbmVmWGnn+n/HQ//kItC1ovVWq9eK32vV742jJyGDIPk9Vv1MFlfSshjp8JzCKlsVOMVIwm2a0Gqrddnevtm2hVs2wCB3LgOU4mcOoKJThkxPKptwuyfAdW9fDJ5q0/KxHwK0vWEWjGSwRBxOMyystSF7L6+0VnC/LEjLTFIl679dT6rxsTo2MtuzSustAPDWdV5dOiuBRfWOFVqVNHmh9VZDXvRpNQYY+WKzwnOrtKqYJa4kmGfBuq3QampVxSzZOs5tYlqId3oalzYt0EpllcRZzSHq1OAECHr7kTWoKUAM9LIlqdvg2YUwo5UtUVRZDbFfKa1kUoiRR7psc0VF2u8J6LGMcrxMivdkbOvNUvy3XpUyhy+jFQOf0RDpNST2JboGqarsDXhCq5JDHEJPdSwDDKosgwwMqUxDDHaeyOotrZlN5MUWjYCVUb/ehpjrn86LIOgQKi+010IzOn5d3ZwrMx7HAHtjRg5M36YjsOq6FR2MWbrIKAYYqdbKRFct8oxozRaflmKl4leSvY13Ro5ONh5CQHC9KEk1ILLArvJ8+oE3Y0B8V/W32WCLvFiZd26yujcinSMmbecnjejIZV2bqVgGMMR2jIKYmfuzAmjM+LbCoz4gynQszgOZjKo5b0YrAhqViYu+Q8+Dt3qSgSSjfqzoSfABLqryZipZmW6F71xnGlA5DpWvNwvWtJDzllZE8dqENHNu+onrjeGaymQfM9l7VmOlbNivFz1ZkN/CTYpGMNMs1LhWCcgAosyJ6u1DNa1kYMzIXvS68JZWBh71wcIsIHgqqypwiiNiNDe8ldVMl1ogEoONDFDILMgIlBjpKS/9FrSeRN5kfk+0bW/HR0WXV595nYUxOztmMFUPi7yRwEr7snbzQqcfKU95VvRrKaBKCtH1Tsxlkggzxigoyiam6BxlE1A1SazSWpnUqn4LklbVtllQvs507JOVmW4Je4m2Z7aK0U9Zb2lldqvKtKiCilEANwv4+lWf2RT2ZlWrtZlX2kI9mY2O6xFNFVhUtWLk18QxtAICrc4ds3E18snmGil844bSgOiMZH/LVqZ6I2HDI4Bgl1wfnFWrWhV4ECeR0arFrG39QJi960kAtbpSF0GK0d+e8mcECDxt6xroiQGC3l6sYGIxEyDyrcLzZnYp2qvM2aps2oxWNuYqfsR+ZW0X6snVvcpsQrN/s4DorT2JdiYGcjObIPprbU8aD5ZQ+g0V0QqZVWrAKNiLztjUQOwEsoCtWp2bBSajPj2hNQqOKuXonYaVVbgRUJH14YmeRHqZPEaAxQg06XV8HevJARBktqRy7KJDV+lNNj4qWnHcjGiN+pfxLHtfH1yMMgVWaAv1ZAwWzMbWSMf6BUxB2pNqvl5NeyoMqf8BDVhBgjLUqgwikgatBFmzAC2CBE+DmCeBW+TXk77yk9YT81PJ5wnvnurYSFazfr3Uk0+mfYtBRi/qS1w1q8CumSMXg7O+bzNaWbbDympe61MWCMQgIAMMnvSb33rSB0kjWWX9WhlX2Thb0ZN+HLU2/k16MrMrlaye+Jmr/66ZVAXBUV76vAFozYyev7eCDHT3vshWbAW5IvYUVHiymjYzKauy6tsRg4aZemUB3Wq/+UUrOnIzvYjfW+U3H/XkqEHwJPCYAQf997J2tc/Mpv7V5Ekf4FQZAVlAtCqrN7QFxZMZz1b7NbLvf9PY3ZhAwFPvU/i+ZxqwWzj/R9vX13sO+/ccXIToJXP0VgOuLJAXNK2eX6PMgIoPvfNTBXIzWqPg6qn8sgCqCqqyVbCKl3+hnlyKFM0CtrcBoSDozAKu2WTPT1kvXLiADRt+Qe3addGsWQsEBgYqu/e2X2/prhc9ecq/p+/nF6gxs5vC729QDahWKiSOUZpNZYha0PeK1q5DMdhaQe76AKtKvXojq9GqzSxDYuRk8pNWG6trqScjR5OfssrGVmmLBWdP0gyCyMdff+3HN19/hXPnzsLX1xehoWHMUW5uLjIyM9CoUWM89NCjKFmqlPizQG7eRKZDq0FMz5fq3zL3pe9T7MssEJnRxly6hE8/+QArVizDiBGjce99DyAkJMSmH924iSDaKEsh0noiq5F8eZXVLLOin7+e8GykJ3E8VVk2KxlHbzJ0N2g4LGRbpQExEIqTgv/WLnbTv2z/MTstW6By4LIgJpv8sgliFABUQMQosJs5OzNQYAX8qMCIGW2hnpx3AKjGwchhG9mxVZuQvSd85lakKM4r7f3ExET069sbVatWw5y5n/BrCYkJWPn9chw/dgSPP/E/lC9fgT/PycmBD12D7OPjcneGLdtmCwdaUPCl9yRPDr2XmwsfX1/+VpK8U/5yBPVP7ROYEVvPzsmBn73N7Oxs2zt2Hhx96njXWMvJyYaPrx/zRDIQnfacOXMar782Dnd26oL77nsAwSEhzup4+/skhyrACm7IFGTp1WVEaxUQyOZqQdGaySp+XxjpCjXgpgGzoKQZtBiEDYOScPzPI1rJakDv5LwNhprgDsdhj7qySSTj12hi61F5ftPKHJ2Zo3KTVTfqZsFQRVuoJ/c79z20Cbd7EFRzj9p9dMCDKFq0KObO/dQxehcvnMfxE8dQt14DhAQHIyo6CglXLnNIL168OCpVrgo/Pz+kpabi/LmzSE1LRemICFy+fJkDdZUq1RAYFOQAErk5OYiMPI3U1FT+X7HwcFSsUAnp6Wk4f/4cMjIyULx4CQYjMTHRuHTpEgICArj/rMwMREZGIjk5CVnZ2dx/xQoVERwcgsTEBERHRyEuLg6NGjXBqVMnmNcSxUugWvUayM7KAgX65JRkbrtSxcq8VUA0ly5FM4goHl6caUiG8uUqoEKFiggKCsKZM2fw+msvOQACZRAIpESeOY2UtFSkp6UiPLy4/f1gB0ASQY/Kj2jKNgKaeaG1ks1QrdBVvqAwrBVqwGMNiIHKLGUl7vm6TBQtAgpciA7O7G8ZGhcnpB4MmK0CVLRWZdX6UskuKt0TnVqVVeTBqE8Zv0bOymg8rKxaZCtJM37NdGrUr5n9XAvafNST6UVJ+r4IIBTRAQQK4AkJV1CmTFkOwJs2bcCBv/5EYFAwLkVHIzEpEQMGDELbth1w+vQpzJ0znYNwl6734Pffd6Fq1eoYNGgoypYt7zCxP/7YjTVrVqF4eDgoaxEVdRE9e/VBiRIl8OknH4K+79nrPgwd+jh+Wv0DFiyYjw4dbsKYsa/gj727sWjhfNSsUZv5ir8cj0ceGYg2bdph/1/78NG8OTh54jheHf8WfvrpR0SeOYX4+Djc16cf97dj5zb8c/hvVKpUGSNGjkbNmrV462Deh7MZVLRo2Rr79u7BhQvnGXQMHPQY2rfvyFsvlEHo1KmLY4th9+7fsPaXnxAeHo4rV64gNi4WvXv3QYcONzOAuXjxAkqXjmCwo2VaPHao8t+ztNyMyo70rlW2TSouPvTzXeGWLfNU+OJ/TAOyACZb3fJ79pfFn59nB09X/fo4CwJlKW7ROMUgq+9XFfTEd8RVqiz4qVbPsskiQ+JGn2n9yVYPZp+paP9NetKPoyfbNEbZB9mYi05Q5jhlAOxa2pN+/BV6MgUIejoCCH7+/nj99YmglPvx48cQFXWB6w9+/XUtfl6zCn369EPrNm2RkpKKyZPewMFDB/Dppwt5pb1kySKuZeh0VxeULl0GzZo1R926DRx79hSsn332KTzxxP848FKQX/Dl5zh+/ChefuUNnI2MxNy501G7dj0MeHQwtm/fylmEwYOHg7YL5n/+ESLPRmLChMk4efIEZs6YivoNGmHQoMe4VuK9qZOxc8dWjHv5dTRs2ARJiYmYMOFl3i54+pnnGLBs27aZ2xn57Au45ZbbcfZsJIY9NgDVqtXAGxMmoWTJUjh48C/MmT2dg/+o0S9xVkMPEAg4PfP0Yxj57GgGR/Hx8fhi/icMCsaMfRkHDuzH0qWL0LVrd9x1VxcGG9fqKQzo10rz//J+RZSpco5GWQCNhoGB8LCTlqTczRyzUeA3o3WAGQ/6dQnS+g7sjBjqibZp7VsfoqyaHC4BRtG+t3rKs47zoidtWV8QetIZgWx8RGBlBBw1Nr3VMbNynehJYoseAwRKwQ8cOATpGRn4a/8+hIUVxTPPPIcPP5zFWYTHn3iG0+/07NnzG4YMfgQzZ32Ijh1vxcaN6zHt/Sl47vkXcMcdnV328el9ykC8Nv4lPP/8WE7pU5r+0N8HceSfwxj9wjjUrVsPv/zyExYvXoCmTZsjJDgEDz08gIM2AQRa/VPWokGDhtizZze+/OJTNGjYCMOGP4XwYuEc1Ndv+AVLlqzg7QNa2b/77ttITkrCtOlz7Tz/jqlTJ2LIkMc5I0B83N+nG5o0bY7x49/id9LT0/Hdd8uwcuVyjBwxCuUrVHQBCDt2bMWrr4zF2LGvMH12Tjb+2v8nIiPP4PlRYxEbG4MfVn6HW2+7A7ff3skSQCgM5P/ygHoji6cKctLVkWDJHtFKQIIDRFgIJCJIUdFa2XPT/Lo0UCsG06qsMnKrtA4QIwTBQj3ZNGC0NWNVx1bHxwxYGNmOFdr85lePyex68hgg+Pr5Yfz4CcjOzsGxY0dxKSYane+6GzNnvMd7/sOGP83bAfTQyvn229ripXHjObPw68b1+HjeHLw6fgIaN27mpub5n3+MZcuW4ulnnnV8l5WViaCgYDRv3hIREWVw+cplTHzrNc4evDTuNXTpcg/8/f25cPDy5Xjs3Lmd/5uZmYkN639Bo8ZNnQBhznSsX+8ECJShmDp1EhITEhwAYe/e3Xh3ykQMGjyMAQJlF0SAQMwR2CF+hw59AlWrVXcBCLTNsXz51/jfiFEOOYifkNBQPgYZFhqG6EtRKFmiFNd02FZChU+hBgpIA7KgIe1KW60KwcXNPHUrVX3bYj/Sfg1W0ar9Y0/UYllWyf5cQdJ6rCeJ0LKgYZVnKVizqFhL42oAijwZ10I92RRpNq550ZM+Q6IHTZJ+PQYI+hqElJQUXL4ch4CAQMyc+T58fX3w1FMjUbZsOZaRCgjv6tQRU96dgTvuuMsUICxcMB9ffvkpVv7wi3JV/dtvOzlFT1sBRYsUxSuvTuC9/LS0VHw0by4XGXbu3BWBAUFY9NUXXB8xbNiTKFq0GObMmYb169ZiyVJbBsETgNC4STOMf+1tRzHlrxvW4uuli/j0RqlSpV0AwtIlC7Fgwef4cfUGBAfbihILn0INXFUNmDkYF2bs0UNMraoYVq1STQvt7DUC4ntmqyXuT0FrplSNVnWToUd6snd2I+rJko4NlFmQepJ1a9af0RhYlVVlx2LQ1PNnlS8zu5S1ada2kZ5UtHnUk+kxRz1PA/o/YCtS/OAzl0xNZkYGvvjiU2zftpn37mmVTM+6tWsw+Z03sXjxCs4qqDIImgx/7t+LJ4YPwhNPjsCAAYP5iCNtW5w6eQJly5XnrYCNG9ehWbOW/N2kt19H27bt8fzol3Dlcjwfw7yvT1/OGFw4fw4zZ77HWYfHhj2JYsXCMVcHEALsAOE9ewbhffsWA2UQpuoyCNQPZRDoZMOs2R+zXMnJyfh22RLma8SzozkDoa9B+OefQxg6pD+eH/UiHnpoAPN65cplnDlzCuXLV+TtkP3796FunXqoVLmK21aLJ7ZVEO9K1ngF0U1hm1Y0YLRSkNJr3lH40hvnY4W/gnonL/xeDdq89JGfOssLH9eKNj/lt9rWtZI1L/1alS0/3xP4dfs1R7Evep+OKB47dgTPjnyS99QnvzMNNWrUQsmSJR24/OiRw1yHEOAfgB4970NOTha+mP8pevW+H9179EbClStYuHA+Vv24glfdd93VFaFhtguXtCcjI51rFH5avRLt2nXk0wTR0dGoU7ceWrZsjcVfLUCZsmXx8CMDERZWBHNmTcPKld/iyadG4s5OXTFsaH+Ehobizk6dmU86SZCSnIw+9/dFkyYtMGf2+6AMxIfz5qN2nboc4N94fRyvTt56awoiypTFL7+sxrwPZjHPVHwZXrw4Hri/O5/KoGxFw4aNsWfP79i5cxvuvfd+NGnaAr/t2o5p06YwMBo+/BkUL1EcU9+diPXrfuEiRToOeelSFG93kD5IPtJNz1734oEHHmbQVfgUasCyBqROR5cFoIZU2wJGDsts5cUMepEFcPRpQGvKbz7TKmUVCsZkg1LgelKkmM3Gzmx/XZXh0a8yNdsRP9P0IBZyiitUvW5ErCorApW9L1uhyE4gWKE14lcvq/hv1Xdm7f3L9OT4sSalc/IBThw/ju3bNyPqwgUGBAQMatWqg1tuvcNBRqtiOv63a+c2PkFA9Qit27RH/XoN4B8QgEOHDmDzpg0MNijotm7TDk2aNHfrNikpCZs2rsef+/4A1Tu0aNEaLVu24pMMO3dsQ1iRIujSpRvfrUAFi3RPQZEiRdD17u6IjYnhI5IVK1bETTfdioTERM5qNGnSjE8aHDlymO9WIP77PTSAjyGeOHGcwUTDRo1RpXJVPkZ54cI53uK47bY7UaduffTr2wu1atZG8xat+C4GAi505JEujaI+qR7i1MnjCAgMYJlbtmzDWx4bf12H/X/ug3+AP1q2aIM27drzVgcVXdLVzG3bdeBaDKqhuJGfwoyDbvSsOnFV4HE4ccG7urUr81QyL2eyn5lrr5TXgr+YinfpVxhpM1oXGY1oBWUYyqq70dBUhwp9WJJVoDWTNS/jbjT589KuJ7SS8hNiS9WE/nMr7+hFlOERUQVmC28jjCajFfmVYmjFOFihtaIDK+9cb3oyBwh8xDiHixL1DwVVCtIuAuXm8skD7SZF+t5xS6H9c+19Kv7T30aob4foCXDQQ23Qe1q72mf0X+0d52e5yMrK5j6Zt9xc0M2JRE9FjNotjvQ+BeXs7CzH76gQjXZyQuSRthjo1AQdj8zJoVsUfeDra5ON2uSbG+1ns/VyyeTgSUd82W9xVOngRgYM1z3vZh7EU4dt6M3srsxT7yDzFJ56USMPb2WQrqqe7AxddT0JdydY0YuVcTCLcFob3uhYhx3NuvEEI1gxOSO2rXxnZpLe8puXdvNCW1D6v154sgQQvJkz/w6aXMTGxqLfg734tsXZsz9BUHDQv0O0/6oU4oz2JCB5RCvz4ro8KV/sQ4Mg5E6VfYi0+nyyWUpa1q/OAAyDlJhyFzMB+u0MWXpevzVgRKuXwUhPCiDhkMGE1oqsRtsosgJL/WcFZk86uf+rc7dQ7quugUKAYKByOqWxcMHniIuLZT9erWp13poofK6xBvQ5StW+qh6CizlCfUxWQXWmEfKujrymLtAZBRyRT/7bIq24HDOjlenE5TODjSCrtEpZhfqAG1pPBsDJVE8GWRCVzepw5DWeVYXdF2rATQOFAKHQKG4cDcgCvVXurdC6BUC79xaDs8tPkIlBQVjZi7ekmdJK+nTsfxtVe4jAQ1vNazUGKlpZJsKE1mW1riEsLQOgqo3Ibz3Z+9WPjWr1bggCDYK6kW2pQKdIozAHq2bryXtG4nvSTuG7hRrQNFAIEApt4V+qAccyVsi/my3ZZAHOKDDr1Sd7T/zMk7Z0wZe7KUhaWVrFyDSuFz1dJ+ZrZlYmbHob3PXdGiXTZN3rZ4inWswrrae8avzlVU/e9JtXWbWZ642OveFXhYet9C/KWggQrGjtv/6Ot7PSK70ZeVqT1alhfxZp8yKrIa3V4C4T4mrSXms9eWU0+U+Ux4Cf/wwVtliogauvgUKAcPV1XtijUgMWvLJbut+TlXV+qv5qBm2zLIVErrzoKS8gKT9VfDXaki0PLZjh1WCtsI9CDVxrDRQChGs9AvnZv9kerFGuy0FrNTroPCuTqLyqwYqU9taZJw9otcBn2KcIGgQeLNNKNpA9kpX4yAc9cVW9N3oyuTPApnxXHi3za2K4Vs1I1ow3tGKuvTDI56dnKWzrP6qBQoBQ0APvjbMrMJ40ZlS7avrPxXcs0HIxnRAUWRbRe4sC0mkBM1rVbpxewUbLQRm9SiYLskqDqyarGHT18lqRVXtf5NkqrZGssvFRfSaOXYEZprxh2dwpDPxXeRAKu/sva+C6AQjXecLWmo3kBQxYolW8ZEjr9Kg+8LGHajEAysRzHRFXWjN1mBTmWZJVHyR1/Fqm1a/+7fwoaWX8yoK9uZ7cf0/WKKIZ9WvhF91c2BHa8khPAo+Wac3swEKWgV6RDJXLVdFWzFXo6mqJkEcNFJIXauC61oAUIOQlWF/X0l6XzMlWwLLgqH0mvi+mwTWPq/eqogc2Cn7a6Ov/q3/fE1q995e1oR8QWb9WZFUFbf3nRjoW9WVVVtUYyXgWQYKZjs1sQrQFEz1db9GyMAtwXXqiQqYKNSBqwAYQ8uJA8kLr7Xh43ad28Y0MAknSucyf7l3uV7XqkwXOfKKV6knPr2KJJeVXFbSFNizRajL/V/QkGYirqidd/17PAW8nncFtjXlospC0UAOFGrh+NeDlFkNevFNeaD1VpCe5SRVo8GS5oyr4UvFtUCCm+v16R1P5TWs1b/Rf15NVG8wPPVntK5/fk01R1Wf53HVhc4UaKNTA9aMBn8zMNHsElK2gbZ/RzrXtJTE1qgkirmadq1RjWqNVu6xfcQVlpV9hdeuQQz8IGgiQBV0r+9MFrSfZqt9Ix3rZrOq4oPSk8SJLm3tuTy6nAhypLz2IU9uEO611PbkXWqr6pDZl9nT9THo3TjzBwNexGIWsFWqgUAP5qwFJBkG/6pYEF0e1uZoRGyjwhNZZne0Vrb0vKa1hwsL5pTutvmJcJus10pORrBSYpOOjD1haABPGh388SBwzVXAXgrChTeRdT/IfnTUaHxGMqGzRk0CuyrBYzbx4WnQo2FxeEm/iEKgSax6I4jYj8os2L+144hvz0s91S5sXI1Eo77qV1WCw88KzJzYkri+8Bdp54beAaXUAQTQuMajIgoVRAJHRmxmwSTCRljaLPMjkUGdHbNQqvqzkWvOmJyUgcgNYYsZDv/qWfacaL5WOrcoqAxFWabUshRG/4niI0UzMEJhlDPIyg7z1FleZzlvHdJXZLOzuamigIPy4mf8U5SoIPy7z0ypf720MyKt/+vfpyb7F4KnTdxqA+/E3s8Cl92Zav+JKTqVoJ621fuVLJ2fIMOrXCq0VWWXvWJlA+aMn1zNk2gSwCtT0IENFq1qemgE3/YQ3Ai1Xw6leJ30UBvrrZCCuFzY8909OzvNK641v89yPW/dPep9lBILMQEN+0/679aSrQRDRk2ywxUESJ5Iu4LtcfCMqUQx+Qrt5phU9rWwVKeHJ7VfzRACjyatatcoCnczr6/WkPxlhpCexb/HSnLzoWNK2Y2iN9GRElx/2pLMvM0xj5NOvBa1++pjFm0JgYKah/9j3Kj8i+jEj/yQLqFb8Uz76NsMLLkxiQJ5pjRZYer/1X9eTtlDT+2un7uxbDCoPahUkKDIQ3KwZwnJPT2WkpyM7O8dRGvkf8w75IK4RIDJr/mrSWgFEZvzm4/dG00Bm4vqur0qQd2eQppe/vz/8/QPgo6whyUcdFTZl14AR6rTiT1WKlAVxmROX0XtCK1vsqTLJWvAwAhiyrK8qEGufF+rJpglZnBWdi9nYFIw9GWwxmHkCq0skmRGoaHORnJyCrMwMndoUnle0Vf3fMtZFYKyPTUbO3czuzdTk9ff6QG0WnVTOQo8KFYyIsnNXdmXKdKySx8GihNZMB3pa7fcZVGMo45cKLPmR6Ml0nKUNmnF8jb6XO1QCBkFBQQgKCi4ECfkyMkbB36wDq34xD3NWyoK3/XpLZxW06PyJC99Xo9/81PHV4NeTWGlmh56Mj1pPugyChWCiNMz8CWDpaWlISUlGQGAg/Hx9TW8CsKKi/HnHJp/rkU1PWtYHIU91ZWyYsvW+k7OrYdTuevBeTypnIvZhv/DKgyG4tnoyQqAeCKF4NTs7G/S/0NAwBAYG5r3Bf1UL3gb7azN3XFeTng5EXnn21DflTxCSAntT0fMq69WOd1Z9W36CmryPj3DM0duUj0in/9tsIJ3vxsfHISAgIE/gwCgQGAcJzWBcg7l8AWpNT6aLVz4Mqv99BCOjdddx/tEaOQYhI+By4sPJk1U92d5ztQlzPdknjSNTYOT081dP7j8UoPJcZjZh6vHy9EJWViZ8ff0RGhoKXz9f12sbPGnZfJJ40poMPXrNG4Ggc+cicebMadSoURMVKlTSte8FEGBZc3H5cjx+/XU9kpOSUK9+A7Rs2cYgE2Pvx05rY0A1f8z8ojsdLZDORkaiVu3a8PX1U8hnIiv9OqoyE+eFnpgL637cxnQ+6MmhYwP/5CarGHs8odWba6Ge2LL5qmXHI1OuVUVp73kwQHpDAhATcwkhIaHOW/OSAAAgAElEQVT2yWlbJWZlpCEnMxOBRYpJHJOqL3ee3f2enDYnKxNZaanwDwqBb0AA/zsjOZkdCXx9EFwsHL7+/hZ+YcYskNj6z0pLQ0ZKEnJzcrlcI7hYce5XfGKPH8WhH1ei1m13oGyjxvD1Ix50E1HRXW5ODtISLiOoaDE7jdXxEcYzNxdJ0VE4s2sH/IOCULFFK4RFlEFmagrrxj84BD6+vgIXujb0uMvrEGNrLyMpET6+fggIDUV2ZgbSrlxh3VH/gWFh8AsMlujGih2764bsIfXyZW7P19cXAWFhLL/4kI3+OmUSqrRth9qdOluWkMYnKzUZPn7+rEPxyc3OxsEVyzkGVWrdFsUrV5G2TaArKysbYaFhXJPwb3tyc3Nx6vRJzJwxFampqRg69HG0bt3OAzFl45+LlJRUjB3zLB7s+zCioi5gw/p1mPDmZJQuHeGBvzGb6+I8VdvismVLsPzbr/HKqxPQoEEjhx0775Xxzo6tK0quJ/NVvnVf7M7L9UZrRVv/DT2ZXLVsxRitTA4rCrcBhNCQULst+iA7IwPHfl2HiwcP4Nbnx1hrRHGngbWFUS5i/vkHB75fjnp3d0e5xk1wdN3P2L9sKbIzMpGRkoIub7yFiLr1FYFQwmJODuLPnMahld/hyvnzKFq2LGrf1QVlGzTkFcKJTb/iz2VLkZGaguSYWHSbOAVlGjTkhvQ8n9u7Gzs+nItm/R5GjZtvhZ+/v+52S7Vq0hOu4Mcxz+OOseNQonpNXbtyA3dZGGnN+gApcbHY88VnSLp0CXU6dUaFps0RUqoUDixfxgG7Qe/7EFIsnHFUwTxOfjdNnYyi5cujxSOPIurvQ9j03jvIycxCQEgIWj06GFU73KQDCHpu5FaQEhuLo2t/xvn9++AXGIRqHW9mGWkA4k6dxLq3XkdOVhb8A4NY/7Xu6OQmYnZ6Or4a0A8NuvVAy4FDLKsgLeEK9iz4AqWq10C9e7q70eVkZzNvF/b/icg/dqP/V99IgJiNLDMzE6FhYQjwdweYlhm6jl7cv/9PpKcno3XrDsxVeno61q79CfPnf4Lnnx+LDh1uzgO3Nnta89OPeO+9yfhx1XokJFzGvn1/4PbbO3HRp/rJm1+kYJ+bm4O/Dx1EcnIS2rRp7+jq99934Pvvl2PEiNGIKFPW8bkz8+a+Irbm2+TSmNOqZTXP1nqnJyNZzQa8UE9mGrJ9b1VPHvwWg+b5C26fKuZSNEJCwxzpvaz0dBz+8XtE7tmNuydOMbzoWR6XbAaqN2TRqMW/L/61H3sWzEfTB/uiUqu2IMefmZYGctSLHr4fPd59H+UaN5OMgtaX81pqn9xcxJ0+iVUvvoASlaugfOOmuHjoABIvXkDHp0agUpu2DIIy01I5W/JZz67oPX02KjRv6cIzdUYBKjM1FQHBQfANcN9nlu37k2y0+l088CH0mDINEXXrKeo6bNkaIz1dORuJbXNmoPadnVHj1ts5i+LrA+z+4nOkJSSgZf+BCC5Rwpp18lve29PqF0ejeJXK6PDUSNYLZXhijx/Dwe+Xo/rNt6J2p7ss85EcHY1N06ciLT4eVdu1R3pSEvYvX4Y2g4eiRf+BPO4ZSUm4HHkGB7/7FuWbNkeDnr1c2yfF5eQiLTGBQYR/sJbBMGcj9XI8ts6ajjJ166Hpgw9JCbIzM5GemIAP77wFw39ejyJlyulnuYOGAUJoGG/TaQ+tvJOSElG0aDEGEJmZGbosnbO7jIwMJCRcQYkSJeHnp09tg+sbkqk2yD8AwSHB9hllo6WgTUGuePESnGHRPzk52bxCDw4OtmU1dAZGvBBfxYoVg59LNszmvo4fP4KXXnoBDz7YD/ff/5CDdueObXjvvUkMENq268htUN0F9eFUiu1f2dlZSElJQZGiRW0+ReIkZsyYig3rf8H3K39mcEuyUvAmfRDYsnkPIC0tjW1WXwianp7GNEFBgZzVyMnJRZEiRaRjc+XKZQQGBiEkJAQ5DA4O4MMPZqFV67YYOPAxB2vZWVmIi4tDiZIlbCdT7DOFMk2kax9fW0Gq1on2PY1deLFwbjshIQEhwcHMqyiy3k/QlgrZQ/ESJXRbnbaWaauDbJ/sydduD3pam8nnIi0tle0qjDJ3fv5ufss21XORkZHOvAQEBPK/yVZIH/onOSnRZpu+PkhJTkZYkaL8NfWblp7G+g2mTKWPq09PSkxgPimNSPxQu84smucxQOvTpjvj+OEigGNUdDFAcfG6ClyJOpbFNSu0Gl9m8c7Jv1xPwj0IMnGv3mcxMTEuzosAwt92gND1zUmc4qaUa5EyZeEnFGORA02+FI2i5cojgIzF/tAKmgyHPrty5gzgBxSvXM1lj5EccEpsDE8ECt57Fn6BJg/0Q+VWbRzt0GT5rHtndJvyHsozQHBFx8mXopB48SKKlquA0NKluX0CFzs/nI3YUyfRfep0TvGnXbnMK96iZcqh5aODEVTMuXXywW0d0HPaLFRs3tLRb1ZKCm8R5GZl8bZiWOkyvMrVP+Q8UuPikBR1AaGlIxBWpqxDvrQrcVg8sD8DhNJ16vJkJR5yc7IRUrK05cG9fOY0ts6chiZ9HkCV9h0ddAQQ0q9cRosBg5CVnoL0hESUrFlLtwVie5W2IlJjYhBYpAiCwos7VsEZyUmgcQ4pXhwpMTEcCMMrV3Eb36RL0cjNyECR8hXw07ixdoAwwsFHzJEj2Lf0K1Rt31EKENITExF/8gRCSpREeOXKDrq/ln+D09u2ou3wJxlA0XPohxVYP2kint6yw+Ec40+dwr4li1C2QSMXgEAAj2yHggqfJihWDIFhNsemf9KTEnElMhIBYaEIr1jZ0W5qfDy2zZ7OfWsAgbIKyMlBIG8L2YI12d+0lo0x9PvVKF61mnTcRICw8vtvseirLxEUGIjOXe7Bp598iCtXrqBDh5vw9DPPoX79hqAgN2fOdPy2aydKly6Nv/7aj5fGjUfXrpTNyMX+/fvw0Udz2fEmJiaiUsXKeO75MahYsRLemzoJW7dtQfXqNXDi+DH06/cIHnp4ILKysrB+/c/4afWPSExKAM3rYcOeQpcud3OAWPzVl1i69CtUrlwZFy5cwN33dEf//oM4oNETFRWFNye8jG3btiA8vDiKFQtHkybN8NbbU6ABhF69+uDPP/fi11/XccB86aXX0blLVw4O5J4/njcX27dvsQUTHx88+dQIty2JBQs+x/zPP0J8fDwqVqyMUqVKoVmzFli8eCFuv6MT3nrrHVy8eAFz58zA2rVrMPLZ0bj//n4cgGfOnIpdO3fgmf89x3ys/H459z1o8GPo338wQkJDWZbt2zbjk48/ZGBw+NAB3H5XZzzyyCDMnPEutm/byp+TjN2690bLlq3xww/f4ec1q7Hs2x9RsVJlBiwH/vqTeSAQkJycjJtuvhWPDhyKcuXKY9vWTfhi/qeIjr6IGTM/xNgxz+HQoQOoXLkqnh81Fnd26uJmK+fORuLtt8YjPSMDdKQ8JycHb771DmrUrI34uFgsXrwAv/++C35+vkhMSMCQoY/j9js6uxTAUrb3g7kz8PffB+HrQ8E+EE8/8yxatmrr0l/UxQuYPv1dHNi/D/f2eRBbtmzEX/v3o2TJkhg2/Cl073Evzp8/iy/mf4Jffv4J3y5fhXenvIW//z6Epd+sBBWuL1jwGfbs+R2pKamIKBPBttu4cTP8889hfPrxHGza9Cumvjcbs2a9h9OnTrJehg1/Gt279+JMa+HjvQbyFSCkpqRg167t2LF9G8qWK4du3Xrxf60+MZdieGJp57mz0tPw948/4NCP33NK/uS2rRxA6tzZCW2HPYkiEWX4SOSGSW/i2IYNCClhCzztHnsCdbreDR8fX2ydOR0ZiVeQcPEiEqMvIuH8edS85RZ0fXMybVoj7uQJbJwyCbEnTyC0RAmUqFIF6SkpaDVoqBQgdH/nfZRv0tSBzInH/V8vwaEff4B/YCASo6PQdshQNH6gH7LS0rHm5bGo0q4dmvV9xEFzZsc2zgbQnnJQUS2Y5OKD2zqi1/uzUKF5C4fKzuzcjj2LvmTwQavY++bMQ6WWrR3fU+Dd8+Xn+Ou75QgMC+Vg26jXfZwKDy5azJZBGPQwAwQK3JG7dmLLrPdx+6ixKNuoCSgzQKtYfrQLqnJz4evvh/JNmsHHz49rQGKOH8OW6e+jzdDHULk1OQEbQCKAkHThHJKio3H5/DmWv2S16rh3xlwEFi3KNRZH1q7hrAyt9MkZNevzIJr0fYhl3//N1ziybg1K1aiJ07t2sl5o++KWkc+haPkKSE9IwNbZM3Biy2YEFSmC8EqVOXhG1K2DDk/pAMLRI/hz6WJUadfBBSAQeDq6YR02TpmMYhUqMA/VO3RAuyeeRkBwCLbMmk7RF60GDmHwQE96wmX89uknaDNsOILstS8qgBB79AjWT36bt4iSoqLQftgTaNrvYcf4EKD9Z+0a/P7F5wzyUuLiUa5hQ9z99jssvw0gzEBE3bpofN8DOLllE9eaNOjRi7MhGkAgADKjTXPcP/djtg8aF/HeAxEgUEHf6NEjkJGegdffmIg6depi9+7fMHvWNC6Ce/rpZzml/snHH2DGrHmoWKESPpo3GytWLMc3y1by6vvzzz9CUGAwB0JaBc+a+R769uvPQfytN8fjx1XreLW2e/cu/LT6B7z2+ttc8Pfbrh3oc39f1K5dFz//vApz58zE+9NmIyysCO7tfTe++HIJatWuw+9t37YFjw17koGA9hAYub9PNwwZOhx9+/Z3fE4AYdzLo3H33d1x9909OAMxfdpUpKWn4PXXJyIioiw+/HAmyJe8/MobSE1NwdKli1jOMWNeRqVKrjUc7055G1u3buYMAj3R0VF4//13+N8EEGgVf+LEcYwf/yK6dr2HAYJ/QCC+XbYY706ZiN69+6BHz3tRqlRpBj2HDv6FkSNHo3HT5ti0cT2+W/4Nxr74KspXqIitWzZiwhuvcDAuWaoUZs96H82atcTgIY9zf8QrBcr5n3+Cb5f/iAoVK+PEsaN47bWX8OTTI9Gx4y2ceZgx7V3UrlOPAzeBsYlvv8YgZfjwp9Ch4y0M+gi8ka4nvTNNF9htc3biW6/h0qVoTH1/Fq/+nx3xBMqWK483JkzG+nUE7FZi0ODhaNS4KZYsXsB21qNHb4SG2bIjRENbM8u+WYxJ77zP9kGAKTgoGMMef9qlfoMyIosXf4kP5s5kUPPwwwMZbH722UcMbka9MA6tW7dluel/Q4YMw/79+9GqdRt06tQVi7/6gvX95FMjQW19+MFMBq00tgTq5syehkWLvsSENyehS5d7EBsXy0D44MG/8L8Ro3DTTbe6hR9tVa3eIjHfVskLrToeGm/JGG8HyWnNZWXHLy20Jdp8BQjkIGbNfB+RkWdYB9269cTbk6a6pSxVCqJJTVXYtOIn5jIJIPywAn8sWohbnh+Nah1vQeSuHdg2dxZuee4FVGzRArRy3PXJPNz58nh2+AQmjqxbi26T30VweDgDhMjfdvL7FZo1x6V/DvNe8aNfL0eRchXwx5efIfrIEXR6+TUOsHu/WoDDP/+E2194CZXEDEKPLuj2DmUQmjpEOP7rehxesxpNH+jLhXtUTPjd/55C38++QHB4cXz3zONo3u8R1OlyjylO+uD2juj9/iyU1wEEjYhS4avGvYAOTz7jAhAu7t+H1a++hHvemoyyDRvj7O7fcGzDOq5zICCRZgcI3d6ewkBgy+yZuPXZ51G5bXsknD/HdQVnfv/NjbfAIkVx/7xPeSvh71UrQVsvqVeu4M6XXkZoKWfmgQDCoVU/4NZnR6Fy23bISLiCxYMGoN1jw1G/Ry8kXriAo+vXokTVaqjW8Sac3rENv332Ce546RWUrlUb+5d9jS0zp6P7pHe4diDq4AHs+vRj1Lr9DjTo2ZtrHI79uh7tHn+KQeKlI//g68cGosXD/S0BhCtnz2BBvwdw/wcfoVyjJog7cRy/ffoRqna8CXXu6oKNU6cgtGRJ3iKh7IbqYYCweBHKNnTNIOjfXz12FGd/9AAh5ug/2PnRh6jSvj0adOvJoPGXCeNR+/Y7Ub97TwdAKFmjOkpUrYHDq39AjVtvQ+0774KvsA++ZvxLnClq0L0XKjZrjiLlyruwm0GpXpcthlyMGzcasbGxmDdvPr9LK9KFC+dj1aqVnKanAEuO+sG+/eHv78fBfPas6fjs80W8op83bzZysnPw2LAnEBFRBsePH+XV6bZtm/Duu5Mwc+Y8VK5chVPGp04dR8WKVTB//sdcX/PgAw9xcKGV75gxz2LgoKFo1KgpBg18iIFE27btmZ/Lly+jSpUqLinnxKRE3H8fAYTH0bcvAS5bql/LIDynq0GgDMeO7Vs5w1C0aBF07nwrpk2bg6pVqrHr2/vHbiz/7hsMHDgUt956h4vO9ACB3o2NjcHc2dORkprCgZwAwvnz5/DyuNG4s1NnBgiU5o48cwoP9bsX70yZzkGIaFevXsmAgAoomzVviTEvjMQ93XqiU6cu3E5SYiJmz5mGwYOHI+HKZRtAaO4ECMTYpk3r8eorY7F4yXcoW7Y8pr03CWfOnMHMWfNsWbfcXB4/CuKjRo9Di5atMWP6u9i0cQOWr/iJZUtKSsKCLz/D/v17MXHiVJQoWUqX+s/FT6t+4C2Ue7r34hMc096fzIDqo0++5MC/ZPGXePiRgbyFox09J2DlH0BbCD7IzsnmzAGNxYMPPoys7GzM+2AWLsVcYnBUpWo1l+3gw//8jaeeGIK3J05Bu/a2upEDf+3nfgkI9B8wBH/s+Q2vvDIWI/73PB7s+wiyc3KwZ/cuTJ/2LkaNGosW9swEZVMo+9Gj5324r8+D2PjrOrw49nms37AdpUpHcL979+7B5EkTcMcdd3GWwr142nWWy7dW9SfMTF03v+Bsx5xWDNz5RWtWTKruVy5jvgKEGdOn4ssvPmXjo6dEiRLYsHGn5apqG0CgPSZf0N4ppegp3Xti2xbcM3EKAkJCkRoXi1UvvYAW/R9F9Ztu4X4o0NFKmfajCTD888tPuGv8GyheuSrv7+ZkZvAKkVL/9HzU+Q50fuU1XkFvmfkeytVviCb2/d9zf+zBH4u+RLOHHnHPIPTogu7vvIdyOoCwe8F8RB38C3W73MOBhh7KaLQdMgxVO9yM5U8PR4tHBqBO57vtI6BGicYAIcoOEP7nAhD2f7MEJ7ZsQu+ZH9gCQEYGUuNjuWAvqFg40i7HY/Gg/mjUszd2L/gCt416AfW70x66OC00A3GtDaAtgGVPDOUtkZq33oY6XbrC354KJgoCCPGnT6HDU88gzF75TVmTkjVqos3Q4eBTFFcuc4aBsi20yt7+wRx0fWsSB/y/ln2NfcuWYsCSb5kB2uL5Y9EC3kZqOWAgtsx4n08NNOv3CG9D0LNi5NMoU7euDSDYxYg5egT7lixG1fauGYR/1qzGllkzcM9E26qQ6gmOb/qVwWO7YcOxceo7CCsVwfYUaF8hyaaKtwDhxOaNXIhK2QECF8QvbYVRzQJtBVEGYcv0qVwAS7omkEmFluIWGvF0asdWzpLQiZdWAwahUmvnFhh9LytSHDdulA0gfDTfsQe/fv0vPE8HDx6Gm2+5nVeTsbGXOD1Lq39K53762UJe9a795ScsXPA5SpYqjY4db0aLFq1Rs2ZtXL4ch1dfeZFT223atufVLW1ZUE0ApcPj4+JQq2ZtViWl/GNiY9C5y93stCkNfvLkcTRv3hLtO9yMxo2bomzZci41DE6A4J5B0GoQiJaeTz/9EFs2b8TbE6dyofOA/g/YVvp+tkLezIx0+AX4c9ahlZAC1wDCCnsGwQpACAkOwRkdQOhoX6VScF3+7VIMHjKcj2COHTMSL78ygVfiWrZHm3VHjxw2AQjLUSaiHJ56cgiqVauOl1990zFjqWbio4/mcAaIxk8DCN9pACE5CYsWfo4//tjDOqHshj6AUS3DhfPneAwp0H+/4lsUKxqOjz5dgH/++RuffvwBzp07i6ZNm/H4NGzUhGtT9BkrsjU69UEZl5MnjmPVj9/zOyOeHY2qVau79Hfkn7/xJAGEt6egnX3MaFtn6rsTUaRIGG8HHDzwJwOEpV9/z7qjOoUfvv8O3333DctQtZqtzYQrVxh41axVC088OYLBLQGEdRu2OzIXkWdOc6arXPkKrKMgoSZIq6JT1VMbrdRVtFZW6uraAeca3lOezPo1ktU4I2FzrT6ZGWkqntz9pEmLS5YsxEfz5rDDIWNq1aoNPv5kgS2DYMaN/Zij7RSDlkFI5wzC6d92ovvk9+icGdITr+DHsaPQ7EFbNX/c8aPYs2gBp1wpBUX7wVmpqej8+psoXqUaAwTqv/nDAxBsDzCf9bobtz/3Aso2aYpN705GtQ4dUb9Hb5aXVrCUDm98/4NSgNDjnfdQVgcQfv/8Exz+aRVKVK/hCJyZaSlo2K0XKrVqjR9HP4u6Xe5Gw973OfRJPOZkZSO0VEmXVaLnACEXe774HNH//M1FnLJHAwhacC3XsDFu+t9IPlKXmZKMmGNHkXQpxo3ULyCAV/yU4qYgRsGJtgNo5R9BtQz2hwBCSkw0Wg1+DKElS/Gn694Yj6IVyvM2ENWNUJCOPXGcnTUF6Mjff0OfDz5G2YYN8dc3XzOgu/+jz5mW3t/31UIElyzJgXLD5LdRpHQEmvZ7CEH2oqU1L7+IYhUruGYQuAbBHSAcWrkCm6ZNRfWbb7NznIuc7CxUbtEaDXv3xuZpUxEQFMz1IAQa6KGaFNp6opMFvoEBPHu9BQhH1v6Ms7/vYnuKqGOrcdA/pNsNEyfg0vFjCCtVit9pNWgIb585Hqqvy8nFJ906o9n9D6JxnwcYzNiO2zofKUB4SQcQ7K/SKnXZN0vw0MOP8v73Tz/9CH8/P94Dp8A89d1JmP/FYt4Dpz1oChqbNm3An/v28n7/yGdfQK1atZGYmIB1a3/G7t934XTkadx00y24887OWLhgPu/l0ypULFykxQPRbdiwlrcXTp85haZNm2PYY0+iTFnndqQaIGzlUweU/ZABhMizZzBs6ACsXb+VV+BGD7kkcYuBgIwjg/DmO/APoAzCWXsGoYsug3AaD/Xr7ZJB0AMEWrW/Mu4F5rNd+448j/Qu8OiRfzB71nto1rwVAwrt2bRpHQOvxYuX8ymGoYMfQY0atfAGbYlq47dxPT79ZB4ef+JpEDgRMwhUNCoDCGzb2VQf8gt+27kD5StUQPMWrbDqh+9x9lwkPpw3H1mZmZwBpvqNPXt+w6mTJ9Gtey88/PCj9qJN8LYGbdlQtqlMRBnOglCbly5dwoiRo1ClimsGgeyHAYIug0A2MHXKRJQqXRoDBz2GfXt3OwACbXVRUeLyZV9zTQZlcmrVqsP+g4onRz//P9SpU4+3pbZu3egGEGhr7cO5M1G+QiXWkQYU5SHIeDuBdKa9YT1Qut+eYhb45VkMmfU6+ZWBA2+2IagXPZBw4cUjgGA43YDIyNOMRg8c2M9VpX36PMh7YpbuiPcBYi5p9yDYWKb9dMogaACBUkV8bI8AQl8bQNgy4z2uK7jrtQkIDA3DyW2bsfvL+eg8fgKKV7FlENwBQlfc9twYVGjWggvEilaogNaDh/FZ+lNbt2DvkkWSGoQsfNajK0SA8Oc3ixF/4jiaPzLQtj+em4v4UycRFhHBDnzTe1N4NXjLc6MZDFBW5K/vlrHDIODgLFL0gQ0gzJRsMfiAiiApc9LhScogtHKMxKEfvsfBlStw7+wPGKDQnQBUUEh3FBQtV86RQbj5mZFcnPfza6+i9aAh3HdyzCX8veoHXDx0yG1kabvljhdfcZz5jz9zCpvfn8p6p1W69jgAwpDHEFrCDhAmjOdjiAQQTu/czql5ygbQ6Qzas18zfhw6v/4WZxAOfPM1Dq91BQh7v1rI9QCtBg7G9rmz+S6Klo8O4gwFZYm+fmwwqrRpbQ4QaDy3bcGGyRPx6DffsX6IPiUuji8Toq0SspW4E8fQesgwlKhSlcWK+vsgts+ZydtJWlbBGkAYzdteTTklbntObd/KAKnRvX0cxafn9+3l+xpK167D4Gvze1NQpFw5zoj9+c1SVGjaDA169OSMmfbQiYBpzRth0LcrUaqWbWUuPrJTDC+9NArnz53F5/MXc7Cm9PCK75axg3/00SH46qsvcSk6mgNQqZIlsWH9Wrz11msMEGgPm1b6devW5+Lhgwf2Y9KkCejZ816UK1+eP6d9YHL2BDhWr/6BC/koWBAQePrpkY7LjKKiLvKcplUrFdq1aNGKsw0rVy7H+nW/sLNv3147nkpp8kT0ua8bHh04hIv6tEe/xUAAgZyZPoNAk7jPvXdzUSIVTNKJDrpEKi42llPkJYXC3Km6GgRyvXFxsXy6gC5te+ONSRwUaetk/KsvonPne3D/A7TFEIzIM2ccAEGWQahTpz7GjBmJenXr44kn/4eifAQ4hxdPVNRHK+hZM6eiabMWGPrYEyweybKRtxhexFeLl3Ox3cS3X+cV+rQZc/mkCGVW6Z6EbVs347HhT6FBg4agzK1+i8EdINjmJfVAJ8WeeWY47ux0F4YOfYKD/ZTJb+Ls2UjM/eBTrregGoaGjZoiLi6G61MOH/4bk9+ZhjJU/Eyr+MQETHr7Nb53g7aQSR6qBSBwNmLEKFSuQkW0zkwkZRAeHz4Ir45/E3fcaTthdPLkCXw8bw7atuvA2zBUzMkZhKXfo0LFirz1tH37VsyYNgXDH3+Gs0/0nDhxDJMnvQkqUu3c+W6s3/AzXhzzPNeQaFmGw38fxJdffIYOHW/mIkjbo51JoH/ZwqFrMNWHcC1calanhwjid862NR27tm3Urp5W1qd+hjtPU+i3I/R9Ot/Wy2rjxhVMmMmq6cbHwwyCzCsJn5GziI6KQliRImxQ4grCqAnnRUm2t5wAYRe6T57Ke0lUtGYDCPu7eTwAACAASURBVA+hxs23Yee8OTj35z7eQkBuDhezUUFd51deR/GqBBBm2AFCf5cMAgEEKmijmgUqYmvU614EhoQics/vOLf3D9w04jlUbtUaiVFRvIVBgWXVi6PR8YmnUapOHRSJKMtFb+f2/cFpclpV0x53MqVqt21Dx2dGILhESZzcvBG/fzEfDbp1R/HKlXH53Dmc3LoFte+4E3U6dwVVrFP7VMz23Yinccv/RqJ03foIK12aAUdKfByunD3Laekd8+aiUe/7+EgcpaeLV6rMGYC1E8aj/j3dUbJaDUQdOshp+oa97uWUdtqVePsphvdQuk490Ir6wMoVuH3MiyhVszZnEbLsW0IuJurjw0FaA3eXIyMZTHHxnH1rh8bIDCBE/r4Lu+d/xvvqBNiIv31LvkKv6bMtAYSTWzZi/7ffoHKbdoioWRtXzp3loF6nc2cGCKS/2GNHQfxR7QXVYVRu1QrFKlZCkYgIBgPLn3ocDbr34OLS5EsxuHTsCKq1a8+Ahe4XoHsISlSrhorNWnB2gUAXgTnaBiFwQnUrCRcuci1FyerVUb3jTQyAaBuEvo85dozHb/uHc1Gmdh3UurMTgouXQMnqNZB4/hzXXAQWCUPVtu2RnpyEv5YtQ4v+A7gIkYsUZ01HRL16XFz6z89rcGrHNjS5/wEGFNr+Kc2FGW2bY9jqX1DM5QZB54ySAYQXX3we+/btweuvT0LduvU4Nb5mzWrUrlWHTw+8OWE8O12qvidAQKnnWbOm4YUx4zjtT6n7OnXroWOHmxF/OZ4L+Hr0uBdnzpzElcuX8Uj/wXzEbdu2zVix4lu8+uoELiJbumQR6jdoiJYtWiMrO4tvB6TgcOHCeSxdshDPj3qRU99UILh50wZeRderb7v/gx5KMT94fw9ug04F0N81a9bBxo3r8PFHc/HkkyP4ZEZmViav+Kl/Ajn16zfCO5Mn2Iok+/TlLAgVV9JWF+2pV9JdNEVH6Sa88TJvqSz8ahlKly6DtNRU5u/nn1ejb7+HUaJEKQ6UVAhHwZh4qVmLiiu3Y/SoERjz4svo3v1eLr6l7YXvln+NQUOGcyaF2vl+xXLcdVdXvqGRsiIx0dHo1LkrB2a69ImAFxVzhoWGckqctnSo6HLa9DlcX0D78DNnvM+6o+0ZqucgIEar9J697uWjhZMnvoFdu3Zi0VfLeEVOfpSCL1X5UzEfFYNqfvjihQt4+qnHULtOHfTufT8XRm7cuJ7vZKB36QTEsWNH0X/AIBQrWgxff70YBO4I+NEWAj3Ew/hXXuT6hUFDhvEpGdIXZR6oJuHmm29jYKU9R/45jEcH9MV9fR5A/wGDeSFGQJTavfe+B7hwlPRGclMhK2U1KFNFtkj1MJT16Pdwf852bVj3C9MNGDiUa1/WrPkRY194Ds8+Nxo9etzH4IayUwTE+vZ9hMdfeywksZXh6UajzS9+PdtisAAQpK9Y5NYGEGznXOmhVC9V3V86cphT2PR5ZkoKKK1P2QO6UZBWdn8s+gJ+QcEoVrYcr9bJ6ZKDpSB6cOX3fFynxm23O1aDFFAb9+6Dso2bIPHCeRz8YQVSLl3ioEz79kRPwZtWeBf27QUFOTpmFnX4MEpWrYKQ8BIo27gxV/PTKYJT27Yi6tABRvcUKMIrV0Xje/twBoFS6rQFcfHQQfj6+rAjKVOvAVfah5UqjYsH9uPsb7/xPmn0oUMoWa0qFzdG1G+Aah1u4uBHhX2UGaALl4qWLYegsDDeHqHv6SbBY+vX4fyfexkIUSq6fLMWqNaxI8tL+9qb338XbYYM46BJVfx/LJjPKXoqdqOTHFYeqh3Y8eFs3pqo1/VurjGg2xkpaNIxx9p3dXWcyNj31QKElCyJul27ITkmBkfXruGUPX1GQfX8n/vQ9rHhXCNyastmnN27hwEZPVRIeWLjBr45k3REp1aoCJSCdGh4cb6ciXRBYKt+t558CuMwFV3R73jExjAPdGFT5XbtGSD5BQTi5NbNvJIPtN9USHZBlx0VKVOGQeiZnTv4hkg6cUHHPwPCiqDpg/24sDIp6iIOfPctsjLS+RgmrerptEvFlq1QrkkzpMTH4sjqVVz7EX/mDGcGaKuAtpyoUJTWK+f27cXp7VuRmZrG40VHcamolfRH9kGgLbxSJVS/5Ta+kOrwT6u5D7pvgmpJqC7m0tF/sGPeBxj201qXzIJ+7NwAgg8w7sVROHToIPo91B8B/v5IS0/n2qA2rdujdESErYJ/xbcoUaI41xDUrFUbS5d8hTJlynBR3unTp3GKtltKleIaB0q5U6CivXo6xliufDkOUlSZXq1aDQ4OVHRIgZyKA+mh0wkNGjbmYj36buHCz/lIJe3l0354hYqVuIYhOER/k2Qu5n/+Mf7YsxuNmzRFzZq1eG+bjhtSep7qFzrd1ZVX4qtWfc/bAG3bduCgFxcfi+XLluIUZfLCwhBRpgxat2mP5s1budwRQYVxP/74PctCAZ3oqRCT9uW/XrqI7xSg1Dat5Gk1S3cL3HNPT0SULYvVq1bylkuTps14JUsZQTrqSMc9qaaCwBfNR9q+ObD/TwQGBaFYeHG0aNESt952J6fK6Tgjbc/QypfkCS9enAEZZWBpu4f6oiJSOspJnxGgojbDi5dAu7bt+eQBZYJo/5+yQHfc2ZmPklIF/5o1q7hY8bbb7uAtDu2ECI0hgTc6bVavXgMGjQQeSB7K9tLx1T27f2OwSHdeUGElBWw6ZkpjT545IzMDm37dgNU//YAKFSqyvLQ1sXvPbwzi6Hgh3a2gBwiDBz2Enj3vQ42atdgHUkONGjbmLNS58+fw85pVXLhIemjbrj3bC7VJIGfL1o1MU7RIUeaVtjTq1qnHY0n6pZoWKo4kAEHZIgLVtG1Fp3ZkBYpG+/IyXyim/+kds+0Gz9P/xrvwFkNoXsKvG63nNQhWIkke3qGJSuk7DSBQwM1ITEBGSiqny3lgsrORGHWRgyg5Y3poxZwSH8/H+mivnYIKFSRScKBb8sgYQ+jsvf1M+eXTpxFauhQHUEr7UcChvW/ai6Z96Mz0dL5SmZwzgQVy2rR1oCWayOionkHbc6fgQOf0KbtBl+SEV6zkUmRGgYdWvhScA0KC+fietp9OBXzEI00AzXD5PH14OKfU6fw8BSbKYOgf6l8rCiQgRUCH2qdKfAp8WiEhAZuEc2dZf350wUpOLlLj45CRmorwChXtP8dtPmgUIAksndu7B8UrVkblNm1tRXaX45k3yjZoR/JIl37+AQwISG90BwGNGX1PPNOqn7ZgtC0RCpLFKlZkJqgtKjilY5YhxW1OhuSiMaZVIAEkuliK7pQIpaCVksxbTOJD40vXVtscRC4Szp3jC51ofGh/X39igfok/ijbQGNAvGhjy2N3NtLtIBDJRrZG2ZfE8+eZN/1DtklAgJZLBDoIKNm2Nvy4fdoOY3mzs5EaGwu/oEC2aXroPbIprlHx9cNf337Nei5aoaIN1Ekesh/6H23t6a9afnncKERFR+PNN9/htDl9T5k9Pi1kd/a0uqcVOmUMKI1N6Wb6m1Z2lOqNir7Iv1NADrl8+Qp86RI9dNQxPj4WmVlZKF68OAcL7dIjOvJ86VIUBylaTVLhGZ2VJ/1S0SR9R8GqWHg4ypUtzwFUezRnSJX+kWcjGdjQ6po+p9UjzUPipVSpCF4x0kqWfAV9X716TT77TplMylZQkClZspQtmylcAHXhwjne7iBaXx8frlmgS5UyM9O5HzpqSef1qYAvOjoafv6+KFWyNFft0/0I9FDApnf8fP1wkbdRwL8lQ8e7i4QV4aOixAddNBUeHs5bMgzkc3O54O7ixfP8N8lHWQW6JIl0TrKQrikTywWBFy9wBoJOUJAsBHzonQsXL7CONfmrVa+BuNgYvquB9EQLrojSES6FeiQX3YVAAb9SxUo8R6iwj8YpIiICl+PjeYxoO4qyBtSfeH03XRx1lk+r5XLtSGBAIBctBgQGcV0Cta09lEGgGoSXxr2GKlWqMq8ETqltCvg0flTUypdUAQgvVsxRj0JbawQqaWuEntIRZVwu5aK6DypSpALN9Ix0LnAnkEdjItqTOG2sBF3VO9eC1lNgo5fXCq1MJmsZBCvakLott40e1Vv8eULiFTaeG/aq2KukJzcl5qVfwxFx/ZJv9KNLfACunSAAdtWfvMiaF9qrLqi9Q7oJMSaadxEJQMhON9Cb5BzpPLpLBi47G088PoiDE51KCAl21jTIxLFajGXF2YjOyfVsjPkKTOXcrQ6hyKPthjrtU2pd5Ej/mZN7T2X11CkbuU05R3IKb1a5Mh3nVV7Zynrz5l/56OaYMeP4QihZoPZEVj093RkxfdoUrtloQKeETJ7rWU9WePdWT56OqyMDwkWKnlKrZr9qVhvNAp1F0QqI9jlpxWD4gzMqfq14j7zKmpcREmePFX6pPym0s5jnkvFrpd9rqeOrrafrTcdmnkLj1z62lPIlAEGrTarYth0s9MHCLz/D3n17GHTTnQP33vsgr9T1QyuaguhAxXImsVxL9r2MfYfD8aIqXKS15k5cC7XMppBqSqj6vhH0ZCaTzI17qyeV6z969AiWLl7IGZlq1avzDZ0NGzXm181swshN0Xe7dm7nLQY6aklbQfc/8BAqV5H/mJmRrFdbTzLXamRPom6N5qwMfBnNWSNXQ/3YMghGM9BMe2ajKIOUBtqglBKlzOgaUDFta8VvFtQ76sMwBdWj2K7ZrtfV4sO4H5uetClwffB07bhQj5mxPen1Z3vT+f86aezXCNOFRrRlIN6FT9sClCamh4AD3VJKqXRZTbaYPTCb1hrulLkOq6DDittx3k1vfY/WiCczfo2ClhmtzDlfPT255kRUlidzvVbAjoihrY0d1StkciEkBxsfXwQFB/F2hApYWtGx9g7Vr9BV0QyHfXz4h/5oe8kI5KhktWKzBaknfT5L9m8r+rcigwyYGYKnzMw07Zcl7O8p1GCkdemSgQ5v20U1pXUXjWoDpJkNzXc6LEzk1z4l3d4TDnu6YFhNbSa0Ln1qU9+EVsqvAa04c/SvqiKdJVkVxAVBawXLiP3K+DCS97rTk0HIV+nYRE9WEyn6H69RBXb3z538Gjl70THZhsQarZwXq7SCW3LYgq1Vq85QFrQ1ECvrQc6za58EgPOTVjVmzsNmmsbd+7VKK3XRBklIp03kr6xye3J+atav3CWYj0/B6MnZan7bxPWiJ3kGwchj8AkD26//ucRYmcOXwUTVzFbgErc4LoNARrRm0MvMo8raFvXjiUz/Bj3p5dfHC5lNGOW3ZHamsj0rOpbZhmymmbWVB3sSYYIqgaY5OqNpJDNNzXxEtas+1ztU0fS076zSWpHFlWf5rr+qX1kwF/Uk0oqZD7O2rcoq69cKrcqxm9GK38vGTRvzf4OevLXF601P2njL3GB+2qJssaC3UZlLM5s7VuzJCRD0ViebdUaOW+RU7Dk/aFUzRj8yKom9pTXSusoi8kNWs9GWzS4joGM2PqLH0Vu9KpKJOpWt6M0sWGVnZn3mh45lXtZK5kOiKxUGUgV4PYiQ0arwiQyXGYkha0dUnVlfNlNwnuCx3TKvVTk4v9EXATq/d/0ZmOtBTzLTUelJ706s6cn11j1P+jKzCSPgYUZrxrvenchcjwhi9byIrsisL5HWik2o3KEVWn2QLtST+wX7qiylNq6upxhUQUYWQPLLwaqgpNU+rYACowDoTVDwVk83qqz5pWNVYFeNjzdjo/KkisAuOhD93yJOkTkbqxjHU1qj5JsZPrJCq8LM7rSug2Dr2zkBNJOWmYgcjOQvrRVZjQKM1XERMbOsX3fMbE1WOQ/WaK3quFBPMvDmruMbXU+y0JSnOeu4atlK0FO9Y+VzK+3L4KVVoKCCk9ci+FjRh7s3sX1SkHpSeUOVjq3y4q2OPdWTvR/ZikalTk9MSobfzFSgd9BikJQFJpUDMgqwMrMwAgkiaJHvIrubmlX89u/Vk/z4pWocrdiGmU2IU+fGsKdCPVmxCSvvFLR/Ehc8RsBWxu91dQ+CYeWRFaBgFCVUM9Hq51b6N/MYRm1cr7R54SsfgYd70JOXwYjgwZOg5wmtXi1q1C5XQH7QqoK01qNNFtdiPpkuxM/MhlvGu5GO80NWlRM14tUs0LrqSZ569VRWM8zvjZ6s2G9+61gMKnqQY6QT2ThdLXv6t+rJ2zmrsgmP9eTVjzWZjfrVDoRW+LHyTj4GNG7qWvR5I/ar0JM+YMtW2HpHpkr1m+1SWHXaMhyp8SSyLwvesuChAha2duWcm/HrjZ40k8kLrUrPel0UjJ6MQZixjp20ZoFPDJpG8sps0Wxa3ih68tyOvRufgrQnGUf5M2e9k/V6nHcO3+YCEPIS0LwNrjKvYebVVZHBE/49eVcWHazyaASWPPnuBtCTuMujF0/7TiaybOWumjTaRNba0bdr5phVtGZbFvoAqudLHlTcQ7u+X1lfRqboLe31ryf3NLW3snoyPiqgd7XsSQ/w9H2KAMIKEDSzRaNA6CmtmT2p+pLNe6NsoMy1F+rJpgEV2BV1bORjjACzzCbcjzkawRlx9PRW4W3ANYNuRkHUiFbFjzhDzQK9amlxA+jJqCxDnPBiMNcbpKgCoyFRpen1TlwFJIwCtWyFJQsosokk0spktX0mP1/vKq+zVw0KaGegVRjOXdfOqgAZrVxWp+E6+1UHWVcdOzmz6dj2t4xfzaxlAcFouluzJ+dZB/20kwVNzSV6omObzPmpJ7mlW7cneZ2Hav447d9TPem328xpr5WeRDB/9e3pv6knVdhWzzudnty2GMxgisqLG0ET1dLODHDkJQiLtEZymQEdT2lloMKqrEZAywIIk6nazHmrMJDZql/EZ3qDuxa0ehAic8LqbIMzbBo5b6eenNeiGE0yMdhqvbgeG3TeByb27e5Q89avCCdUdmGWlbFuT9b5dQdt1mnzW09iUad1PblSWteT/NrhG8UW9a7N2rz7b+rJU1/hPFCswWX10qyg5qwP36SoD6ai1zcLbOJSQO8VzZaE+u+1fszyT7KopKIV9WlGayarAWCRrdbFwGukGllwlSFus2CuGg4teMpW+DKxVMHfqB1xOFXZBJWs+gCvMgMbrfx2cHfd2D4x6k/s0ymfO611PbnSijoTHapVPYk4VgZAjOxINh31nIq04nSQ20TB6Ek1d/S6tCprQetJBYxd9S23RSsuSrNgo7mvtmNXACrzU7J5J/oqszlrRda86Ekvu9U5K7OVQj05PaIVe5JflGTdE7pbn2jxRkHXyncq72qVVsWPN+3ab482whn67mQBU2XoIpsy7CQOi2qFYgUEyGhV/Frp1wqtMb/aFTyu55Wdw6yHPk5t6Z2nTPd6h2CkYxkYU9FakVVN6wwUssBlzK+cVgYK3WV1pdW+t0Zre1vv4PPLJvKiJ09prcmaFx0X6smajv8detLPAbVvy4s9mYPv/PfjrvxaO+Yo/Diq0cpWz7DRKlDmHG2s5fJvmdPv0efmaOamWpuKKEEfulVhXAw0Wq/iTwwZmbpR6sPMdeq1p3fTsh/kEbUpc4mq0TCCKq792v7yVMeqECMP5GLAsva3LCSJ46rXiThmom5UtHKbcP0xELk90Q/QBAYFoljRYqBbyMXRNeNI5N7Zi2t1gio4i5/bRtL1ZngzLbpamZrWCBjJ+pWNjGyGymaMkVW7fmcuqwzc6P2PEaA24lcP9vU6NteTujbBCq2R11Pbk/oop2r2i7KbLTzktmjtCKkYD2Tjc3Xs6b+nJ9F2XcY9IyMt10pQF0OTypBlDtEybW4uYmNj4B/gz7/4JX1kzKqsSd+ACLVksUMV28xojaKdilZET7I2vJXVykzyVla9VxR5vp70JHoz1RgZ6dgMxdh1kZmViYz0DJQuXZp/Vc5dtbYgprkeWdZDBaZtZXfmtKKp23gwptX36R7gRFp1qloMWM5+XdOZ2ntGpm8bDido11pQ0TrNMT/0ZOslr77NyJ/qwYrRNDUKkCoQmh9+XC+/+7jKE8YqIKGS1RMwoFq2WNWx+J4sFsmAnlnM+q/oiTMIZmhdP9BmMUA1IDKj1hsW9ZGUmICc3BwE+Ae4L96sLMX0Fi2OoBFMknlXo+WByLg4082WFqrAqooSMqXKZJXJKBvcG0FPMiCi8kTiu57QisZt/x0yM8ciBiwCCWS0xYqF23+E1KZ4sV7CRqcFQFczt31j61k8qeDkR06r/96IluYXZedysnMQGBTEPxGdnZWF1NRkhNh/Llc13+V+wml0+n6dJm4ma1705DxSmpmRgdS0VHsmh/r0Qk8CqKSVk8OUcoXgaFe4Ty6Qk5uLjPQ0/m9wcDB8fH1BnxMxN2lA69CpvSPu0/5hWno60lJTmQcam8DAQPBqzv49v6cbLD2t2K+2CiQax3sqWnu7junmA2RlZSE3JwcBgYE2/kRaDVgZyarJZic34pfVptOx/l3+rUCdnpQ6zoOeyJ7S0tJQJKwIfH19eSyzs7KRlZONIFq8SsZWz28OcpGWkspaCQ0L4zGzak/i+LAYVu3JGx0b6UnMIIixS4uzIjAw+lzfhggMRMeq/5uyByEhwbwKs3tJ4/JewVAdPw8tMifCUF2n9LPSOVnZ3A//bK6vH3x8dbliO21WehqunD+HomXLIdA+4NJNWTFI5+YiJycbPn5+TrlkypMt57RJaOc3i37/PDGRHXqRMmXYEeVm5yA3Nxe+/n5OtcuULrYvDoQIwGSDaJ+JOTk5dl35stPIzc62/7J3LnwDAuRymvEkyOpgT2vf7hV9SY80YQUwlZGSjNS4OASHhyOoaDG3VL/KXqmZ3Ows/q16btflx4yBnKwspMTH8XdBRYrCPyjIoRlRpOSUFFsWweE99a25MqxtA+gNXAMTrsFNNCjnFoL7XHUiKFtvrrS0Eoi+FI3NmzYgJTkJnTp1RekyZbBn9y6s/WUN+vZ7BPXqNbDrToU2tV7Fn2eyyersV5Nd49fV4ERZZX7H1oJrZkAPujSaxMQEbNu2BZs3/YpxL7/OTp1p7QFe5XP4HQvzzsXWBORIgCsq6iLWr/uZ52G37r1QsmQp97koGotgvy4mAyAlJYXH5Py5SMTGxaJ9+464s1MXebuyuSOb71ZkVQzE9m1bEBcXh27dejr9o9ivFR+jB+8iCtebnLf+SRaonKboivJk05MWqkmJ2LljG9vTs8+N4fGksd3/515Enj2Du+7qiqDgYLmm7Do4cfwYfv55NYoWKYr+Awa79ytzSFbGx4qOnVPUlUcVrf4tIVZarkEwmmSqyS1+rpoj2nsxsZcQEhJiCzCyl/UGaRZwdIaSkZSExKgopCclwj8wEMUqVORAQsEt4dxZRP19iANtUNGiKFO/AUJL2Se4TqHRhw9hzavjcPuYF1G5TTt3kRXCZSan4Pyfe1GmXj2E6B2Hwjhtns2+ANL1kpOdjZObNyLq0EH+tM2Q4fAPCUbssWPISE5C+abNbG+LYMgDPbn1LaHNSE5G3IljCCoWjhJVqyHx4gXEHDmCzLRUEIiq1q4jQiMipDK48WbnNzszE5cjT4Pa9gsIQFhEGR4DsoPk6ChcOnqEZcxKz0DlVm1QtHx5G6u61Urk779h7+IFqH9PD9Tu1NnQJPUqIrB1ft8fKFa+AtsFAQX9kxofi0M/fI/0xESUa9QYVdrfxDYkEzA5OQkRJLvLDQNOQ7SpU69UPSpzZzkpKQkZGRkIDy8OBkaWaV29pNZvdnYO9u7djVkz30dYWBE89/wLCC9WHB99PBffr/gWs+d8hLZtOzoYsXGn/WSz3rPreRU9vpNK22yJjo5GWFgYQkNDHeAxJSUZJF+ZMmXtjTnbEU3YzL8cPvw3Ppg7Ezt3bsNPazaiRMmStlW7bpXnsnhQOTOLDvTcuUhERJTl2hMan107t2PO7OmoUKEixox9BeXIPj2Zd5I5u2rVSny1aD7mfPAZfvxhBeLiYjFi5CjXdo1AgIHTd5nngjlm52QjIeEK/P39UbRoMYdPGTv2WRw/dhRff/ODY0UtlVHUrZnTlw2uURD0JgZ4qKdjR49g3rzZ2Lp1M5Yt/xEVK1biRdnUdyfhyJHDmPDWO/yZ26OTdfFXX+KTjz/ETTffijfemCQHCB7GAGV/+RgrxRjgAAgyexYZ0tux/H3V1HamAmWgUesnJuYSQsiJ8HJe8MFWGNQr3N5oSlwcjq79GdF/H0JmWhoDgeJVKqP5wwMYJFz8az+OrFuLxIsXkZ2ehtaDh6Jiy1ZO0e39Xjl7Fn9+sxQNe/TE/9m7CvAokiX8x4AkQEKABAJBQiAEd3d3d3cPfrgdHIe73uHudri7uxM8wTVAAiH+vqqd2Z2dnd2djQB3L/N9915Iprurq6ur/pLuSemVVZ81JgSaog4Hx4xEiR694J6/gHGhMjO/kMBA7BsxFO558sKjcFGkyZOXjcaVlcvw0f8pKo36XbuZFZWh0mLK0bYKHn8KCMCV1SuRKms25GncBO/u3cWj48fx/ctn3Ny2BXWnz0SGYiWUdbqUT8JGJw/97u5dCDh3RmgTjeTp0sOnei24ZMmCDw8f4NHxY6B1vLNrJ6qM/h1e5SsaYI0Pjx7i6emTcC9QEGlz5ZHLuR49UpMXGhyM/aOHIVvFKshWpRqsbW312hLoef/wAR4fO4Ivr16ieHdfOMmUgzit4K9BcE3taqA3KfQcHh4OGxsb2NrYGJh5WobIyEhQZMaWIjAAvn79ir17d3K6rXKV6sK+0NgHUlYU0bARIx7R0dze2toG1hT9Eh4ak/qkVIJ0qRcvXogrVy6hX79ByJo1G+7dvYtu3dtj0qQZKFq0uLa90m42pu9pHApDk0zSPEU9/vbtG6xatYy9rpy5csPG2gZBQUHYv283IiMj0LRZK/21oXA98YrmZ2urpVs6Ls2VwI6dHf1dA0P++WcrZs2chs1bdyKFbHnr+gAAIABJREFUswvCI8IY7JGhMxD96Gim1dbGVgNYdIEXkIGk/u3kkTChk+fPAjB3zgz06z8Ibm5puS1FMNasWo77D+7jt0HD4ebmpunf1lZjTKVPNHgMck5orY0Javeu7ZEmTVqMHP0HPn/+xOFtAj7kyUrnRADFjvgkGSeC+EfzjgYiIiOYBuK7dlFEeqKB0LDvsLNLxO+wE/LkMU6fPoGcOXOjYKEiWkBy7eplvH3zBlWq1dCjmdad/qM110Z+tf1r1pLqySjSQnRxikKMECtrCYSFhrIsUy2aHuto3cLDea5K66obVrO+9GjT1SZ0G9FPa05zsBYcBNp7JE9Llq1GOvf0HBvzu3cXAQFPUb5CZZYP6Xi012hvE92iPHXu2JqBxJixE4zMVPi1GmBqrAe14EepvYoNbhUeFiKpQZB7CfqoXikCpBvXMHakCSNKQ5HGZqlpqwUIsggCnWaICAlBeMg3Du/bUnhHEDJS4KQIrG3tOEJAPSVKmozDYLQJ7+z8Bw8OHYRnqdJw9fFhIHBm4TzkrtcQBdq01Xrczy5dgN+e3fCpVVsHEGgzR4QhMjRMSCRawS6JPacL5JVoEd9D2AO2c7CHnb2Dxou0Aj6/eIEDY0agZA9fBghEE/VHfZC3bACEjLDok78/Dk8Yj+LdesBdjBYAWoBQccRohH8L4f6JR1Y2+oopKjyC+UN/s5EUgJKBjoqM4N8Rf0lJJE6aVDNHyUYPDyFwReH2QFxZIwCERk30lMWSWtVQecQoZChqCBA4PfI1mL1vOwdHrUJ7df0q9gwfgkKt28E1uw+C377Bvf174ZIpEwp36IJEDo5aMlY3b4TiXbvDs1wFba6e6CXZ4AUhxZEosdbIS4mLCA9D2OcvsEmcSCMfgvwoAYTIsDA2wokcaB01z9Mzp3D/wF7ka9aK6VR6gr8Gw5UjCPRYcWrJ3/8p7t27w54m5TSzZ/dh5UsKjvYneWtXLl3EV0qRfPuGtGnd4Z3dB5cvXWQvxsMjA0qWKoNUqVIjZ848OHXqOCu/cuUrInWq1Hj8+BGuXr2MZMmSoUiR4kiZMhUbrHPnziCE9kxYKOdAS5QoxZEIepQAQvfu7TFx0gzkyJkbhw7sQ8j3b3BN7Ya8+fLDwcERd+/e5rE8PDyQN28B/p24CR49eohbN2+wLBNt2bJ5w8cnJxu2rVs3Ye2aFaheow6yZs0KT8+suHnzOlatXIocOXKiXLmKSJfeA/nyFcSbt69x59ZNpjsk5Bvc06VH8RKltIDj29evuHnjGt5/eI+QbyFwdnZG/gKFeM4agDAVq9dsxp07t/D48UMkSZwEBQsXQY4cuXjeVHfx5MkjXhOK9hCthQoVQXqPDGx47965zR4iKX/6N83DK6u3Zvxo4NWrF1i+fDE2b1oP3979eU2yefsgbZq0WLN6Ofzu+6FVq7Z48eIF3rx+hZSpUqFChcpwdk7B49P6X7p0jiMn9DNFT/LkyY+kyTQpEXrIUJ09cwpjfx+BTJkyo3adBpy2ojakH2kutCavXr3EtatX8Pz5MzRs2BguKVOBwNj1a1fwKTCQZebG9Wt4/uIZr3uxYiVZljh3HhWN27dv4vkzf4SGhbFBzlegIEeVli75C5cvXUCJEqWRLVt2Bgmkx+/dvY0PHz6gmQDoCHj4P32CuyTboaHMI6Itc2ZPBif0vp/fPR7b0zMLR3c+f/7McyparIRWFqX76OWL57h8+SLvTZIBMq6FixTj9QgMDMStm9fx6VMg84hqMooVL8ERMFGH0ppRpIWiZF+DvyI8IgJp06ZF3rzE42QGW5aM+sMHfnj8+DFCQ7/zHPLlL4gMHhmxb98uHUBIl57TSNevXUVQcBBq1azDKQYCbQSonj55BNr7tMfz5S8AL69sDDQ6d9IAhGEjfme5I/kKDQ1Frtx54J0tO2yp1k6jKpQjQ4paRhIljm1bsX8JQJY7l1ZhYSF6pxiojQ5sKQMEJbpYuKOiQItMGzB58uTIls0HiZNocrZqePD+/XvYOwgpBnHDhIXh1Y3reHLqJCK+f0cix6TwqlABqb2zsyG4u2snkiRLii9v3oC8/MiIcGQsUgyZS5dB2LdvODF9CpKldUf+5i05hUDPjQ3r8Pa+HyqNGKMljAHC3t3wqSkBCABeXbuKp2dPs8Egw0H9JE+bTrt0ZFxfXruKgPNn8f1LEKxtrOFZphwyFKU0hBXXLYgAIW2evHh18yY+PLzPaYrk7u4cuiYjLX8IPCROnlxrSCmMf3z6VJTo0RNpc+fVvk4RhNd37yBLufJ4c+cO9+VRpCiPT2CGNvfzSxfhf+YMIsJCGZRkrVgJaQQv+/XtW3h/3w929vZ49/A+Qr9QKD0XslWuxr8jwHF//168un0TdomTME2BT5/ANWdu5GnURM/DW1qbAMJoeBQtrvs9bdqnT9kDD/n4gY14xuIlkS5/Ac7nH5v8J6d/ak2ZwX8j+h8fP4q3d+4gb5NmcHRLo+1LBxAqauXp8/MA3N6+lYENAUevchVZNkQ5pv9/73cXd/ftRVTod14TihBlLlWGx9cBhMrIVqU6QoO+4NqGtUyje9782t3gf/YM7u3ZiTyNm4HW0QAhUu7y61dOMWj2mxVev36JdWtXsTHIkzcfK953795h1OhxSJXaFaHfQ7Fq1VLGumnTpIOf313+r0nTFlw8OHPGFLi7u2sBQu7c+bBkyULOt0+eMhM5c+TC/ft+WLBgNntW/foPRtas3ti2bRMO7N/L+fDv30Owe9cO1K5dHw0aNua9vWTxQly9cgl9+/3G70sjCGS0lyz+C1u2bES9eg3Rqk17ODokxZEjB3Bg/x5UrFgFVavVEACCBhAMHToQzk7OrBxv3LjOOdyOnbpyweCuXf8wGKhUqSqyeHmx8iRAsejv+QyWSpcpjwwZMrKh3bJ5PV48f4Z8+QqwYTt79jRGjRqHrNmyMw9p/GcB/siYKTP//+UrF9GoUTNUqlwNe/fsxIzpkzFg4BA2Ju/fv2V+Z8zkiWHDR8PB3pGB2ulTJxhMkcG4eOEcrxR5/dT/uLEjkSt3bqRLl4GBCHnsLVq2hQMDfuDFy+fYuGENVq9aju7dezMA8MmRE+ncPRggnDl7CtWq1WAjEBDgzzzu1q03KlWuwsZg86Z1ePvuDTJ7euHtm9fskZavUAkVKlbRePhUCBcZiVMnjzFAyJw5C69h6tSuePjwAXbs2IKGDZrwmpCeXbtmJbZv34LlK9YykCG9O23qBNy7ewc9e/VjgBbg/wR3795B1arV0ahxcwaL58+dxpkzp+Dp6cVAdefObUiTxh3t2nfGhnWreR4EKCi6VKRocQR9+YI5s6fh9etX2L5jP0cDSE63b9sCjwwZmD8EIL+HfEfzFq25juXo0UNMi2cWL9SoUZvXK+BZAPz9n6B9+y6oKEsDEnibOGEsA7ey5Srg6dOnuHDhLHx9+3Pk6eCBvbhw/ixy58nHAOLw4QPo0aMPA1ER7FPaaufO7byuZctWgH/AU9z3u8f8IiDI0QHBGBKfr129hBPHjyFTZk8GJFRnkStXHjRr3gpnz57SiyA8fvII06dNZOC3eOkatm8Eis+cOckAkFJoe3bvQIoUKTF85FjmSedObZAuXToGCJSG2rB+Na9l/fqN4ZMzlya6ITfSUkNgLE0lfcdUzYVShNjCthxB0LSRB/+llOuKj6Q/yWdHyH39+tW4fesmHBwdmBH16jfSFLQJkQT5SNJxOYIg1iAIJU+UGri8ajmc0nsgZeYsnCqgcHbh9p04B35gzEgEBvjDp0ZN9tzf+d3Dp+fPULp3X1gnSoQTM6YhS7kK8KlZS5u6CPnwAUFvXsM1R07tFCiHrRdBELjyyf8p3j7wA3ngx2dMQ90Zs5AmZ24t2RRiv7Z+LeydU8DFKyvIYD07fwE1J0+BYypXDUAYPQIluveETaLEuPPPdqTIlAne1WoiIuQbLq1aia9v3xoAhBSZM6FQm3awtbfHt/fv8ODwIQRcOI/SvftxeF98Li5bAr8De5Grbj0kSpocb+7eBeXNC7ZsC7ecuRD89jXOLpzPYfFk7u54e/c2aE41JkyDrYMD7u3ZhWvrViNzqdJInt6DazIenziGisNGc8SFPPxjUyYja6VKSOqWBh+fPAbxKketOsjdqKletn1p7aoMEKQRBKpRuLl1s6ZOIndejuC8vnMTRTt143ls7tIemUuURKH2nbVzCvkUCPovmVtaBiniowQQvn34gOeXLnAtxMurV5Cjdl14VaysbUNRk12/9YNLpsxImycfPj9/xnPIWac+MhQrjrDgIOwbPRzZKlZm0Eb8jIoIQ8E27eHMqQRNCPvNrRu4vHoF16hkrVCZi0R1BYuad3Q1CJrhyePeuHEtChQohMqVq+P8+dP4fcwITJg4jb2aEyeOYdOmtRgxchzSuKXF7Vs3sHnzepQpU569rP79eiJHrtzo2KELHByTcs3F6VPHMH7875gyZSYIMJCy/vuveexd9elLBj8b5+OJlv4DhyL0ewhGjx7GhbhTp89huiiCYAwgUBTi2TN/DBnSHwULFuFQOu3fo0cO4tmzAFStVhNubmm0/CVg0rlTW3Tq3B0lSpbCyZPHsXzp31yYRd4zRQvGjB7GxV70dzKEpMg7dmiJcuUroWvXXtxXYOBHrFi+BOk9PFCrVl2OqLRo1gCdOndjw0bGdO6c6Wz4fHxysAEmQ03eWI0adTgdM2PGFEycOB3ZvMk7s2FPf8/unZg6bRZcXFJh/bpVHEpv1KQFg5fbt2+gX98eHDlJlCgx+vbphrnzF8HbOwd7wC9fvWRP2j6JvXa/nzl1Ev369cDWbXuRLr0mDx30JYgBwqXLF9C9uy+PT8byt4G92eD09O3LwHDIb33w58TpyJTJE58+fcTyZYvZI+7l2x+ptJEnDWvr1amKosVKYuiwUfxv8j6nT5+EMmXLozUVvUUDhw7uw9SpE7h2xMvLG2HhYfhr4Rzs3vUPJk6ewZ47FTsuXDCHHZwevfryKQsCH1RsSMCEwuvbt21mozrm9z8ZlBGfWrftgNKlyvHYFM2ZNOkPjk5s276PveV5c2dw2qx//8Gc/qL1mT1rKoODNm07cgSmQ4eWHFEgIJoqpSbaNWvmFI769OjZR0/nEUDo7dsVNWrUQo2adfHy1Qv079uT6SQbsnjRAgR9DWJQ4JIiJbZv24QChYogY4ZMmqJJgCMUZITJs+/W3RcPHvhh+rRJDDgaNGisKSwUjG5wUBDGjh2BMqXLo1qNWqBTC+vXreYIQctW7XDhwhnMmiGkGNKlZ6BNfCT5XrpsLb9Pe5XsVcNGzbgwdsOG1RzNGzlqHINqESD07jsQhw8dYF6XLl0WadOm09KsF4mWevKGhtLARljUVk2dgnRM4X3tMUfxb7p+jCc3NH/R/a9I+bKlf7H3QWFTekhZbdq8k70hcWXkbTWRBc1vP4gAQVjw8JAQLhAjg1Rx6EjYp0jBhuDg2NHIWbc+vCpWwuE/xuLrh/eoOWkKh67J87y4bDEbMOeMGXF67mzOLXtXraYh00gSlQGCGEEoUMigzow81GV1avI4VKwm9nVr+1Y2ovlbtEJKr2xsCO/t3oUs5cvD0TUNvrx8gf2jhsO7chW89bsHZ4+MTLuDiwuH/KnokFID8iexkxPS5MjJxvzaxnWcqsherQa8KlVGYrFKG8DlZYvx8MRx1Jk6Ew4uKdnTv7Z+DbKUrYBslasi9GswAp88hkvmLLBzdETQyxfY2KktGi5YhBQZM+Punt24s3MbinXphrR5CyDi21ds9e2GfE2as0d9Zv4sfHn1CpVH/g7bxEk4mnNx+WL2wPM0aqolm9gqAgQPIcVAa/vs0kXc2LweeRs3Q7oChRD+7RsOjRsNzzJlkbVSVaxr2wK56jVAvqYttMsj5YV0z6wRUgxZylXUYxe98/7BfVzfuI7rH0SAQL9/ceUidg7+Da3XboQDee2fP+HVzWuwd04Jt1y5BYAwDBkKFeVaDsqhU32KBhzokmRU6Hr/8EHcP7QfDi6pGLylyuKlV8JHipMiA2JxHnklFPalcDyF/ffu3cVKiABCyZKl2XBThXTfvr/xSKTM3797y0clKfJGCpK8pw4dusDRMRkfo7sggAyKIOTKTYWp0aw8r1+/ij59BsIrazb2winy45zChT2hFcsWc8HZwr+XMd84xXD5Evr2/w1ZvbxBRX6UYpg0aTqKFC3BqY6VK5bg3PmzGDt2IlxdXbFp4zr2fipWrqrL//KRUArN32IPlMK75MGdPXMS7dp3Yc/RACDYCAChfSuUq1BRCxAiwiPw8uULNmDh4aG4dPECpk2bhDZtO6BDx67YuGEte2EEcigUTOHc169eskdMKQYq5Js5Yyo2b9mJFClcOM9/5PBBVup/TpjCAEAETlmzeTOwpT727t2NXr79GJB1aNeC+U10UzqHIg3UP9cRCHpDCxC27+XcNAOE4CChBsGPoxGUcqABevboxMCPohpU0T575lTUrd+QHRWKtlIxXBL7JOjZsy+yiHVNwjgEEMiLHzJ0FPdF0Y9ZM6agZMky2qr4o0cOYfLk8ZgzZyEDBHrWrl2O9evWYNWaTRzGpznSvEkmKC3y4sVzLPp7HiZMnMEpDlo/Op0Q+PEDe/vHjh7WAYTSGoBADxnakyePYdv2vXj/7h26dGmHFi1ao1HjZvx3Agszp0/G06dP8NvgYQyCmjWpx/wcOXIcv0MnAGZMm8Qpnf4DBhvoYop8kKxRBIboWLt2JQOE9h27Mk3//LMNpUqV5SgWpeKcnJx4XUUvhdIelArguhs7Oxw9ehgbNqxBrVr1OCpAXr6oZCjiMWRwPyxfvl5T24FovHn9GnRcOW0adxw8uFcTQVi6mtMElC5cvXo5duzYimXL1vI8t27ZwCCLQBs9tHfpkj+KcJGMUg2CY9KkyJM7L9NUr35jAyCop8ikNQFSO2Ws8EfaWGwr/s5Y2sCSqAQV+mpqEHRHiXTjSEu55JToRhcvyKV2hCrJCyC0RQ8plAMHT0oKSvSPQckhCIUFKbekzQ8HfcH1Des4713utyGatY2Oxp5hg5AuXwHkqlcfRyaOh72TE0r3Hch/p/D3pRVLOURMoeaTs2cwQMhetbreWui5vmzIZABB/21e4GV1amgAQs48WpxxYdliDp0XatsBjqk0+WfK5VMo38rWjj3yLT0685xsbOxQuGNnZK9RS9u7uQjR98+f8e6BHx4ePYzwb19RpGNXjqbQQ4bo8vKlnGKoOWmadv7k6aYrUBDZa9RGFOXZDh/E03OnGUhFh0fh/aP7aDD3L+YPAYSnZ06iRLee2n639+mBLGXLs5e9Z9hvcMvuw/UAtF4UIbm6eiUXaioBhCojRiN90RLaeNSjk8dx5M+xfEqAABxvpIf3kat2PY4CberSAT7VayJ/y9Yyjhv+kyIIJbgGQQMQdB89ssL7B364vnG9FiCIwPPOju24vmUDWqxcr5WfqPAwnotNokQgw79v9DB8fPwYXz9+QOHW7VG4XUdYCcdGxXTBx6ePcXXdaq7VIHDkliMXkiRPpgfiqbCQZF4syaXw+83r11ixJk2alL2NpUsX4fexE1GiREm0btWElUuXLj0EedJ9xIa8Nn2AkFQACGc4CjF58kzk5lQHsEgKELyy4d27t9i2dSO+BH3hNN/x44fZ6M9fuJTfX7JoIa5c1U8xaADCDA4pE7i4desGJk4YhwYNmyBPnnw4d/YUChUuxiFdebDx4sVzOHLkIIME8lRPnDjKxYfVa9TCzRuSCALVE9iKAKElylUQIggC0KBwMIWOqdCSvPhx40aiVct2aNuuE6ZOGY+PgYGYNHmGopzs/GebBiBQkSIBhMhIkAFdMH8W/vxzKkLDQrF06d/Imyc/V5aLD/2eigGdnVJwaH/7jq0cBqcoSYMGTTgFoC1IiwaHoTmCQABBKFYVIwiU7vltsAAQAPTq1QVurq4YMHAo15NcungeY6iiXXiIxsSJk/CpB5INjYBq/q9eXQEgUAQhGrjnJwCEUgJAiAaH8bUAIas3vycChNVrNiG5kzN7ugsWzOGokG/vAbh4/iynfabNmGN4HBPAkaMHsX7tKrRu0wGly5TTGnEtQNi2F0+fPkanjq0Z+FSvUVv7zqK/5uPixfMYNHg4A1UCCLly5caIURqAQAWelAYivvUfOESXpROUIEVJ/tmxFU7OTkifPiPWrV2BMmUroEvXnnj96hX27duN48eOICj4C9evdO/eB2nd3bX2gqIQFOWi+gECLFS7sW/vbu6jWbOWmvsIBB5TumrWLAKUuzmtLXccKWWlLVIkgBApAITtW7Fs+VoGvps2rkWz5q1RrHhJRceTahCoEJWKSAlkDvxtGIMj7aPkg4syoBTQl/9OqSjQXKRA2r8pECK8xzUItON1Y4lGXJyGFAwovym2Jc+B8qaEdglBtWvXiYWSNryGFv1RpLCE/q6JIEgBQhB7hcHv36PC4GFaBb9rUH9koOKjOvVxdOJ4JE2VEiV69eW/Bz59issrl3IePH3Bwjg2dSI8ChVGrnoNYSVUNH+4fw8vrlxG3mYttXKhAwh12NOVP7SZl9etgZoTp8AtVx7tTC6vWIqv795qAEJqV+0eF7n2+cVz/NPfF5lLluZCSgqxk7dORv7j40c4Nm0ypyHkDxXClR84mI9GksJ+ffM6pwpK9OqtrdKnNgSGqIag2vhJPBeKOFxevRzu+Qvykb8HB/bh3t7dyNO0OacZqKBvR9+eqDtjDlJ7+zBA8D93mgECHfOjZ0e/Xshcqixy1a2PvcMHIZVXVhTp3J3n/Ilyv6tXIHU2bwYIUhlbQimG4aPhUUwHEJ6ePoHrGzegQIuWSC54XATykiRLBoqS7B40AM4e6VG6z0BtJCnwySN8fPQQafMXgENKAl0asLqqeWOUFIoU5fIkjSBQjYX497u7/8HlNSvRau1myb4UwS+4BoEAgr2TM1y9s+P6po2oM2UGUmT21DszGnD+HG7/s5VBU/pChTV3UHCPOqmmuwXoXgHxN5Qz3bhpHacMyPOhCuhhQwdi1OjxKFK0GLp1bY9UKVNh/ISpBjU6FE2gFAMVNLbv2IVDmMS38+fOYszvwzF58gzOx9JDEQQ6o927z0Au+Bs+dCDn9Sl/TsZt3ryZXNQ2b/5iVmRUx0CnGMQaBL+7mggChdoJINDz4f17DlfTiQMqVCOwU7deQ50hE7h588YNjBo5GIOHjER2Hx9OL65YvhgNGzXldARHEEYNQ9/+g7hQkvQCpxjaSwAChdDv3mbnglIvlJ92dHBEo4a1uCiOcsiUXiCa/160go2qXKGbBAgTpvLr8+fN4kJO8ib1quCjKTz9iWdEHiQV323atA4Uhu7Zqy98hCJH6sQAIEQrRBCEY7i9euoAAnnAmzatx9Ztezgkb6AoZIZBG0GQAYQSJcugdZv23FwXQfiLaztIiOhoJEUQjAEESkVRVIVSKRkyZDKgg4CeHkAQ1lkaQSAvvU2rJgwiWrVqpwWMdHyWwFXv3gORIWNGfYAQDTynCIIUIEiU3qNHDzBsyEB07tID+QsU5JqQkcMHcZFq27adOM0hRtkIaC1b+jeqVq2BDp268QVS9Lx59QozZkxmD75x4+actpo9axoKFS7CdT1kW7SRoNOnMHr0EN4TVIypGiAIEQSycVTLU7duQ9SoVUdffQtKkSIIrm5pUKtWHaaDoildu/myE6G4/jIZkCgsfVCu9j2laIGxtnIDJLSV1CBolJ2OU7redZeaiO+Io+j3SkaUqjrv3L6BlKnckD9/Ae3xLM2b8iSL/pjv3r/j4g4xgkBFdVQYRqcQqowZD8dUqRDo/xQHx43mqnfy5OjnpKlSSQDCE1xeuQweRYvxefizC+Yi+N1bFO/Sg4/P0XNw7Cj2+uvMnKedgAYg7IJPTWWAwCkGASCIBX7U+M6uHfA/dwYFW7VD6uw+iAoLw65B/VC8S3e45sglnGIYjuJde3KK5MIS8tx9kK9ZC64mpvA/ncSQRpeoX0oHuFBFsHDigPLmx6ZOQvGuPYQiOQ3pUoBA/5YDhLML5nAhZPHuvfgCodc3rmF7v15oNG8R03tnj+aIoQ4gRGN7P19kKVWGUyEXly/hNEHD+X+zUSRgdXrBXHhXrY684ikGQW4W166GqsNHMUAQ15vuGLi2YR1y1K6DTCVKsZGj44jJUrtyzcatLZtxfvlitNm4jU9PUFqJIgGUjinTpz+SuunOya9q3gglu3bTRhCk8qQBCJoIAgEEUZbf3L6J9e3bouOefQw2aN3puKRDihTIUbseQoO/YP/oEfAqXwHZKlXFqVkz8OHpY9Sf95dwRE0js1SoSqcY8jZpDjeuXTGM6QV//QLX1Gm0W2jL5g3YvGUDh/6LFSvBaYAhg/tzyLV4iZJYtmwR1qxegYkTp3G1NkWprl65zHz2ye6Dfv16wssrKysVunCF9uHNmzcYOIwcORZlylXg4ioy5JRvpTy/tZUNevt2QZs2HVkp0jG2CX+O5VTHggVLmS2UBqQahD79BmqLFDmCMHEGihTTAATyxujEBBVmkfGpU7c+ypSpYKCo6Kz36lXLsGXrbi7aoxz2or/moUmTFpzbFVMMPbr3RtnyFdkwE0Do0K4lp1l8hbP9Bw7s4Zx8h05dUaliVY5C1q9XnRV9+w5duBhs1Mgh6NbDlwsTCYTdvHWdIxZUKEhFmeScbN6yi0PGpIuOHT3EoODPCVPhliYtFs6fA7/79zBgwGDkJJBvZYVzZ07BLlFifP78EW/evEHzFm14HY4fP8Jpi+bNW6NQ4aJahX727En07dMDa9dt1aQF9ADCPQwaNJwjKcTnXj07w83VjSMIVKDXtnUTnkvXrj15jV+9fMHeuGeWrLq6DnmKQQAIDx76YdqUiVzsSgWS1D/VDtD9C/MXLOETF/TLtWujFlU7AAAgAElEQVRXSACCk0EEgQpZevfuhoIFC2Po0NF8lJCKSk+eOIbiJUrj6pWLfCy1desOHD0RDacUIHz5/BkjRwxmeZw0aSaDxg8f32PK5D/ZCDZs2JTvvNCLICgBBIkBo3s4qP269VvhkSEjy+uAfr042lO3bgNOW1FxJ50yILD6x7hRfKkeyTwDRgAP79+Hr28XliGSm6dPHmPKlD9RqFBhjmhpTt5oti7Vu7Vp3YRrTAYOGsYnXt68fcVtMmXOgiuXL/KpmCVL13CtiTaCIAAESqfNnj2Nx+7l25cLVSnFQam4+vUbIYm9PTp31BQpDh/xO0d7KMJOKQkq0kzu5KRkak3/TmpulaIPxtIHSsWKSqZeIfog3INgbDSRImXgoOW24hkFc20Nx9QUKeoAAvVARWVn5s8GFaOlzZMHARcvwNXbB0U7dWWP/eDvIxk4lBCKXghAiADBu0p1zk0fnTyBb/tLmzs3K3+q3G+8cAlSZPLEm7u34X/mFBvy9w8eILV3Ng6HUxU/GeiXN67h+cXzoMt8rqxdC+/KleHk4cGnAOg+AjqWd2LGVI4iUM3A82tXWfE0WrScj/RRDcKB30eiRHdfuOfLjweHD+L2jq0o0LINMkjOnOtDLcN/if0U7doD6fMV0J5uuLJyKd7ev49qf0zkRgwQ1qyAez6KINTCk5PHcYzyfgUKwNElFRcxfnr5HLUnTtWkGPbuYYBAwEMbQejfG5lLlUKuOg3w9cNbbOjUHs7u6ZDKKws++gfwfRKUFsjTqDHe3b+PgAvnOFR/ec1qeJUtC+cMGbmgNGulynwqguh5cuoUMhUrhqB3b9n4Vx3zB9zo1r7ICGzo1I4LTynKQsWjn549Q9FOXbiWIPDxYwRcOIuQz59xbdNGZChcmAsOU2TIhOzVquPT8+cMIik98PrWLThTMaunJzIUKwbXHLlhY2uH3YMH4N19P2SrWAlv7t1F6LdvqDR0BFJl9eY6EDplQqCC1jwiLAxrWzVF7rr1UbBtB40+iY7Gk1MnOFVTsFVbpJQUiUp3NJ1ioHsQxIe8sWnTJsI9bTrOybq4uHDVOSnz+vUbokjRkpynpqr+AgVI8WnOunfo0JkrzIcOGciFdHXq1Me3kBD22Mggtm3TlC/pyZ+/IMsaFew9fvQIVapUQ+OmLTBi2CD+pgnl0qlwKyIynCMP5IllzZaNaSBPn3LSBEx279rOhqZxk+bo3LknFxjTE+Dvj+nTJ3KRHoWElTyfM6dPoLdvNy48o1MVVHRHRwypmpvqB+go4Ijhg/joW4UKlbjOol37Tqz8KapBVfqUEqBcMhWYkXGmsDSdMjh96hQioyLQtGkLVK9eGzOmT+I6DjpOR/lkKtqkMcgDJCCwfftmLhCrWrUmp1cW/z0PBw/uR7duvuzlUa0EgQiqxqfiRoqOUK562vS5XDE/buwoDo9nzJgZu3fv4FMmFN7mi5eE58njR2jVshEXnpYoWZr5X6hQUY7SUA6bIg7EUzI0ZEQpYkIX6xDQmzt7GlauXA5v7+ycQycPt3bteqhdt4HWKaJoIZ066NK5LYfpx4z5k71xjujQ5T0njyMv7X86+hIVjQsXzzG/aFy3NO4YP24UA9FRY/7gaAmdHiDaXr54wetN91zQKRdKx1Con06SBDzz5ygX1XpQCoL47JbWnflM8pIpoyefMLh9+xb++pvo9+EU1Pg/RiO7Tw6uCaCbB2mtCJhSv3TEkWTbPV06TJ06GylTpeZCyEkTxyFzJk8M+G0YG17xUrzr16+hX9/uzBeqB/n86RPoQirK6det14DllWoTWrZqy9EFWm9aGwLeVDdED6UwqOiUanUIAFFajwA31aMQyKhWrRbXBNBDIGPXP9sxdeqfHHXL4JFBsx51GvAJCIpQbNmygcFdzZp1+TMA48eP4SO0I0eNReHCxXH82GGOWCROnJjr7Wgf1qxVj4F5wNOn6NatPV+eNXHSdJ4/gaClS/9iEEoAWptWEkCLnv+slHtWExFQ8445oCH5u+IpBrE0yzCxooME9JPuszSa2ejayWesG1HnKevPhNrSOVtSRvKLNMgIk6EjI5nSMwsyligF+xSaTfv07CkkSmLPIXV6Qr98xps7t5AsjTtSZMrMvwt+8xpPTh3HWz8/ODg7I0fd+nBK58Hn/ym//+LCBS2BIn2eZcsjBSHZO7fw/NoVvmBJhEmUV0rlkwPutFHpfPPnQPifO8sX6iR3TYNs1Wpoj1SS4Qw4ewpp6Syuqxsf1Xx++QLfR0B5bMqDG8aPpOk5DZ8iw0JxZNKfXEfANQHtO3EV/Zvbt7jiP1PJMjwHMrRv79zmsVw8PdkBeHn5EgIunkfSVK7wqlCRz/RnLlEKSVxSckX/l1cv4J4nH+ySao6B0pFEJ3d3LrqktaBbDh8cOsDHJtPkzsMRj8TJnTnNQGmSl1cvczGk+JB35JwhEx/3pCfsWzAfBX118zpfV0z1DZRuEC93of7u7tyB948eIJFjMmQpVw5uOXNrah4C/PHyyiV8DwoSZEwzCqVo6EgjXV704PAB3diCb5++QEGO1NDVz6R0Hxzcx+tDYDJT6bJw4stPgKjwUAScOQ2nDBm5aJNoenv/Ll5fvYpcjZrysce7O//Bs8sXGDhyJCa5E48nl386OaApUtQ8Id+/g/LzpNwod0+e6K2b13Dt2lU+dkjK82twMB/hoiNZdMdAyZJl2dulJ4CiZQf3sTIjBU6eMnnGD+77ca6e7kGg8+5UeEZGmSrm6djii5cvsG/PLiR3Ss7GkozUrp3bkJpkwiUlFyXSQ4aZFBid0SbDTQ+FY3Pm0JzSoflQP5Snp3SF0kPg6eD+PeyZk+HKn78Qbt+6zpFEKqjLkDETLl88z0fnqPiSFGjKlCn573t3/8PFk8VLluaK+2vXruDShXN8/wHdj/Dq9UscOLAXZcuU53QKRR7IEN25c5uPVZYsXZbP1VN6hX5HBXn0UGHbq9ev2AtkWXFKjgIFC3NInYr1KMpBxofa0nXTZDQ00ZuLXBxJvCDDRwBAvDtCOvejhw/iEh2hzJyZjcnDBw/w8OF9foWOpdI6UcEd3YdAT6pUKbkyn8Y4f/4s6NIhSv3Q9cl074T0MiX69sKuXTv4oix6yBMnoEd3FNA6Hz16kA1kqVJlGLjSUTvKw5NnTXx48OABt+M7IvIX4rsbxPWmokQa0zlFCr4jgbxy+t4DgQYyyrTXKXJz8cJ5PrFAnjzVIdCRz4CAAKafaKUruYl+KhIlz5hAIdWMUCqKxg39/h179u4CRRrooXGpHzp1QYCVHgJJtCZieoB+R0dQKS1HoKRixaocdTl75gSfpiHgQACD6jzosqUyZcohu09OvVQR7RPaG2S4SYYopUV3ZlCfxAtaF2lqiU7gUGqLCnmjoqKZB7SH/O7d4T1LvKGnWrWaePjQDw8fPuR/E9Cn1AcVx9J4FN3iVFzBwkwrFRivXLGU14ePMLun44vC6C4LSpMRf+jYpRR4csfGjLvizpP9Mp7aSooUxQHlwW4d5RoapJ6/JjsswgNND8rxDKW28pTDB7pLP1FireEQDbLYqzzmIA/ySlkmj3ko9WGO76bGV2orTaDEB58IiNCVz98+BHL6hI5x6ngvPVciluhJP2GttK5SqTS2rhrgZ+qxlE/6fRkfV3nHSCVJKfIlzkm9LOpk2LAtRRieX7zA4CiVtzefPpEecdEW6UZH88eCUrmk0n5kRjtPNZvX3PKYWgBLvQZTW51AU1QUe1NkTOm0AylOUq56jzF61Si62M7V+NKa3tJxzCdVSj2BT5o1MbcH/p/4ZIofvxifJCkGqQnV34H6xl2+B/WNh76ylcqF0sz121IYlcJ6iRLZ8aUWuhbytlJp0vwsH9e4VJpua3xMufEwlGh1bUX+6QMp83PV8V3/1ImGDl1v8lJXuV6Xl4bKIZ0ALrhbU6BBbGdqXWXQgUmTxpnMy4ScOkt4bLks6uhVbqtML3kK5L0mSpyEPb44e8wpi5iABhXEUXHe8uWL8CwggEOnbdt31rta1gAoyEVOKTyqYtwYv/KT+GTW6MXT+iTwKcYciP+G/0ZZNMEVyceaDA2n1FPS9KHvI0tNltLfjRc3yosVdYr5y5cg0BcWzd3XrUSNPtwwPmtj+ssUiDUnWXHRVkA6wlDqZhNTeYwLeo2lyXTgjERGKaKkWT0pfJDDGH15MuS+8bbmVkopoWO8jXk+WXHOk67uSEapB1MLIt9i8tCLOYMiCr0SXja2NTWYzDg7pX0JP1PhI30rgT4LTakNsejOgDyFttp3jM3VFJ1iY8W24pe5lOJVYkPpN3ilH3wTOpR+R1fvm7oCY0VQrJVZCSHaucq/l6ymrfDlKFoIpW/5ytdV+xUymoOkrd6OMTJXaVu9hZfqEwv4ZLBLZW31lJaM5xbzWCWftHIikYlY80lukxTWVesvCeMqfTdbuwF+Np8kmzMW8iQrUlTSUMY0nhrTpOYd6ZjRvB++h34HXZxiWCluXvlbOqL5Hn/wG+pwgQREqHHXLOrU4gkr9y5V6KKVkio82TDSDS7/+LsITM2JolpDaMoQqd0CTIsV4x9bGzu+4Icf5QybxTzV6l15rkzNckvYrRcEsrStlE8xnZfSmqn9nR7aMAHrxe86axU4rYMaTSAabMXDW2bWTNJWFZ/M0GPwZ4X+tQBDTprexI3E843N9Rfhk6q1VpqalE8SPsi/9a16Qxlb11+ZTwq0mZQnc3zSCbSFn3tWwyS1GtbU/pOOI//GvCW6VpledbNQ95YyNfr0m/ZZlcyrGjdLtAKm+SGnRM+GSUGmpBvt6NJP5gp/16ppYR9ZshpqdYDJPmO6LDFtJzW2MZnsv23cfxu9eusTA+K5iSlkaWTRtUPFdMwYClZcj6uW/AQ+qQs9xnR9tCKodkEkchnTMVXsHQsBQgyFOiaKVa9NDDawSWukdhGU3jPXVsngx5oBqmzmjx85fueV0Pt/jQPm9o5apyEu3osLRyYu1icmOkYcN67bqp1PbNZR7Rjy9+J6rmrnoPa9/6Y8GflYk8JkOdQpMkvJFMm9XmPvmPu9pdllUzlJc8Jorq0pWtTRqUa81LyjtF3MzS5Wf48JUab0llpiYjOu2jHi0r7Eht74aBubPk2C6tg4B3yXskI9ipoFi++2xhimxikx1VZtPkfKg/ieqzF+qxn3Z/HJyLjalKQaGfqRPP5v8Ul2k6KlzP5vv/8reOTqYMh/ex0SZhdTDsQGLaj32NTJqBpaYmNw47qtGoBgDDSpmasJY21QyKLGm1YL4P6NfFIvi/qciuu5xobHP0Ke4p5PVmGhIbqL6S2NkpjbB+b+HhNPTk2fsZGLmO5bU3SZo9nc3xP4pOHAv5HHcS5PSsVrstCNUT7Fpq3hRHTAQBhQcVxTY6pYVMViMwkt8TLXuOWTjtoEPqmDunHApxjJohlFa1QWTdEryHiM26pQ/jGaqzoeCx9rUrdsZpW00I1Rj0KFIYyXtiqmpziuCnqNdq2ibbzMNabjqmhHc/2hfBJoijM+SeeoYr6xmavlbc0QFFN6TdpgXaeW81hFWxWb48fySUNzvMzVFFARIgLqIi1SppnhsUmZiI08JfBJuwoqePxflifLAIIKJaVCJ6gw17JXYjpuTNuZc2zMzcCYIVJDj5p3LPFKY9OfuXnGJZ/UjKWsOy1taf5WNxWgXd2gEuZbtA6yl2X/NG1oTLc1Tfcv0DYO+fTLz9Xi/RM/8pTAJyMc+H+SRSNztQwgqNOKCW+ZuAIogTkmOGDRhlTBybjuz2DI2Azwb2v7b6PXYusbR16JCrn8pbyoBD6pX7GftQfUU6j/ZuzpjT+AEHvaYsaVeB6X7qmnj8bQ9br0oRl66At7EZGRfB2t9MMrqiYQz/T+bF0UHh7OnySm67OTJLZXd5ZYiWgVfKIPGdHa2NjY8pfStLdxqmhrNKzws9rGVHhU0Rsbj8nIAKrGjeO21B09Zg8MKIyrit4EPsX/ddJxLBOq8Y4RmUiQJz2hNw8Q4n0jxWYTxkNbWZd0hwrVl9BD4ODp40fYu283f12NPltLz53bt/DggR9/Wzy1q+5zv6p0vGqBjoe5xmZtVUwuJOQbfx2PvmBGXwmkr/vFl8KJiAiH3717OHhwL385ka4Itpd+FyE2c41NWz0+WdCRwav/krYq5ML8KxbM1aCzf2Nb8xxRfuPfONfY0JzAp5hyQF07w7UxDxDU9fyfeYs+sxry7SuSOznxN+qlT3h4GA7s34u/Fs5Djpy5+Dvf9KxdswJ7du/E4CEjkTt3XpMeDX0alTxdZ+cU/BneX+WhiMjr1684KkLfUY/JQ58xpU/0Zsrkyc3fv3+HpUv+wtkzp9C2XSfUq98oJt2qakMfGNq7dxeWL1uEOnXro2XLdkiaTPP56l/xIbD56NED/jzzf+IRvfk4nExsTMnPahuH01fd1c+aa2zGVT25OHwxNvT+rLZxOH3VXUnn+ssCBDJY4fyFPH0jLZ+lUsEWtSUjTOF+ecifv7qXKBF3ExYaChtbGw5J00Oh8BPHjyDw40dUrFQFqV3dDJj68cMHzJo1BaGhoZg4aQb/3d//KfyfPOZv1ku/8U3fbae0gwgEvnz5jN27/uEv/lWpWoPD4NJH/CpgYtmcxflQP9J3lD5oRfOmd+hdvb9rvziYGPTddClv6H3/p0+wbdsmVK5Snb+JLn/EfqXfU5e+Q+Bg//49ePToIfr1H6T909Url7Bg/mzUqFmHAQKBLCsra0P6+B4uzboR3ebAE8tHOK2lTj5evXyJKZPHwzt7dgOAQAaZ5i39/jwRSb+n/5i3UdEICw8D8V/kHdFD/8nbUVv6qFh4eASvMb0vyiLRFkXzsKZvNViD0izUvzgnGu/CuTPYsmUDpkybo3rjxuuL8WDgjdFreTV/vM78l+08gU/qliaBT/HHp/gHCDGAXtevXWGDFRYezsq3YKEiiIyMwIVzZxH8NRgZMmREkaLFWbGfPnUCZBjy5c+P/AUK4+WL57h+/SpCQ8MQFR2FXDlzwytrNrx5/Qo3blzH+/dvUbNWPRw/dhjPAvzhnMIFpUqVQXqPDLh44Rz+/nseH4QqVaos3N3dUa5CJTg4OGpXQA4QPnx4j1s3b+DFi2eoUKEK0qRNi/fv3uHo0UNMOxklJydn5MqVG5cvX8SyZYvg6uqGkiVLs6ddoGAh7v/mjet4/Pghv08PheTTpfNAQMBTXLt6BS4uKfm/O3du4c2b13BN7Yo69RpwqoMeAiwP7vuxVxoaFgpHB0cUKlSUUx6UArl9+yZcXFyQI0cuHDiwD/nyEb8Kcdvnz59h3ZqVOHz4ACpUqIzMmT35b55ZvDinf/LEMVBkhcZIkyYtChYsDOcUKfSkcveuHQwEnJ1dULdufSRNmgyVqlTDrZvX+fflyldC5kyeuHHzGq9b0aLFkSdvPtja2jEwIJ5duHCOjT4Z1GzZvOGTI5ehYY4Grl/XyEd4BBleWxQqVITXTwcQfNCyZVuOIBA/T506geCgz/j2LYTpKl68JJIlTwb/p09x7doVpE6dmtfo1q2bePfuLTJkzITatevixvVruHr1MveRL18BFC5cFDa2tgwYiKfPnwfg69dvoPRG2XIVmDckD5cunsf3kBBkzeaNgAB/PH78CI6OjswDkt1Lly5gzqypePHiBbp192WaihQthlSpUqvb6T/QmKsjKOGtBA4kcOC/yAEZQDCDxWJg7LVMU9n28qULOLB/DwoULMyK+OqVy0iWLBkqVKqCTRvWshFp3aY96tRtgKioaGzbshH/7NiKUWP+gFuatNiwfjXSp8+AZMmT4+aNa2zUmjVrhcjIKMydMx1+fnfRt98gfHj/jkPg586dRuHCxdCjV1/43buLBfNncZuKFSsjrXs6lChZGvb2DvoAYeYUNsIUQXj58gVWrViK8+fP4PdxEznFMHfODLx985pp/vD+PQjw1KpTD0FfvnAI3DlFSpQtW56NRe48eXHf7x6Hx/PlKwhrKytcuXqRc/UdOnXD0yePsXDBHCSxt2fQQgWRFMYnHg0aPIIjEWSgCBSdOnECWb29ERUZgfPnzjIwqlu3Ia5du4wpUyagUKHCSJY0Oe7f90PDRk1QtVpNnhelFrZs3oB9+3bzvLN4ZkWuPHkYoMybOwM21jbI5p0d7969w40bV5EnT36OBtC6iA8BtcmTxjNwaNSwKRyTOqJ0mfIMEGbNnIJs3j7IljU7AgM/4syZk9x27LhJ/P7Xr8H4a8FcpEvvgZQpU+H+/XsMgho2aoo8efLp7bsrly9g397dKFiwCANAilAQwGrXoQtCvn0ziCDs2L4FT58+4ahIcHAQzp49hZw5c6NR4+bMl78WzOG0Cq0zRayIN+fPn0XX7r143u/evsGt2zdhY22NfgOGaAz8xfO4fPkC3N3T87oQ2KRIwYiRvzOPqM9bt26gVq26cEyajPl77uwpBggtWrblNZ0/fxYePriP3n0GMnjIn78gA8D//qNSEfz3GWFmhgl8UicCseFTbNqqo+7XeStmc43/CIIFHKLwv2+vLqhbtwGq16jNYdqTJ49j9apl6NqtFyhk//df89C0WUs2buShL1u6CIkT2aFxkxYMFO7evYN+Awaz0r1y+SIW/T0fdeo1ZIM8d/YMnDp1HFOmzka69OkRFhqGRX/P47D41OlzObQ8c8YUfP0ahB49+iBNWncD6uURBDIqmzdvwM5/tmHo8NEMEOrXq46qVaqjW4/e7IGfP3cG6dN7wMHRkWlwT5ceHTt141QDecyDB/Xjorq69RqyN010k1GlOWfLlh2zZk3jftq37wIvr6wMTjq2b4X8BQpi5KhxDEKWLlmIzJmzoH7DxlzWvWnjWpw5dQK9eveHm1tadOrYmmsLmjRtybTQ/KUG6eiRQ1ixfDG69+zD3j09x44ewsQJ47Bo8Up4ZMjINGzdshGHDx1Al2692BOXPh3atYR7unT4Y/xk7a/JgM+ZPZ0LOAlU0Lps374Zy5ctxrIV6+Dung579+zEoYP7MWbsBAYO9/3uYuHCuey1t2zVVpsCIvno27sbataqyykLjiCdPoEVSxezQffwyCAABIogtMOXoC8YNLAPRv8+nnP9oaHfsWPHVgZXo8eMRyK7RJg+fRLLWdv2neHp6cURhMYNazMIJTlL6pgUJ04cxYrlS9C77wD4ZM/BNSje3tlRrXotBggU0aD1WLFyPUddtm/bgk0b16Fnrz4oVLgYpx5mTJ+Ez18+Y9CgERxpmDx5PNdmbNu+14IdkvBqAgcSOJDAgR/HgV8GIJAS9ff3R/Nm9VGpclVt6Pzjxw+cCmjVpj1KlCiFaVMnsMGg0Cx5foMG9Ma4PydzLnrk8N/w4cMH5BRy6EFBXzj836Rpc9Rv0IQL5o4cPoC167dx6JpqDtavXckgZPLUWdyfpQCBlmrnzu0c3fht8HAGCGSUyIOs36AxypQpi/QeGZlmCj/PnT2dPc+OnTUAgcL7nTq0Yo/YydmZVz7oy2f2ops0a4WqVWtg9qyp7N0S4EjjloYPArRr25x/njh5BnukBKwITFAUhZ4XL57jeUAARo0Zh7xkaFs0hHvadBg/YapiPl0HEHqjaNES3MfokUPh7/8Yy1as58gGjUsRnlmzprJxbNGijQwgtBAAwhQJQLjMURmxBoH+cOjgPkya+AeWLlvDwGPQb30Q4O+PgoUKc7tvX7/i7p3bKFm6LDp06AJHoWiSwvWtWjRE+fKVkTSZJrVC9SIUISAgUaBAIQYIFK1o1aodzp49jcmT/mB5opoLqhl48+YNg4D+/Qcji1c2TJ82EbY2Ngx4Uqd2ZT6XLlUIvr790LJVex7jwoWzmDF9MstcqlSpGPAksXdgcEPWP+x7GPbs2YGRo/5A5cpVcejQAaxauQTDho9Bzpyaeo6ZM6dw+mfo0FG8/kTnmQSA8OM0XcJICRxI4IDFHPhlAAJRTp42GbpVazYhSZIkPBkqHCMlTN4uGXDKdW/csA79Bw7G+3dv2fsnT5vAQM/unVC8RCnUqFmbvWgueouIQAqXlHB2duZQPeXZ10kAwoZ1q3D8xDFMmTKL0xIMEIKD0KOniQiCJMUgAoSNG9ZikAAQXr14gQ0b1+D0qZMcISherCTad+rCBW0MECQRhCtXLmJAv16YOXshn2zgOUdHMe0pUrhwjp4AAhXPde/eG25uafidDu1acC3DhEnTOYw/Yvgg9Ok7kI0ePWLxHdVRUIqEAIK3tw9Gjf5DUUg0AGGREEHQAIT27VrA0cEBc+cv1ra5e+cWZs6cimLFSqB9hy4qAIJ+kSI1OHxoHyZO/ANLlq7hkD2BwgIFCjOQ0zAAfK9E8uTJed3F4j5KL/Xu1YU9dfLcNbzSfImOikMJWIgAoWWrdti6ZQP27d2FPydO0xarkjxZWVszGKAUlhYgdNUABErXlCpZUAYQzmHmjEno2tWXi1rp1Er1GnUk6Y9oUHTD1TUNHB0dFAECRYQIIAzRAwgnsW37Pos3bUKDBA4kcCCBAz+CA78UQLh39w7atG6KhX8vR4ECBRXnT+H0UaOGcPiZDGP/gUOQMWNmzi8PHODLYWLKzSs98+fNMgQI61fh+HELAYLsFANFEESAQGfwKVJAoXI6ekenItasWYnadRqgarUaBhEEKizs2rUd/vhjEkrQPQGyJzg4WBNBCA9DNwWAQBGEhw/vY0A/X/T07YsqVaorzp0AQnZvH4y0ACAQPx8/eoSt2/do+6TCvb/+movyFSqhUaNmqgDC/PmzUVM4xaAEELp1aQ/nFM7aUyHGBP/evTto37Y55s1fzDUq8kcsUsyWXVOkSJEKWvMtW3chuZMmOiN9gr4EaQCCrS26dO0pAIQIlCpZAL6+/UEggx4CJiJAoMgF9dmkaQtUqlTN4LQFAQxKwayURRASAMKPUGcJYyRwIIEDcRT3IjsAACAASURBVMmBXwogkBfWpFFtriifO38RRwwoDXDn9k1Y29hwIRc9q1Yu5Vx4zpy5MGzE71ykRoWFSxYtwIEDe7lYjHK/iI7mHHXy5E7IkTM3/lo41yDFoBRBCAz8AN/e/blIT/4oHXOUphjoZMLIEYMwfcY89lopRbJg3izYOziiWbOWmDNnBlKnSo3OXXpwxILm3LFDS450EDAiWun4JdVSUM6c6DYHEKgIbtTIIXxyYejwMXB1dWV+HD60n71cqvBXAxAWL5qPnr36ccEePRStGTliCJYsW828j46K4lqB3bt3oGs3X/jkyKkPENq3RArnFJg2Y67291SDYAgQ9mPixHFYsnQ1MmTIhNUrl2Hx4oUY98dELmykhwo7ae0p9UK1JvQQryjaYO9gjwULlrJ8fP8ewic76JhhmjTumgiCcMyR1qp9u+YoV64CRowcC2trG3z+/IlrBmhcOjUwTUwxyCIIvXz7oZU2xSAAhG6+XOxItFPEasiQkdo7H44c2Q8Xl9R8WkUZIEwVIggjNSmGKeNx5PBB7Nl7VP84alzublV9JRyJUMWmhJcSOPB/yAGr8LAQCtIqPuKZhpicM41p24sXzmLQb32RLGky5MiVG58/feJq/G7dfLW5aMrbDx0yAN269UKx4iW1Xtyrly8wfNhvePYsgCvVyZtLlTo12rTtyP1N+HMsV65PnTYX+fIX4CORlE9/8vgRevcewOmJFSuW4p8dW/jYGhXUUe7cwyMjK3EK21NtAeW1kyROwimF1Knd2Fuki5LIC61cpRpaNm/I7emkwMMHD9mgkkfrnd0Hi/5egLNnTqJM2fJs4GrXrsf0UqEihdKJri+fP8MtjTt69xnAf1s4f7YmgtCjN/LkzosnTx6hT+/uXMMwbcY8pE+XnvPZEyeMReLESZDFy4ujGGXLVkS9eo3w8uVz9Our8ZBHjR6HLF5ZuSpfrGul/6dTEDOnT+Y6CAIVBDKqVquFMaOG4vbtW+jSpTsfKzx9+iTKlauEGjVqAVb6d9yO+30kDh3ax5cikVGnIso7d25j6eK/OHrSvn1n9tapQJEKO7t399UUZgLo37cHv0tj29ra8DyoriB3bv1TDJcuncPAAX2QLGlS5MqdB58+f4Zn5izo1Lk7rw1FN9K4peV6AYombdiwBrNnTUPGjJl43pSWoiOyJBMELAi80fg9e/bhGg46wUCyVbJUaa4XoBQPnfBYt24VFy02bdoSN65fxZw50/mII12Y9VGIGE2eOpsLRqnYk4phO3bsyqdM6OQG1c7QCQmKbhUrVhLbt23C1KkT0bhxMy4YpeLTQoWKmVZBMdmIYo8GbX8AMIhTei3Qzv/GcS2Ynt6r/8a5xobmBD7FlAPq2snWxmwEQfq+sZ/lIyuBA0vaUjHa8eNH8PnzZ44SFCteSluTII5FRpaMh/y2PCpao7D+y1cv2LAXLVaCDSMdM6NiNso7U31Cg4ZN+MgeHTWjew8ISND5fjoOSVXrpNQLFSzCx/2o2p3UKXnlVNn//v17TpST0aEz7HTNMnm31C9dNESRi6NHDvJRPTK4dOeBl3BjHtFw6uQxhIWFo3TpsvD0zMJGk4oKjx47hI8fPiJ7dh+ULl2OaSXD/eTJY552unTpkD9/IaaPjkwSTSmcnVGjVl1+19//Cd8LQbn4vPnyc3GitZU1Dh3aD7rBkR4y3DVr0vG7pHqflKJKfjKONB7dC0DzoGgG5exPnDgCP797mvP6RYrCy0t3+590XclQbtmynvlQuEgxjsDQ1cd8cZO1NacF6Ge6b4A8f3oIbKRLlx7fvn1jntG9D25p0qBYsVKaIkDxE9NWAF97DTBoOn78MEcDfHxycfEqnbCgOwvevH6NaEQjq5c38ubNz3Jz7fo1ELCICA9nGigqQfc68H0K/k94DDrZQadALl06z5ELOrZIwCOtuzsbe5qTg709p7Yye3qxLFHxIh2DJABL6QZ66BjttauX+WcN2MqP169fctEpPQR8iP9Uy7Bl83oEBgZyYSvNQbywy/RONmPYY6N8/41t1ak9w7f+jXONDc0JfIopB9S1i83a/MJt9SIIltJp6ftKnLa0D7VAw+RYVPdopTE2ap84GVftYGSOBGMoNtHjk77jrv99A4VJ8VzF36toa+maSKf1s9pawNqf/GpMziNbIqlGphebhfnJHEsYPoEDCRz4ORzQRhAs1R+Wvh9XRiSmbIorA2/pvFW9LzXecWALYsojeTtVtCfYI30OMNMsWcTYcDmuVvpH9RObucam7Y+aX1yNE5u5xqZtXNH/o/qJzVxj0/ZHzS+uxon5XM2mGOKKRDX9WDQNuUcsdcyMecsiEUoGWfSsFdrq0WWurdxDl4+phhH/0ncsWj/ZHGPTNm7YpSQ0UkMvp1C60NJqjrihRrmXn8+l+Jxd3PWdwCd1vEzgUwKfTHPgxwMEcwZW3YolvJXAgVhwwBIPPxbD/F80TTAy6pY5gU/q+JTw1q/EAauw0JD41ZYJ+yL+1/tH8Dhex4hfEYz/BUgY4f+PA/G6If5D7Ezg0795MRkg6BWxxeFsYiMasWlragqxmWts2pqkSXN54K/1xGYB1LTV5urVvPxrsSbOqLFo6ha9HGck/hIdWTR1i16WTS82bX8BTllEvkUvJ/ApRssbGx7HaMC4bUQnx2ISQeBpm5m7mneMzUZ129jwX2Vb1bQoTEZ1W5W0KPJLTVs175hcDJVyJx9HcVwjUEgN+rJ4HpIGatrqvaOmgYQvlrSVz9WSoRL4pE4YfwU+6VEaj7L4y8mTsX2hZun+g3z6FWQxhvopRgBBzTInvGMMMfxKnFEbt5BKF/1Mj6VtLW0n5dOPbBsXcyXaLaVZPq5a/v4X+GTJXBP4pE6DJPApgU9yDliu2zQpBgvUvTik2EaprWrPOS68VlM8UCch8fyWsQp3gXNaZsnJUDqWIeO+0bbie0qK19S4psYUjZ4FFyoYDXlYMlfhXbN8snSuIsgxJv0/i0/SnfV/wifFtVUriyIQk/LKXFvJ7VsGMhqbfWfqNEscyFMCn6TKwLgHlsCnOOOTJoKgwtnRRknk+lSprdI7SnvHKLqQrL0SEjFGr9r+lBxgJcCtZq5yT9oYcop3Pgm3IakBiWoQYXzwWO7sGpMJ+fr8KvJkTL7iVJ5keu+nyZPgNcREnmLKJ7n3If23Eo//X+Xpv8Inuc9hal5y/P//pJ9+Ip+swkK/SVhvCddNue5K1taYoy4f81doq0RrTDSlmn6Uzn0aayeNDPyqfJJrbXPW05RcGDsTayok/W+RJ+muj6t9p2Qx1e67X6GtMVrNIQW1iNdElMnk0Mb6NzeuKc8rNm0T+KTjgCkexzef4kK3/dr7TgcQjBVSqLFDajw8c/tBjh7NjatErzFvywDLSO8eFv5obA5q2soRnlF9IhtXid4EPgn3YMtwqzzaYI5Pct4myJNpbalWFn+1fadGvxor4jMnE6bwvbm2CXzSXQFvygeKbz4ZxccKNsCUz6snZ0bampOJX1GezOhR/QhCTIGywcQlHZlT5LFpa9C3BePGZq6xaas3Xwvo/dX4ZA6cy0GTGkVutM+fwCce0gLhNSWL5nhlwTDqrLy5AU1pKhVt43SuFkzegldVzCKGr1hARAKf1PE4gU+/LJ8kAIFWSXxkoTgD71r4hfY1sa1CCE+prdKXg+RfJ1IyMHp9SVwepbZyQ6z3jmSu5tryJ42lX076N/JJYIa5uVIxyo/gkwFS/1nyZOQrVmb5JBa5iROxRJ6ENgZ7h35vpprfYJtZsu/k3ce0rQVzNdjDFrQ1OtcEPhn4GHosMaGfDPadMVlUo8cT5ElxvxrYu7jisZm9ozSuko6xULcJAEG6G40pDqnxkFIj/1mQVqMEG2mr/byi+KlFk3EpGdfl9JurRJbuKCWPQKk/UduJbWPCJ4W2ctCjXUA1PJYbOBOVPNzdj+KT1DL8G/gkt2QmjKci1je2VmocA7GtGoNtbFNJ2qrad1K6TLRVNVcj+11V2zg+3qidewKfNOxX0m3ytZeugYIs/j/Lk5ZVP0ue1NgA836FvhxYpttkAEHkiFxopEJl7JibpW2lRlyUZQIH4oTFiSh5DNK/SdrqLaicHqnwy8bW89yUxpVvnFjOlZur5fGvwidj4EMJbJkyerK10/LB2PpYyidj4PBXlSc19P4sHpta8x+97/6NfBJoZtE2JsdyR0hJ18S0bXzsnbiSRQWHS+STSRsQV3r8V5YnOY+l9oYcdUGeVPNJjtbVy5NCisEcqldCpeaQqkjgz2hrDDGpoVmprVoE9jPmasxriOlc1Xgh8o0uXWslcCcXVjW0KbqjKjwkY+3Uziuux1UrO0rjJvDJ1Grq/pbApwQ+KekYNbrI2L6LTVtz9jSudUxsdJuhftJ8zZHRrXRjGdtkMvSm+Jr8l2JqQubBmWprrl8DUiUT478p0ECeqvY1NXOVgRptLYKatrHlk2Q9LOKTbIHN8smIsZbzSZGnxtoKg+qtgTmlLfzd3LrzkFJ5ii2fhI1vMK5cnn5VPpmSxQQ+6UcjjaUsY8Mn6T6XeHmxliehrx++78zoNj16VOxZbXdq+SQxbub0ntRmy/lksm1s9JOY0v1/4JNGBmX3IEi9QdkKUG5c+ytJmMMAAEmNlPCzmrbaRRYHkbTVK7ZQCI9w3t7IuPy6zHBqaZYrB4kBMjPX6OhohIaGIiwsFPSzXt2lUmRWj2wpvRIgop2H5GW5sEs3g8EGlC2GXI6JD9y1ClRr0FaJZgX0K2c1/9uQIVaIlvzWmt+R/k7Tjf5bgsjKfmv4ppVBO52C0vUotqORdfTptSWZUlQ2knnHGZ/E/SUyUIG3ElHRz1AJQMmc3En0r24LSNY1NnM109bK2gp2tnZwcHBQAHlKhsGYjpHyR2b0pfuBf1aScwU9IToPoq5QamtMPxmkChUWwZh+0kuvKe8TTdGwgkEyO9f/Ip+UBFiis006JabkyYiDbJbHSrZFaGSurSl5MqnX5Q63qVSJKVk0BZh1e0dXg6AlSmjIHrP4CEIq3Th6k5AINzeL67bSUwQCTdKiRu2Q8k0hKeIzWDATNGvlReSFpC7CCoiKjML37yEMDmxsbfU1uZKsGbPJclsgb2vMRijZEBU2nw01gzUyyAJRWgClJEzivCV8kIIteVuxb7150D+EwlN5Wz29Z8RQcZ/0oviyVBZFWVD4HcuEvK3sdkC5rZCDOJN8kvRtsHdkikOJT6zMpADEFJ+kcizySUq8sJa8Z8XfRwHR1rp8pbjeWl5K5V8qE/R7oa0ikJSNa1aedHyKioriBXByctYsnFxXkEGXnos3uWct1TEij+JDPymBETmfZOPKo7YW6ad44tOPtAFa3WaGT3yCTFIgH298ku9ZGaCIU1lU0qeiPjYxrnYPK+ydeOKTcNWyQLC4EOLuNTA6omBK9LU0OiCiIqnil4IMUXmJQEP7vnR8JQdXipJExS+kErTjm/H2RJr03jc1rmRMWduw0HAEfw1C4kSJYaUHpBQsuikQoMgnSR8KeEdPz5sCBdxWMDpsKEg5069EoyGnVZivdkzp+6bayvjE3dL7ZNRoTYSftdEL6bjytgK94rtSA68ki1J50s5VkAPthhGjJirGjRGf1PLYGJ/ENZHwSWK7hUXTGX699RHmJnqZWtCsZq4/nk/R0VEIC4uAnZ0dkiZNaniRjlwkxfko7lkzJSjG2uqBV4X9ynZCxldphMHcnhWBrIFuiyG9oiyYGvf/ik9Kel/U4z+Bx/EtTyJgtlie4oZPum8xMHoXUJQ8Xq41kJIQtSCU30O/4/Kl8zhx4hiSJ0uGmrXqIWOmzKBQrcZzFL02w7bav7NBkHLaWFthQ0sBhrm2WjrETS+pADXWVufe6LxfgbyoyEh8+/YV5A3ZcvRA0NisxES0qzBXPVAkolXRKIsGmJS2MT4J7+p5o6IBFoVBmkKQVrsKHqKcx1rQQMSJPJfzSamtANIYAJiZqx6PRXAXT3wS10ALRrTCpwEqYhpKL/r0K/BJzmML+cRGRDZX8XeK6yMDYrpNKgGSsrXVRjskUagYytPX4BCkTp1a2TpLDaFkSoz/RHAkB4vy92TbK07aKoFxpXHlY8vAXnh4GPz9nyBxYnt4eGTQ8UDtXMUWFvApMjISjx8/hIODI9KkSQsbWxtd1k/tuJLx3r59g1cvXyBPvvwaPW+MD3Ja5SBH2s4AFAPh4eF48MAP9/3uIneefMiSJavhWMZkIgZ80i7GryRPkvl9+vQJp04dg729PcqWrSjYH6lNlDruJqKlRnCx0vx1RYrSrzFpjZnGcF+/fhXr1q1C4MeP3EdyJ2d07twdnlm8cGD/Hpw/fwZNmrbA8mWLkStnbjRp2hL2lGsUFYgB+hVDzmJoTqqkBY4otpWE1ozRy4Imizgw1Ubain8zKei6tpFRUQgO+sJekDYcamWFsKAgREVFInGyZLCyspEsgcK4WlRoaq4ymkXQIlmbkI8fYGVjiyTJnRAR+h1fP7zjvWptY4PETs6wS2IvCdmq5HF0lC4zqo2OWCEyPAzB794wFdbW1kiS3Bl2jo6y8oJoRIWHY0OHNvCpXgP5WrSWhNGlYVHDaE90VCS+f/kMWzs72CVNpg8YRTrMyZMAbL8FfsSjI4fx/r4f8jZtDpcsXogIDcX3T4FI6pZGQrOF8qQnx6bbkgSGBX3h+hRan6iICBBdxEd6SE6SJHMyvj7G5krrI8iPLnplhajIcIQEfkREmNC/Y1IkcU5hsD6fAvxxacUyuGTKhNyNmsJO3KcqePz9yxeOmCVydISVtY3kuJUVwoKD8eDAfnx6/gwZi5VAukKFYGWlqS2R7hPam8HBwXB1dTNUUwZ6QkHhGVNu8dVWrTKVvyfQQ+svjTI+f/4Mbds0Q4ECBTFp8kzeSyYNk7nxzRlhAPfu3cH0aZOQIoUL+vQdAHf39BqtJ9JmzsBLxoiMiMSgQX1w388Ps2bPhycZbVORTCVDLZ2T0rpRDDIqCnfv3MLIkUNga2uH/gMGo1ixEpqWaulV4p3atr+YPFFKe+7cmdiyeSMaNmyM3n0GIlGiRPozNAXA1KyRwrpoAILW8xVRh5Dz5wE1RuxL0Ge0aFoftnaJsH7DNiRJYo/Xr1/ir4VzkcIlJXr16svIOHlyZ6RMmVJYRBH+yFIS0uIv7UaKAhUyadG+MK5YQKaJSAiR62hNOJY3HmMB0bvWcEGTytSNre1DchJBU1gYDWsbIRSujXZo2mk2j0i3LhwbGRGFoOAvSMQAQeRoNK6sXInvnz4hf6s2sHdxEeiS5IGlPBZ3lEg7hbYNNro892Y4171DB8HJwwMlevji9e1bOPLnH4j4/p3nXqxbD2StXFmgQ2xLfLMWGKRbW55vVBQC/Z/g3u6deHXzBqzt7JCxaHHkbtQEdvYO+Pj0MfYNH8qGFlFRKNSuPXLUqS/ZrJq5kgHc2r0Lj52vWUvdWBquCvIkkQte0yiEBH7BmbkzkTqrN/I0bW541pfD6Gb4JAjIyZnTQIbQs3RZeJYpC/uULnh17Tr2/z4S7bbukuXlpflNJT7JxmV6xf1B85Dm+jVzIR6Hf/3Khjgs5BtK9eqDr2/f4szCefj45Ak+vXiOfI0ao4Rvb/06Aa23IAJcncwT60I+fcC1Navx+u5tREdGw6NwYWSvWQfJ3FwR9OoVzi9ZhLd37+Lzq5fIWas2yvT7DdDuKQ3vPz3zx9U1q+GcMSNy1WsAOwd7cVMJ85LzWNQsVjg9dxas7WyRr1kL2Dul0M6VNlxkWCje3buHR8eP48PjhyjUpj3cC+TXyZ+ET8FBQXB1czP0YllCNLzV0wWC6Gj3pbUVoqM0dOml+OTKXwDTUVEaI634rmTfUW0Rjav1iqXjinSRUlBQxKQvNFhI83ei79nzZzhx/AgaNGwCB3sqzgSCvwZj/97dcHFJifIVKml1mqZ7YU46xaI3Fv2di2iFaK+B9y6hV9SV1OXXr8E4fPggnJycUKRIcSROkhhPnzzG4UMH0LlLD+ORGZLu6CgN7wSaiIbz587g3t27aN6yNRInTqzZ2eJ6aNcmGlYEfsTovxGaqZ24LnpgSuDx6VMnMHvOdPTrN0gfIBiZq3Temld0csI0cmBMlnYU1suYPFEf1NbaRtgbEmPLayGXQ/6FoO6Yf0JaVybH2nYKYCQoKAhXrlxC4sSJUKx4SS0f27Rpijy582oBAq2PNQNx4ZH0ZU6e9ORYae/QNPQ+96xdTWnYSAcW2rZuhmTJkmHuvMWIjIzA9evXsHDhHHh6eqFFy9ZwSeGCpMmSM2e+h3zHm7evEREezmAidWpX2NjYIDAwEDR5R0dHuKRMCQq5fQoMxJcvn2FjY8v9p07thmhE4c3r19p303tkwPeQEHz48AHv379D5syeSO7kpDU6xIzAj/S394zKs2TxYho/Bgbiw/v3cE6RAq5Eg60t3r17i0+fAhEZEQF7ewf+G20eUqAh37/h86fPCAr6AmsrKwY/hLzFjU99BgV9RqJEifWKZ66sWiEAhNZInCw5G1wbRngSJU+CFhnJ6NjaxlZQghoDFR1JnnsUrK1tQWkM+jcZaXFcsZ4gKoIMUjSsbW2wd+hgLUAQF/vDw4e4vmEdPIoWQ9bKVQSpEdMf1oiOjmRlbmVtB5tEdtpKbzJcp+fMgk3ixPAsXZoN3OU1q+BZshTK/DZYAyysgE/+T3Bt3Tq4+vggR916OgMQFY2oyAidnNrYQCO3Yi2CgEOjoxAZFs5zt2GQpVEiBK5Oz5mJVN7eyNu0mWZrRwpAkIwcjy/KojxFId0c0dgz+Dd4FCkCn1p1YJskERvhV9evYP/vo9Bu6z9cZErro1kDYXPxMlG/ZOwiYGVjzTwWC6TofQaU1jaIiogE5dOtbe00a8iPJk0UHUlFrBGIDA/F5ZUrEPbtG0r59oGNXSJtOubQ2NFwSOmCEr36SNpq+ESRlMjwcB6fC2AFkE7A7J++vkxDztp1EP79O+4f3A/nDJlQsqcvklDhn1CLcHzKRPyPva8Aq2rruh4qJrZgNyaiqGB3XhO7A7vba/e1u7u7u7u7uwtFTBQVFUX9nzHO2YcDooDeev/v7ud5v+/K2bHWXHPNOeaYc61lEyUy8hGASG6srOX4fDZHAND7TU7YnEowg7evoH58MjFRESMFMvKHJ01AhIgR4FyzFqLGjg3idOqz5GQen+c3buDi6pVIljMX0hQtEdhwmeUkBsE+YSDH5P/ZHz6vXuGVzyvNS9oMsgxRokSRkeecJ7Agcxc1qi0eP/ECo9lEiRLJ2Vpoc4th/orXr1/D2/s5Pnzw03N29vaIFTNWkEAEYJr08WMvvH/3XlEZ6yNom/gM6Xkfn1d48/o1/D5+FL2bIEFCU/T2FWC7vV94qybJ78MHxIgRU9+h7WLU7u//CW3adkQ0W1skTZpM73n56qWMeooUKSUR3kO7+NrHB/5fPmulh/ENfv/Fi+fwffsWkSNHQcRIEfVuXokTJ0bs2HEDWIgguJvtowPhs7SB7I99ggS4d/cuBgzoBXs7e3Ts1E1UdaLEiQPe89UEZPhdysQmog1ixogJ+/jxZddfeD+H75u3cEiTRs7vzds3sqm03fzG0ydP8OHDByROnETPPHv6FM+ePZMtS5I0KWLHiq0VYJQr+82Akv/mO6JHjwH7+Bwn6jNw+OABTJowBu07dUWmTE7wfvFCYxI9RgzEs7PTfH3y5LHaFTN2LNjZ2VvGhbLmd+Unvn6V74gQPjzixIsr3WJ7/D/5q5/UFY4Dx57+J0rUKHoP+/rS+6XSHVGjRJGv4P/4b2/vF9JZNpR6wb5GiRxF7eYzlMs737ewtY2uPlIH/P398fKlt37nfQRY9nbxEc2WjLvJXL7z9cXmzRuwbu0qlC5THgUKFkbcuHElm4b1a8EpszMaNm5q+X6CBImUOqJu8B1sG9MR9Kn0NfKp8U3+94fptoDZavovmgbTcc/mWRVsbjYADbm710SM6NExacosOdEF82dhw4a1iBM7DjJmzISy5SsIofK6ffsmRo4cgpMnjqF0mXJo3bqDcmCrVi3D9m2bUaRoCZQt64aLF8/hzOlTUlIqPmXUpGkLgY7Jk8cJ5VZwq4RWbTrg9u1bmDt3Jnbv3oFxYycjZ+68ZjT4VULZsGENZs+ajrRp02PU6Il4/foVVq9ajuXLlwjA1KxZFx8/fsSQwQMQTQOaADduXEd2lxxo0KCJkPaRIwdx/txZocX79+5JsC1btjOxIggn0EHwIIBgSDsccGbBPLx/+RIp8xcAqdgPPq9gly4d4qd3lEGiU3n79Ale3ruLD29eI2rsOLBPl140MBX11QMPvH36GNHi2SmS//jWF3Zp0iJuagc5Ujokn4cP8fz2LeDzF8RMkhSn581GrOTJkbc1I1HTmL64eQPnV5gBQnEzQDCzKX4+r/DowgUwNREpmi3sM2RAzCTJ9P1zy5fA68I55GzcDPFSO6ivdw/uw97hw+G+dr3JmSMcXt2/h3PLlpgAAhkEk1uE32sfPDp/TsadTsM+bTrETpnK3C6T5r9/9RIvbt1QtIvw4dU/u7TpEC5CBHx4SYAw1gQQqtdSusH77h1EixNXfSVFTycd+DJFKXS+hqOnE9zUtTMcChREhjLlEIHjFA7wOncW2/r2QtVps/D81g34vXmD2ClSqq8RozKKBt77vMKL27fh+/SJwJmdQ1rESUkjHg5vnnip3ZGiR4fPwwf4+M4XcVOmVvtNQCcc3jx+LPl/pFGws8edg/s1QckgqB1mup0AwTZuXORpTYAQQMF/8PHBs+vXpQc2UaLAPn0GxEycREDm4YmjWN+5IxqsXg/b+PEFFDyOH8P1bZuRuXJVJMqSzTKp948YLmCUr00HEzjAV3z09cWTSxfh5/tWsrRLlx5xU6UOlI779P4dnly9gteennqMcLcaoQAAIABJREFUvzM9o1QVvopBYF+da9RG5Jgx8fTyJTFGiZ2zI5w5r/3i9k1cWLEMSbK7IN1vZSz6YW1j3r59g/j2ASkGOlnSybt27VD64T0DgefP8FupMihbtoIM2/Tpk7B92xYUKFBYzvPQ4QPKg7u65kSTpi2RJImJNjeu9+/fYeaMqcq9k1K/d+8OMjllQe3a9QT4raOnjRvXYtPG9XByyoynT58JaDVq1AwpU6bGzVvXsWf3Thntt76+8Hz4QLaEOWDaggsXzstG8b8ZnPi8fgV398YCHPPnzZa9yeKcDRFtbNCtex/s2rUdy5YuQtas2dCzV3/ZLaZw9+7ZpVVRb8zOvGKlKihVqizevXuHGTMm4/DhgyhUqIjAw4njx+D56CGKFC6Gho2amZzidy4/vw84eGA/5syZjmzZXHT/+nVrsGTJAjkn/o3yIIghGNM8eP8eGzesw5kzJ5EoUWJ4ej4QMB7wxxDZ4IkTxsjxzp6zSLZj+/YtWLxoHvIXKCjHy/bxvrTp0qNN6w7Ytn0TTp06KWda8rcyaNasld65ePECnDh+FJUqVcWjR5565rHXIxQuUhwtWrYR2CKDMGnCWLTv1EXAYOqUCfB84IGq1WvBvUFjfP78BZMnjcWeXTvRpHkr1CRrCQh4bN68XrIuXvw3gZ/r16/hkZennGm3br2RPHkK3LhxTalxyoJkwLNnT1CjZh3kz19I/mDcuJEaw2TJUuDypQtInz4jWrVujytXLmHlymUCRAR7Dx7clx5mzZpdYHbliqXSZfqRhw89ULBgEZQvXxH37t2VT6JdIMi8eesm6tSuh0KFi5pTcoCn50P5zvPnzkgHCbTKlauAnLnyoHHDOkiZKjWcs2bDjh3b4P3iuWxfz559kSVLNukTdfLQof0CPARF79/5olmLNsiYwfG7evK9H8J9/PjOxEQEWwFtgAOTETMxCNHFIPC6e+82xo4eDsdMmdGiRduAb5jxxvnzZ9C8WQN069EHlSpVk1G7cP4c9u3dhSpVq+Pq1SvYsWMratWqJ8FyQPr27YGnjx9j6vS5QpgD+veSErdu01HvP3BgL8aMGY4ePfpKYJZiSDqvVy8xfvxIIfpRYyYgYsRIeOBxHwMH9kWuXLlRs1Y9HDq4D8OGDsKWbXsRKWIkXLx4XjUUzZq1llCPHjmIsuUqqE80QK1bNZEiVqxUVbb885fPePP6zTf5nzML5+HJlcuK5Dj4vs+f4s2TJyg3bBRiJU+Gt48f4+LqVXh++yZsokbD22dPka5YcWQs6yanc3HVSlxYsxKp8xfA2+fP8e75cxnjXE2bwT5DRry8fx8nZs2QE4sePwEiRo4Kr4vnkTxXLqUYTERFOBNACMQgmOg01iicmjsbXhcuCHS8836ByDGiw9W9IWIkSoxDE8Zp9wAX90aIGie2niE9fmPrFqQvXUZphm8BQkVLfvnNo0c4t2IpPn3ww4Pjx8QCKMVgvug0L69bg/vHj8HWzk4A4JPvOxTu0l3tIaA6PMEEENKXKoMbO7bj6dUrcCxfAQkzZ9G/fZ89taq8MQET5vcpg+gJE+HT+/fw8fDAgfFj5DTTFCkmR8++eJ0/iw2d24n6fnH3rhgLAg6X+u5I6ppDbMWFlctx9/AhOWB+i4xW0Z59YGtvjxs7d8jxEdR98vuAt0+ewv/DexTt0UuOlKmdvSOG4tXDh4idPDkihI+A154PEcfBwcQgiHEyAaVdf/SHbbw4yENgZ553BCw3dmzFvaOHYRvPXu2LHDMGXOo3QOxkyXF6wVzcObAf1WbNtzAprGnwvn1bIIL/M5ze/lHDEDFyZORt297M0HzF22fPcGX9WqUfvC6ch2M5N429BVWEAy6tWYVL69cibqo06htZC6eKlZC6YGF9UwxTxIjIUrWG0ghnFi6AQ9FiSlWYwg1I/mcWzYetfXxkcquIKHHimJmqABtDgEBwbrCanKPz580CWULWL9FRrV6xFLPnzMDQYWOQLVt2nD51Ar16dUXefAVQvXotpSi2btmk/7Vr3xm5cuWxBEeUMuulWrdugpYt28rYb9y4Dps2rUezZi3hmiO3NYmP8uVKoGrVGnBv0ARPnz3Fzh3b9E1GZosWzZWBpk1gdDhl8ngcPLgPixavAov1xo4doUCHTu3WzRuYOXMKsmZ10fsGD+qngua+/QcjRvQY+PL1K65fv4rhQ/9AunQZBBBu3ryBuXNmwMUlB8qUq6DU5YIFc+S0ps+YC4c06ZSmGD1qGAoXKYaKFasgXjw7rFixFAcP7EOfvgORMaNjoMDQmHOKGb5+FUgim8GiSKYU4sazQ7Mm9eXMBw8Z+c2zLAycOmUiChYyOTVGouPHj0b37n0UAbPPZ8+cwtx5S2EbPbrGZtKksUiaJBlq1qqL5ClSYtuWjRg/fgzatGmvCDhylChYuGAOrl+7hkGDRiBmrJhYuXIp1q5ZhfrujfDbb2UVSK1ZvQITJ4xFr9794OZW2QQQJo5F+45dNMYENuvXr1Fb6DPo+E+cOIZ1a1di0JBR5nQIWRl/HD16CJMmjoNrjpyoV78R4sWNh1OnjqNPb1M9Q99+g+Rkd+/ajh69+svZU04MHimnS5cuYtTIIViwcLlA1K3bt7B+7Uq0adtJbb948QI6d+4mgLZw4VxkzuwMp8xZ5BMZ7RNIEPzu2rkNq1Yux++/d8e5c2dx4cJZvZ9Fl2vXroJtNFsUL2ECMSarBpw5fRKTJ41Tbd9vpcpa9LVB/ZpiT+q5N0KG9I7w9PRAn949ULx4SbRs1U6B+do1KyUb6iTl0LNHZzFn1EPaG+tsgrWuBJdlCKhBCDRlLExkAA2Ir2hQv5YoGAGEcMDdO7cxdowVQLDkUE2fZdFem9bN8OmjHyZPnYMvXz9j/7498PJ6hCpVakip2NzGTVooUud17OghtGrZBJMmzxQFN2Rwf2R0dEIbAoRwpt9HjhyKrl17BQAE83eJUKdOnQCvR49MAMEmkpD8HwN6w8XVFTVr1sOpk8fRu3dXtGnbWUaAqQ9OAE6WefNm4cb1ayharIRSD7zmzJ6OdOkzoP+AIRIKUawAQmRzgYg5cidAuLVvL/K3a49EmbPi03tfrG7eFJkrVYZT1ep485iG+QLiZ8iIWEmS4vKGtfA8dQq5W7RWmoAA4cjUyag0cTLiZ3TEi5s3cXLuLCRxcUXmqtVwbukSAYIcDZsgXpq0cj4rmzaCY7nyJgbBTBEzQjcBhDymGgTzuD69ehnr2rZBtZmzESdlKrERpxfOhV3a9DLk+8eMFG3sUs8dkVgkaG02rGo+X90zGATHgBSDoWXmWpDN3X5HkqxZkbVWXQtAeHzpIs4yZVGwENIUL6FixpPz5iKRkxNSFSiMDz4vcXjCeMRIlBDR4sXDkytXkL5UaSTJ5iKlPrNoAXw8Pb8ButHixkW6kiVhG88Odw7sw70jR2ATKRJc3BsowjccFxmEdR3aoNQfg5Eqf0H1/+i0yQJf2evWU9rh2uZNYlUIAhjNr+/QGq71Gqq9BAin589FzkaN1d73L19gY+cOcKlbHw7FSuDZ1SvY2KUTKk2covF5cesmDo4fgzipUptTDKZcLS8xCPHiIk8bjptJeZ9cvoTTC+cjXYmScChcTAWHuwcPRPpSpeBQpDiOTpkglqnc6HEBlJ7SNwFZLINF2j9qKCJGjmICCObUkOnLZHpe48iUSYiRMDFc3RuYGQbg84cPmFfZDXmat0RGt4oqOmShJxkCgi0yPgQI4cOHE6C7uWsnUhUoiEwVyCIZNTrAp3fvcGP7Vtw9dBAx4idApkqVxVZYNzQog0BGcNWq5ahfvxHy5MmnbnBONnSvBdccudCjZz8xCs2bN0TlytVQu467pMZggYwhGcf8BQoHSql+9PNT8JE1W3ZF75s3bcC+/XvQuHELFC5c1DIW/FbNGhWRIH4C1KpTHylTpFJqhwzh9WuXsWzpYqRPnwFp06ZTu65dvYIlSxZi7botOH36JNavX41Jk2aquJYBzqWL55WWJIs5oF9PC0Cgw2CbGV3SpsWzsxdAoEPct2+3ir5Zqc/Lx+clKlcog/JuldCxU1eBiD59uokBrVCxiu7ZtnUTFsyfgx69+iknHVApEjBFDNVgSnfE8MGwtY2GJs1awS6eHZr+ACDcvXtbBXF0XKS4M2TIKDCUhmwfwmHRovlyyAQIpO8JQMaPGyWnVKeOOyJFjoyzZ06ibZvmmDlrgew32ZHNm9Zj3drV6NdvMFKnSYNtWzdj2dKFaN/hd2TP7qqGf/z0CTWrVxCDPGr0hMAAIXde3L1zC4MG9kO+fAVQq3Y9sdJ9+3RH2XJuyJkrbyAd4OoHAqviJUoJWDFip0wGDuiNvXt3Y/OW3WKtGejy+0xVTJ8+RSCtTbtOpuByQG8FsC45cilFRIYhSZJkcuxbt2yAW8UqyOGaS+CG+3v4ffBD7VqV0bBhUyRImFB9YmHqrp3bUbtOfenI5o3r1abcefMhZoxYCigTsCbHzPRST6hb3wMITlmc0a5dZ/WHKbme3TsjRYpU6Nq9N7Zu3iAgTCBNpoQXGa6bN65j5eqNAlCGXliVUgSSm3VJhCnFEDR3ZeiY9RsANHA3A4QpM3XH3Tt3hLgyOWUWJRToMj9Laqx7146YMGk6EiZIhI2b1skIEAWTCWDHGKHHjMnaBSjHVKxoPvTtN1DpigCAQLqUAOFwYIBgBXt8fHxEQTHyZ4qBiJCDPqB/AEAgBUOUf+niBX2TtGPBgoUFFKZNnah8FI1NBHNBiq+vrwRNmorfF0BQisGqvuArQIBAA56rWUvRy7x29OmpYrCcTZorgn9+8zqeXr+Gj77v4H3nNt4+9kKR7r3lsJm3vbR2FWotWq5nmY6gQ40aL54ivQNjRyFStGjIWqM2osQ2bTSz6fcOiJsqFfK2MnLZ1imGPEjLFIN5bFl8uH/MaLjUq29hFJ5cuYQ4qRyQr1UbE0CIFVsRtQCCtRZZ9iMAXt27a04xZIKjW8XAY27OgW/ubg0QTC+6vW8P7h08gMyVqyG+YyY958cq/y9fxLoQIJAa9/HyVCV+6kKFkaNBY3MdhxVgDfxFc//o+N4oJfLg1CkBBBbSUa5GhE4GYXOPLnBfvUFsCFMEx6ZPURV/zkZN9Z2Xd+7A6/JFvPP2Fg1/c+d2OFerAafK1XCDk2znduRt1QZxUvC9X7GhY3ukypcPjhUq49qGdbi6dQuqzpprMnRv3+DUvLliG0w1CFYAYaBVisE8Ph7HjuDAuDFI5ppTDAuvW3t3I3W+Ashapx5OzJqOl/fvofyY8ea6AWtBWKGErwBrECJGIYPQ4ZsaGD+f1zgylQAhkYlBMBulN488Mbt8abTad9gCEFnn4P/+vYAjix0PT5yAJ1cvw/fZM8RIlAhlho7UigaLd2K/3/ni1u5deHDiOKLFjYOM5d0EQq316a3va9jbJ5RqclUQI56tWzaiXYff4Wx2kuxR8+YNFLWPnzBNjrVF84aoVLkq6tRpoGcPHtyPWTOnKsBglGodn7CWg/Tt1SuXFUVfu3YVly5fQJMmBAjFJDzDvO3ZvUO0L/PgjH5z58orA0tGkQ6cdK6RwvBnqvDtW7i5VcKCBbMVjIwYOS6Qgzbe279vD6UI+vYfJAaBF9MQJoBgp5TD3NnTlWKgkySoMJ6tWaMCkidPiREjx4uZMAGEOqhQsarewzQtWZcePfsjSxbnQP2x1gzKJHiA4I748eNbGATrZ1gxv3fPbmzbulHpBi5bz5snHwoWLqa6rMWL5mOtFUCg0x5nBRBI1587dwatWzXFjJnz4ZiJAOGjxnj16hXo128g0qRJJ4DA1XHsezYzQGB7u3XrqHQEWeQj1gxC7ryqo2HqmUz0HwOHicLv16cHxk+cjihGwaS5M8EBBP60Zs0KjBo5DNu279WKr4sXziloVbpk21bEjh0Lbdp1Vu5+0YJ5OHnymALGjI6ZUKhgYaWMbt66geXLFoNgyi6evdiDEiVLwcvLC21aNzEXETIta/IZJA95D/0G9f3K1csm/+OYGaVKlzXp1w8AgjE+DevXhDVAoM/r2fN3gRcGzUuXLBQwLlq0OGKZ/QT1mgEQAZXBIFjrP//beu4E+m9TDcK3Ucg3oOEr4O5ey1SDMNkMEO7eNgOELCaAYA1jzTaLiKpZU3ekTu2ASpWrqX6AtB+LKMaOGaFiIEYABAx8/hlzjyUKYuSo8UKurBfgwIhBIMNwzBog5A6oTP4K+LwODiB4mQFCDiFwAgRel69cUt7z0MEDSJ4iBerWbYAVy5cI/bZo0QYxY3IJWhDHRIDg/9m0ikFFSgGRE2sQ6NRdGzZBtLimVRy7BvSVIc3ZuLny+1c2rlfem0WMjPRf3r2Lwl17IE6qVGIQrm/bgqozTQ6GFPfZJYsQOXZs5HBvhH2jhiNqrFhyfFwix4HWKoakSZBXuWxTWwMxCJYaBODq5g04OnWKnKGx7Ix1DXFSpFS++NDEcSpko9OIas7R0jkwEkyVP7/SIrxUg7B0MeJnzGRVpBhYTgQISbNmhbMYBFNB4a09u0AnmLlKNUXtFotmljFTDHuHDIKv9ws5dkauZDPiOaRV/QVl4fPoYZAttQEyCARCcfXMJ1Xp7x0xDM5VqsHBkmL4Cq/z57C5Zzc02rhV+VTm24/NmAqbyJGRs3FTvPf2xvFZMxEzQQJEjWcnQ3R5/RpkrlQFTlWqiUG4vXePwBRrInht6tIJKXLmgmPFyri0egVuHziAylOn6zdG0lrF8M43ACCY+xrAILS3OM77x47gyOSJcChYGNEEML+qnsPeIS0SODnh/LLFuLl3N2rMWWSSXThTYafPQw/Yxk+A6Mzpm2f2/hHBAASzhWGtiAkgWDEInDse9zG3cnm0OXwcNqo5+BaUsQbB48QxJMmWHZ7nzqJg+07SHetljFw9woJd6j3HOjIjZ8uSSFO7TUWK8WUuGD2tX7daDqdt207ImTO35dOMchMnSoI/Bg6VXSBAMBgE3nTICiAQ5BsX30vnMHv2dOTMkRsZMmbCndu3lJOuXddd+WBjapsYwdd48sRLIOLUqRPwuH9fQQsLqDesX6v/ZjrTuPgs2z127Ehcu3oZk6fOUroyKJnTv6/BIAwS5cyLxYIECHYECD36KJXAoKdDxy7IlCmzpe/VqpZXarWXOQ1hDRD4/W3bNovx7NmzPzJncf7GwFvHdizu/JZBMAGEQUNGfhM9EhS8//Be9QCUCVMqjzw9MWjICDikToPFi+fLyZFBYHG3wSA4WzEIrONiepYAgcWFBAhbBBCWo1+/QRaAsGTpAnTo0MUCECiAbl07yL4OHDTiG4DA35kWHjigj/wGCxsjRrRBjRp1rXGq5GgBCMV/Q4VKVfVOyo51cDOnT8GqNZvkj9jWAoWKIFXK1FiyeIEKTqmLLC7kOF+/cVWpETI9LLDs1r23UitMYxG8nTt/BsePH1W9TLp06dG5YxvMW7DMwjoZDpcpJqO+hrUIly5dUH1Lnrz50aHD76YiQvNlYhDGo3qNWqpFMXSLKQYDIESMFEmFrRaA0K0Xli1ZpJR523adBDiNaRw0fWD5kJXrt57yRpsDGIRgqErrl/C/3evX0CqFyWQQvgJ37wZhEILyXOZ/k4ZjXomom3Q9O8zK4RnTJ+PypYta48riD16kYkaMHILFi1bgk78/hg4ZoAKRLt16it7as2cnxo0dKXouV+48gZas0HGzMImU3LBho0X5kD4aPLC/lorUqlVXOSfHjE5InzGDBmvH9q0CBsx5HTt2VLRl8xZtZKg4YJzQVIJcXIMrgOCv6lTTKoYAkdIoWgCCChoDAIJL/Ya4vGEdHp46iaI9eisiYz6ekVbBzl0tDIIAgjkC5bI4OkWyBa7ujZRuePPYSykGRn9cibC4dg2kKVokgEEIZ2YQli8xpxh+szggzzOnsLlbVzRYsw6RYsTAZ7+PWrNOBM2I+MKqFXh4+oQABAvvaPQ9jhxWPr/mvAWwiWIrj/HKgwBhCewzOiKTsczR2jLjKzZ372IFEEyO5uHJE7i0bhUcy1dE8tw0tuFwddN6RI0TBynzF1SR4qFxo5VuSVOsOM4sWaRUQ7aadVQQd33bVvia92Gw1kv+ljxnbsQ0r+02FSl2CihSZCroazg8OncWW3qZAUIEM0CYHgAQmO45OW8OinTrqZoCrj5Y2bQBnKtWtzAId/buEYMQM2lS9YkAIXnOnMhUsQo8Tx3H7mFDUHvhUrWXY3VkymREiR0roAbB3HBLkSJXMZjnHQs8zy1ZhCzVqiOpSw79/em1KwKTMRMnVpHluo5t9f7YyVMoIvE8dUIrGTKWr4BEmZ0ttQkEkwS6eVmkaKyyMM/FAIBgZhDMruXju7eYUbIYKk+eqqJDAjSCqjdPnyBD6TLa2+PwpHGqtWDq6OrmjXh07gzKDhuFyLFiWoCbUaSYOLurUkSWOWJZkkyA8EaV4sZ19PBBTJ06UZQ6AQALllkLwDw5DXXR4iUtKQYGGaSxgwMI1iaMeXzO69lzFou+ZXEgI7669Roqt24YQBYezpoxRTluslncM4A2hEFJjhy5xCoyYqxTpz5iaV+Jr9izZ5eM+oF9ezB+/CgxASoyA7TUm3aLBXCDB/WHz6uX+GPQcBXcBQCEfspb04bR0S9cMBf13Rsrj8z5SNq7Vs2KGDxklL4TlEEIChDIIDA4Onv6FHLkzK1qeevYhgzCSHOKwahBaN7UXfaRgVjQuI6BExkbOvzottFV4NmieSP07NUPBQsVxRIrgMAUAxkEphgCA4TADMInAYQNWL16Jfr1HQiHtGQQNimFa9rjIJ9sDhkXUvQsmixR/LdAKQZjHwRGxINY3+H7VkWdtPVM61gDOAMkMsVA283gkCvn+Hcy2ux7s+atMGBAb9Um9O47UONPRpy1bG3bdsSFi+eRNGlSODpmhv/nzzh65JBqEnr3GYCPHz9pZYGjo5Pup0+i3tap1xDt2zRHtuwuSo1xdQPBEdMMBJxMedOHMqXBeTBrxlQBnukz52m/B2PcWIMwaeIYVK1WE2XKVrD83WAQ2ppTDNYAgXV59J/z589SKkp1M1Giguk2smFFuarIavn/9xIHgYCChUEwS9d6khkCJ+VEKqVD+9ai7ceOm4wkSZOpWpKKlzlzFrRu00GV/ozOgkbeVDayCKyIHTR4hAo+WBl58cJ5zJwxRfn/0mXLwc/vI+bNmSmBVKxYWZWo06ZOwOnTp1CixG9mw/EEB/bvU8FK3XoN4JAmrWUdqJ/yXBswbdokFCtawrQs58N7obTYseOoGObKlcv6btt2HcUSbN++GVevXEGv3gNUWct9Hby9vZHdxVVFjo88H6BW7fqih3hpFUMggGCSElMMAggNGiOalt8w10wGISFyNGqGW3t24/TCeUhTuAgiRI6iivJ3L16oCC4Qg0CAwLXLZgbBAAheF8/h6LQpiJU4KeJnyADvO7fw4PRppC5QEHlbt4Xvs+fwOHFUlfT3jx3VCoGEmZy02iBOytTw/+iHTR3ba0+A1PkL4rWXF17cua38cpLsrnjpcQ/Hpk/VErek2ekgPuHqlk1qb67mrZSTv3foAHxfPMf9o0dUFJc0u4tWK8RJ7aBNgR6cPKHnzi1fhjgpkiNFnryIkSAhkrjk0PMnZs/QSoBkOXKqSPLWvj0o0asvEjpnMy1znDAO9unTwalKdXgcP4rLa9cgXakycChcxGoVQ+B9B5j7Cx8pkgyr4Yy29OiGZC4uyFiuAmzMy5WUYjAYhKAAoVFTvPLwwPZ+fZDU1RX26dLhyaVLeHThHLJUqWZmELbjzt69AQDBzCAkz0GAUFmOc23bloiVJInqJt4+eYJ7R48gSfbsWsXAVAOdPIszL61di8jRbbUMlekOMh3UBaaUXj7wQKp8+SUvFhMSEJJB+Oznh+39euHdC2+kLVZc8nh4+pR0h4WMLB58fOG80iNXt2zWsr90JUspdUKGxY8V+KdOwvf5M9zcvVPAk3pA8JHA0UmrJg6OGY0HZ04hc8VKeP/KtOLFoXBhUw1COKYYWKRoA+eatbnwHdv7MD2WAoU6cxmsiU17fuOa0mXJc+VVAaPlMsB0uHB4+/a1aZmj+eJyMea1r1y+hHLl3MTobdm8UTaiVesOir5ZUd+tS0etiOKqIi6927BujaLoOnXrqwia+WjD2TFHPmrUMFSqWEUUucf9e1pXnjlzVlSrXkv1TTToXI5XtkxRtGrFYroiKiJkQMPCQwYJpGzpxBkZpkqdRikF2hVW4j9/8RzDhw5UrjpXnryIGiWqaieYjszumhMTx48SmGjQsIkOqnLMlAUfP35A/349tbKid+8BKmKbM2eGInS3CpVUfLlm9UqtVmjfvrMKZQ/s34vhwweJgSWQIM3PYr3lyxYpF128ZGls2bwec2bPQLPmrRWIGRcjYAIMFhYSNNLxMb/fq1cXnDt7RvQ+LycnZy1BNOW/T6h4kE6MgdWtWzdUKDhy1AQ5RcqVq9OGDh2NDBkdVVDHmgWmEho3aY7YseJg44a1uq/z791QoUIVsUZMiXDHXW7WlL9AITkzAkMyJQRgjPCXL12Mj/4f0alTdzGHZJaWLl6oFQJ0eFptQPbo0H4MG/IHChQohO49+lrHDJb/5lgSILCugTUeXBrP58ga9Or9h8AP2Zx79++iXFk3sQLHjx3Fk8deKFPWTXaeKxeYwqLv2rt3l1ba9OjZFzt3bFVaolat+qo/mD51InLkyI1ybhWxdfNG1ddxhQ0DX7LlBCdMD23dulGAinU0/NusWdO0Kof6RxtmOO2Lly5gxLBBSnnlzZtfjFuUaFFBVoptYcEh0+I3b1xD1y4dpc9My7MokXpAXc/inFW+lbqfN19+lCnjFuzRANbZZArPmm0IdJpjcOCADxBBsiL03r17AiBEx1QeKth9j/uqOqYDZSWu5SAWqyEyWI3OAAAgAElEQVQjgpo7Z7oqqjmxjI0xSPfz3SdPHsfTJ4+F0J2csghwEPmQ/rt166aKW9hxF9cc+vu5s6fVcU5oRgfWG208ffpYa0g54Vhf4ODgIPqHS1G4RIprWFm1yrXInz75ax010SsrfPkNAiFWznp43FcOhxXQWbJktaxaECVJgKB17QGd5JIzOsnkefJpCSE3zLm2eQuixIqpCJlL/O4dOojn169p1UCMhAm1LDJ14aJKSXidPaP8rnYfDMec+ls8PHVCDiR5njz4/PGjomCPo0eUd0vknE07J0aNHVf5ei69Y1THCJrOig6DziF5rtxIkCmz/vv1o0e4tXO7niP1mzCzs97DZX5fvvjD54EH7hw4oMp4jnMi56xIU6ykqunp8FgjwSWMzE2Ht7ERPU+QkDCLs/pyfesWARG/t29V6EWnw3RBuhKlFMm+ffIY9w8fxou7t9UHFlImc3VFhIhR8OnDOzBCj54ggQCF//sPuHf4kHYITJEnn6Lyb1NYVoc0GUPxFTgydaJWQCTNll1LHbnC4fVDD1zesEEbSFFfGCHz/ewH38/I8MHx47h/4qhqPRI7Z8XrR16Imzo1EmfNrmj+xY3rSFWwkGmHwnDhcHnNasRJkQIJs2ZTBTKXKN7YtkWZJxajctUOxyF1oSKqsWCKwvf5cy05ZBtY/0CGgA6X/37t9UgrQFgIyv0oEmfLjsRZOT7RpE++T5/jBpc23b0jgJDA0VH6wxTDh5feuHtwv4Af2Q+qJt/PMcper6F2kWQNxTvqPX+PEF7LF+M5pFH/uZKGaR4WJvL97F/CTJnF9kj2AO7s26t+cnwi2kZTTc21LZuQva47ItlGx6PTp3Brv6mPORs1kd5ZRyx6iXmNPQ2eZci+ftWabtoBFlMRmNPgcb7TCHJNPpeNMQ3Adf+5c+dBnDjxsH+/qeA5duzYKFmyDFKmTGWpBOdacy5vZnBCQ82cNx0fgw7mfFMkT2kq2Pr6FUePHtaSsk/+n5RrJiVOp8X/5koqrmw6e+6s5hYdoqlmKYHo54cPPEQ9kzmIFSsOcubKreVmdPB37txW8SUdHaN82pJt27bg7t1b6iMZily58mpdPDcfunP3jtbap0yVCq6uueWMn794pvXwz589U91C3rwFRamz/uLZ0ydK0ZYrV1GBEJ00gUzzFm0tpon1Uqzy54oyGixn56zIk6cAPDzuaZkhZefi4qq/Gc73/bt3OHv2lOo3GNFzV1wXl5zqA8foxPEjYoC5EoNpEa5G43JBPk9nRrmdOHFUY6MNoYoUh6/vOxw+vB9cfsrq/Xx5C+LsudOqZyCjw1U/n7/4I3my5Co2pB9h6oLMD/PsyZImU22YsXcEv9+kcX0t72MUH9xlAATuiZMocRLto0HmhqwMc/a05VyuSH/BeoO8eQsowD14cK/qP+jj2I+nT5+qPoXPsn/0f/QPHDOCRAK21A4Oqpljf8lMsxieS+a5d0baNOkEiFhnwCWMfI61cRykJImT6jfqufXFcWMhJWs5qNdcFnv//j3Jmsy2s3M2MQJkxTwe3JM+Uc/z5SuotMuhQwdw9eoly9/JLHElQ1gvC0AImmGwph8YNdPJWx/RQCaBm0wYO0mx0VoTar11qLk1VN6RI4aIfiGKs0YpfJ6rHOistYVvlMgmFsJ8cRJyLS93Q2POhYNBYMF7je8FavvXr6qYpbMnZcMogQiSF6tTWXxIpoJrRNkf/k7FNkAGv/Ppk5/6xvWl3HWM7THkwaIqrolmdGM6i8Fk9L7ofSaHYBhF0vh0jBFsWKxiyinTMfF9RIvarIebIYUPjy+f/LXqgwZdr+TGNv7+epWW6jHv+dm0yRH35IkQOZJpIyHz+1mUpV0Og1x81rThjqkH/h9YsML3hhdoUORt7hy/SSDCNlIedFKm/Q9MOy0SeHzv/XyW4IB1DNbAiXsc2GgPAJOgyDBYNkqKHDlQ5K+/a4Mik1x5L3dtNG0YZXXIlLVyWsNf89+5AsDzzGmt9EhbvARiJEoqI035GHseaEOkT/5qq8ZHp3R+VqTOi7Jhn/ld7h6ozZG+fDa1xRwt8172z2ivZOD3wbRJlmUrblj2saBsNWaBIHo4S5uoP1zdoY2SKP9Ikc2bEFnEJxl/+fhJIISV89qMi47uCzeg+hiwV4QhFwKRKFHNv5uOJre+2H7TPhKmFRGf/T8p/cTFD9w11VgmqvHwN80jQ5+kE+8/iKWhXj08eUzLP+M7OqrOhPs3BOqr+cO+vjTUpmWO1hfnNalotpCbvjDqNpz4u/fvTfez3zY22vCGNK/RH0afxnw0kRWm49hpu9gPzn3aMGP9uXW+l45ChVwcb875IO/iZm8fuUX2168yuNZb3PL7fC/BBXWFO9/ZRLBRHygfMhTcrIjf57P8t9FmG5sISlXyXtLPn8wbVLHIVju1mos4uQGTuq6+m2TC+82bN8p+nTt7CtOmTdbyvzRp0ppnmxohObGPGrsI/GYktYEy5aCzv2yb9VSireI3uM+AyS5H0f9nX2lbea9ssI2N/m06qZM6Y6P5YdhX/i1SJO7jYtrAR/0IH179Y7qXqxjIPnMPCpoOU1tMfed7+T1T38NJJ8ioUA9I2bNAtUvXnqoVCC64NQBC0WIlxTyx7xwb0+ZbJtWkXD5wHrOdkSPpOx/9aKPDS05sM/0H7Qf7ys2qjPnGv7OfelY6Y97Yzvxe6d+XLwJ0xsF+rEOgjlNf2AjKhrIPtMun1PervssxIHiSvzXLmW23iUBdiyLAZUxp9s+0n4PpWX9t6x5OzBHbrmkRpOYgyBQMFINJ7kwx/Oih4OgH65f+6FlS9StXLsGdO3fUQKYXQnv96Luh6aS1DQ5te437rHNywT3LgSdlxvzSN1buR3yNMUJmQ/eNLH6E0qztenDJo6Dftf5GaJ41GhP03T96NrR9Da6/oX02NH0NrgKHW2kb26oGN4jB9Suscgo6Xj+SoXVSOKhy/hky/lk5haSLYZETZS4DZNWYIH2lwadzN3LyQefcj1QlONvxK/bpr3o2LPYpaH9D82xwakZWNEvW7Nod8X9BTgQUBAcLFs5V9X2hQkUDFelZOzNre0zK/9ixI9pYiinjYsVLCjQE5+gYqY8bO0IROpfQqvA8BCf5V+nEr3w3NDoR1LxYz6vQ1Bp8d96Fpgbhew7ze3bXaBA3CRkxYogiZxZVsGo2JOUNLjj8EaiwHtCgz37P9gUVXnB2/kdC1UZI794J3Rl7kYeoeT/qREja8299NqR2fe/3kDQ+NAP+M9/+p777M239X9WJH8iYERCZQtYqfQ8j/WjeBXUaxr2hsU/Gs8E55J+xE997X3COKrhgJTRt/pFt+1+XE6v0WQvACJiAsXadBiZ22byRj7WNth4f0uZcKskUM/cnINAMTk6k41knwB0nCVm5tJWpKTEAVldwz4ZmbP6v6FOgGoTgbNLfYVOD+0Zov/tPPUuqiGdDmCjDz0GW2FjjOUJW64jKrH4Kb4OEZzqEyurgjaDWxrjfeNby/42RC+FZy7JMq+9at+178C3QoVjWsysEM2VtwQP1NYhMgvvud58NctBKaJ61lldIzvp73/2/ICfDbYfY16ALp0PWJ6YwWLfDXeCCc8g/O99D+1xwwx7aZ/8pG/Nnfje0ff2/LqeQzENw4MIazIQE3L6H+0M7Pn+mToQmBgnn5/cuRHPwvcaHplOhued7g/Irz/6Kov/ss/9eOX1fkiErXNhGIfDdwT/7n5yC5gL/k1PobMDfJ6fQaH3I9/wvzru/T8YBY/6fnELjrH9UQfBX2fFvGISQEFTIk+L7b/jZZ434JDTo7HsUX0j9+llQEDrDFrav/yen0MnrPzn9J6d/w3z/zz6FXg+DY49C8/R/Mg6NlAIv9ArdEz+GacGuYviR0zMGOKzGObgBDvqOH0WWQRUrNM9+T6mMZ3/UB+tnre8LTb+/92xoBiw0E+HvltOP2v1vklNodMJA6n+FPv0nJ5MEQpp3hpy+F/UEZ2P+iXkXmm/+Hfr0n5wCZtaPatT+r8vpz9JFazn+pQxCaBxxaJxmSPeEdiKH9J6Qfg/Ld0K6Nzhn9jPoOqTvhNSnv+L3sLQpLPf+yLGE1I+f+U5I7/zV38PSprDc+5+cwjYyf5dsw9aqsN/9M/0Iy1d+5v0/80xY2vQz9/7VbfoZv/dXt+mn5RTSMseAFwd04UedCf63f0/3w9oS6/t/5dnQDVBYvxC6t/7MXb/SkrA+G9b7Q17N+zM9/rlnwt724GZU6L4d9m+F/YnQteTvvSusvQjr/f8mffoVyYa132G9/9fkFPav/YosfvRsWFsS1vv/v5JT0GWO3xPsr6CiX3n2V6KhX1WwsCvGzxn/oPIJy3d/5dlflc+vjM2v6MTf/WxQOYVlfH5Vxn93X39Fn4LK5T85BT/6/8kpdLPin5TTz9i2P2Pu/Mp8/5k2hzQSlo2SeGNoiwCtB+57RiA0fw/NPcF1ms99r73BvTNoe3/52SCrGEMCVfw9LH0Nen9Yn7WW2S/3NZjO/YqMg5PVP6FPoXX6v9LXX3k2NHIKbmxDoyuhuSc0Om19z6/09Vee/U9OgY/q/RU7/p8+BW+nQ+M/QjOnQnPPv23ehbiTYmgmYFg2N/qRMwgp4vgRuvrRsyE5oF959kcI7M/oa3Dg4j85BUj9z5BxSA7qR2Diz372P30ySSCkOfuzcvrRcyF9939x3v2bbVtwgd6vtPefevZndTEs+hQUvP1tfbXeByGkBoc26gppElpPxF/55v/is6GRTXCR2f9iX/+JNv8T3wwOxIU0zv+0AwyrnEJiC37WSP4np9CB3X+7nEJqX2j1IzTv+afnzq/O99D08d/iA0K1isF6QNZvWKPjPe3i2ev4yuTJk/+wv3+VIeK2rTwCNkMGR8se279ixIxn/6r2hqQU/6bvcitpnlG+fdsWHQcbaDtpc0f+qvZyZ8oLF87i0SNPHbfLY3H/jHH9mUnNZ3ia3759e3TaJ093C+v1Z8npxo2r2LZ1MypVrq62hHSF9bs80nfrlk1wq1hZJ9mFNt34M0EDZcqjc3kATdmyFULqSoi/h7Wvf6Y+8aA5nkjLEwyTJUsRYlv/DDsT6o8EuTG0cnr5yltHHidMmEinZ/7s3Pkz+hraNgcnEz7Lg/Vu374hnY7NU1hDcf3qN39m7vCk0h07turU0Tx58oeilYFv+avaHCqAYDRl9uxpOrO9b/8hGNCvh44+bdas9S8rUEjSoMPiCVU8Ycs49YpHMv/xRx9UqFgFrVq1C+kV//0eBgmcPnUCg4cMwO1bN3H02DkdXfuzl2nseCJchGDPIrd+L0HfsaOHMXz4IJ153rFTV2TMmOlnP/2nPHf37h1079ZJR/zy1LngdPFP+dAPXkID16N7F9y8eR2LFq1EJqfMv/RJow/GiYY84rx/v146WnbBwmVwds7+S+8P6eFBg/phy+aNcKtQGd279w7p9n/095DGm/rRonlD5MyVBwMGDAn2NNtgnRdP7tRpoeFC/cxfIQjaVZ5oaDmZFtAR1VOnTECHjl1QrlyFEOftX9GuH73TaDP1N+gpiEGf27x5PaZOmYh69RuiQoXKiBIl6t/d3G++p1NbP3/WSbZsv6/vW3Tp0gEnjh/F7116oGbNuv94G40GBAsQgkMjVKLSpYqgRYs2cKtYReegx4wZE3HimBCmjmU1v1XHGAc59pmTgX/jGQY6FjnI78Y3+ZsBBvg6fvfChXM63rNI0RKIbmurr7x69RKrVy/XGevp0mcMFPEEfYd1rstoB99hHFEa3BHVhoD4rN7HI3x5NLLVpfea28v+f3Nkp/le1TRa3Rf0QJKg79Qxw+HD6xk+a/1e45uGzK37o+aYvxX0OfXX6n3GkbPfvNtcrLpx4zr8MaA39h84IYBgOgqX5/QFxsc8ytb0DtPf+X+NNum89cuXcPvOTRQvXgrRo0cPVvGN8aEsCRLWrV2FnTu3BQsQguuv8V1jTNWeIIe+mH77rCN5jT5b65whT7aZsuex4rzIZEyZMh5Zs7qgUqWquHrlMjw9HyCbSw7ED3KGuyF/jQJlHc40hhpHs34Y48Pfg+qdfjMfmxv0t/Pnz6CBe20sXLQcTk7OPzQgQWUU0C6ARxcfPXJIssidJz8iR4miMbt06TwauNfB7DkLBBCs51Bw9sA4GvlH0dL3dJEH9LRr2wIOadJ9AxAsx1Gb5R/wfjpUk8yox0HlZzhbaztkOVbDGAMGGEEkZ8iKbTUZbZ5nYtJyk/5exKNHD5HdNVewJyW+fv0ae3bvgJ2dPfIVKGR5P0Gx3hMunN5jHdxwjB96PsDFC+eQPoMjUjuYjme2bhvHh6A6qOyDHtdtHONO62sczRxUv40uW8uIf/P//BmXLp7XHK1dp75FMgwMzp49jWzZXeHgkOaHczY4eQZnC4Ozm8acs7a1hq00fqMcddS7+eLxyQ887uPw4QMoV7YCYsWOrV8MOVnG03wGMsdu//69yJkzD1Kldgjkdwx5fM8eW+uG6SOmeWyRp/kbhq2w9MP8d4292e9Z6yJtCgOhXLnzImnSZJb35ciRGZ07dxNAEIgwguIgI2DYiR/J+XuMQkhMg7Wv1BiEZh8EHtF69eoVIeVmzVuiQIHCOkWLVKHfx49IlDAh7Ozi4+XLlyBVQpo4ffqMOg75yZPH8H7prfO/SfE8ePgAfh/eI1GiJKKwjLPVP370w+PHXnj37h3e+b5D7LhxkDhREty9cxtTp07QBGvQoCns7O0RJ25c+L59i6dPnyBePDtFm7w4EV+8eA5v7xc6RzxaNFud+hUjRgyd9/7i+TM8euyFTI5O+m+vx14IHz6c6CfeF1SJOZHZplc+r/DRz09ntydNmlQpDQ4g+//kyROd7x3BJoLawv8JGZpfxvvevHmDx5TL+w9SMJ5qaWdnF+iYUg4MaT0CH6L5qFGi4vnzZ1Iw9s/e3l7PvnjxQjKlQeLhN4z+0mfIiOjRY+g7z5491QlpnFT29vERN148KTb//uzpE8mP58O/evlSLUyUOLHeFRT8GABh6/b98H7xDD6vXumgHY5ZrFix8dLbW32KYGODFMlTaqw9PR/ipfcL0DQ6ZcqMWzdvaOx4vnqTZi31HbaJ57FbT2qe+unl9UjggGZy//49OHXyeCCA8Ob1a8nj9ZvXiGgTEbHjxkXCBAktTvb9+/caexpsGhWOA2XGo2CpUwS0fn4fYBMxIqLHiIkE8RPoNM5nT5/C76Of7vfx8cHjx4+k26lTpxGgefnSG9u3b1EfKbvp0yYJAFWtWhOJEidBkqTJpNsm+2Eaa86Bz5/9kSBBIjz28oLPax/Es7ND0iTJ8ObNazzy9MT7D++RPHkKJEliSqFQP58+faw2UI+ps0yvGGfXX7AAhJVInz6D5PX27RudTpcgQULY2tpK71/7+OCt71vpRtJkyRDNNrpFF3m2PQ3/tKkTkDJlalSqVE3toj5eu3ZFAGHmrHmwt08gvWd/mEKMHz+hdI8Gy9ssY0Y9nLtJkybXt4NenH8cj1evXgmMUKaJEyeRbgsgtGsBB4cAgMD72f6Xr17iy2d/xIgeU/KNGNEGXo8fw+fVS32P72GwwL4w1RIrViw8f/4cXo88ESVqVDg4pLUAUY4Tv0+9+fjpI6JGiaK+cFw5z/h33kNb9OChh3TaPn58pEiWAhEjRcKtWzcxfdpE6ViVKjU0DzneTI3w4rNsM7/PtqVO7aAx4VyjXWQalt+hLGPGigmH1Glkk2i3Fi2cB4K+2nXckS5dBiRIkAC2ttHVf85N6gnfacw3zhG+h9+kHX327Jl0hG2iHWJfOAeo73yXtT3j0fTe3s/BOURQwHnI95IxGtC/F5yzZkO9eo00jpwH1HmOHd9tYxNR+kx5U25Jk6VQGzifPnx4j7hx48E+fgK8ee2j53x9fREhfAQ9GzNWrG+CG4Iwvf/5c40J05cJEyZWX6j3tG3sC//m7/8J3t7eAikGi3nv3l1MmjhGdqBpk5aSRWqHNCYZPHsGHjjO+fDw4UPpBmXIOU09ZVupx2/evpGt/ezPYMAE4qjrTBNRLpQ99YZ2IUK48LJxPJGY+pUseQod0kdb+u69L758/iq7wBNKiQvYdvqEBAkTKsjwfPgAadOll32mjfd69Ahk4unX6tR1V1oqRYqUkgMBQseOXVCsWEkFJrRP1LcE8RNaGB7asmfPnuDN27eCsfwu+/s9JiUkQPDNxLX6g54N2Afh+2v3qIyLF83DokXzhCo5Eehk9x/Yh9u3b6Jdu04oWrSEzumeNm2S8j6jRk/QBOYzCxfMRd58BZA5cxYcPLAPnp6ecrTNW7RBhgyZ5HwPHd6HU6dOShGePH4sOpX5bwp7wfzZch6MbNKmTYd8+QviyOEDmD9/Dlq2bIsq1Wrgy+cvembzpvXw+/BB0caz50+R3SUnypZ1k1GaP28W6PhGjp6Is6dP4uLFC3jx4hlcXHKITuMEtb4ePPDA+PGjETtWLMSzswfTGjx/3N29sQz5xo1rcf3aVRk+Hi+aLFky1K3fCHGscl0c0HXrVuH48aNIlTK17rOPb4969RoGylnS+M6bOxOrVyyDa67cSJ4shaI6OoIUKVKhQcMmUpa1a1Ziwfw5aNSoGby8PHHkyCH07NUPqVKlwY7tW3Dr9k05LBoTGvpq1WpJgZcsmY/FC+ahUZPmksXNGzfw7PkzTb6GjZrKsFpfBkAYM3YS9uzZBS/Ph3j12gf58xeUc7xy5RKmTZ2ExEmS4Pffu2sCLl26EDOnTUEGx0zgc7t2bsPcebMEjLJnd9E3Sv5WWvJS5PP1q5w35XPn9i3ET5BQ4JJRDa+OnbsiY4ZMMsJbt27C3du3YBsjBh7e90CEiDZwb9AEmTI54f27dzhx8rhqUmwi2EhmNhFtBCh5hOya1cvVh8xZnPH06VNFivXdG4vamzljio7uLlmiFG7euoH79+5Kp1u16oCq1WqoPR737yNS5Ei4cf0aZsyYDD+/j8iUKTOSJEmCuvUaWlg0ggICm6lTJwl4Mv3Ff1NHbKNHR83a9WRYTp44rm+kSpUKI0dNkhM8f+4sli9frIiIYPnpkyeiRXPkzAObCBHkTEwMwkp9d8aMKTh06ABy58qDqtVqad5Q3gRIvC5fuogChQqhVm13Pc+LzorjumzpIhmsjBkyIqOjE0qVLocHD+7r/f36DZQDJpCg3LM6Z0Prth3VRw+P+2J26ARp7S5dvIBCRYrq2F1rgEnDf/7cGdkD3kcjT6fQuElzsR8fPgQGCDSEFy6cNzEbX7/g1ctXePXyhcYoc5asWLBgDlYsX4J8+QogTZq0OHz4IB56PhQIZern8uWLuHbtqlJirdp0ENNDg8/5sWXLJoFb/puOIk/eAihZsjSOHTussU+SJBnKlC0vEEiZ0+m1adtR9S/79u7BzJlT5Bw53tTb+u6NBJB5cZwoz+XLFiNHjtyih8+fP6v3fvz0CSVLlhLj5OHhAdZ4tG/fCW4Vqqi+Z9LEsbhz9zacnbMhWdIUKFfeTQ5s65aNcv50RmQv6Fyox/fv38X06ZM1Z7Jld8GRI4eRJ3c+lC3nJtv89NkzpEuXDmfOnJbD6Ny5u5wux/zQwf24dv2qnCXnlq1tDNkM2uY1q1fKKWbO7Iw0DmnEgtDGHDy4H61at1Ob2Fa2mQ6tZct2AiKTJ42TDJs0bYncufNi377dChAIDhgYODo5ycZZbCqjaX9/3LlzGzu2b4XP61eah7RT9CkcM+rQrFnT1KZ27Tvj8qULeP7iOdq376yAk9f27Vsxa+ZUEPS4ZHdBlMhR0LFLd+zftxvz5s5WwJMrV17JkbaafoO607VrLxQuUlzBw6KFc3D92jXp1t27t3DlymUBozx58yNPnnyqvSLgIEDl+N24cV0+L2s2E4tIP8BxplN/5PkQsePEQY2adSSrpUsXyd916tRVoPvylUv6NseZ19GjhzFt6kQ8fvxY/pDBJv0gQV0OVyfUqeMOO3s7HDt6RPekS5devxNEUO48Ivva1SsCa/fu30P4cEDr1h3kG75/WR1RG8ol+sa7Ql2DQEdduVJp9Ok7EKVKlRVaOnXyGIaPGCwnTdTDa8b0yXJafwwcpgiJObrGjerCNUdOOVZGRcePHcbixfNRrXptuLlVwulTJ7Fs2SIZECoCnUaTxvVQsVIVFC9RCrNnThVioqCp9ESwZ8+dRo9undGseSs5LBrGkSMHC7W3bNVWkei2rZt0dnjNWnVlSNauWYXJk8eLxsmdJ5+M6vr1q6UQ/foPQsaMToFkzKKRJYsXYMLE6fru3LkzsXnTBsyes1AGdd68WShSpDjKlaso43T4yEGBESqbcRFRjh49TApC6mjvnl1YsHAO6tdvjCJFigX63vXr19CmdVMUKFAIbdp2gq1tNBw6eACzZk0VwKIzoiPt3q0jChYsomiKCuScNbscEYvp2rXvhFSpHASWRo8chjRp06FR42ZS1tatmqFJk+ZyrJyMLBRjH3hWeqPGzRElcmRLewyAMGnyTGTL5iLQt3rNCmzZshENGzRBmbJuGDFisIwqJ0NSFc6FQ9Mm9RAxYiRMmTpLxmnunJkyAr169w+2mJSOf/682Rg3fioSJkwI7xcvZCRoUPlepo+oG2dOn5Kh4Hdo8Hv37qo+DBw0HHfv3MHmLRtQosRvcHXNpYiuZ4/OyJu3AGrXqYeKFUrLidG4M3pjvzkejFI4WTnZa9SoLQPBCLd3r654/doHi5esDjQ+jPInThyjCK9V6w5InNjEXBmXySk9woTxo3Hv/l20a9tJ7M6lSxcV9dAQVqxYRcBwx44tGDF8sL5BFmHTpvVKpTGCoBwHDeyr6L1Bw6aKkgggGjSohQULV4h9Yh8YNZQuXU6GijKMGi2a3k8HtmfPTvVj6fJ1SJE8oHiORpx9oGNs3Li5JTIjWG7YoGud/UcAACAASURBVLbmcvHivyFGzBgqWuR4d+rcTbUgc+fMUFTIXC4N2+5dO9CnT3csW7FWgNa4OHZMEzEtU6RocRnpPr27iu3oP2CIHCtTDCzI6ta9t1gwOiVHRyfNd0aSAwb0VgTWt+9AybJVyyZyRHXrNlB0vGHjWmzauF4Oku0lg9W3bw/JZPLkmWJkli5ZIPaSBpS6smb1Chw5chCNm7QQk9W1a0eB6WbNWyuKZ2Q2eFA/2aAePfvpHePGjRRbSWdJfbG+aIeuXr2MkSOGCEB06dpTLOrECWNw7foV1K5VT7UJ/Ha3rh3Vr7nzlkge27ZtxupVy/UM+813cQxfv/ERIGD0e/PGdbRt2xy9ew9QvdecOTPA+iDS5QTTrq45pK/9+vZEjx59BYDPnj2Drl3bY8iQkZI/HQp1p0qV6rIFBw7sw9Qp4zFo8AgB9mpVy6sojmPMi33esnkDVqxciiZNWsiuc46yLmj8uCmyNWz/8WNHBNQIptgXD497sm8EG8yls85k4KARcHbOGsgWLlw4T8wAU9UED2wffUaDBk1QrPhvAh2dOrZBrVp1TSDW0Un2h/IwrmHDBgpoc4zIhvAis9C/f0+xAoWLFNPf6YBpLydOHIc2bTugSJESstu1albC5Ckz4eKSU6CXc5PF7pxrLATetGmd2pclSzZ4PnqIenWrYdCgERpLAu+lSxfIXlJnOEbjx49CwUJFVa/BAuuOHdoISBDkZciQUTYpblxTKp7XnNnTxd60a/+7AK9xubpkUlBRvXot6Th9xbp1q+HeoLHG4eDBffJpLVq0lR0kSGrVspHS7AQRf8UVBoDwGJUrldGE/a1UWbWFUQYHq1mzVhaAwCiYSkhDQIDAq1zZ4ihdpixat+6of9MgT5kyAcWKlkD1GrUxYvggGTVOfkZanCw0gIxuY8aIJQdJgMDJFDNGTL2DjreBey1F1gQIjCA6d2qD/v0HI0fO3LqHkdDoUcNkyGkUaID79O6G5SvWKxrgd44dP4rRI4dogrnmyBVIxlSeGzeuaQAYjdCI7d27G5OnzBKVRvqcxrtcOTcZOw4Y0XvkSJEtCUWiPsqJRp1R2K6d27Fq1TIhbxp364uGs0b1iihTpjyaNmulnxitEdSwLx06dNFEca9fU+CiY6duMj6kNNlPAhNGMQZlRudHun7Y8DGiNkv9VgTDho1Cyd/K6N10lqTMCa5YEKjI3nwZAGHf/uMWCvnmzRsYOqQ/nJyyoEPHrhgzZgQee3mqXSaAALRr2xz+/p9DBxC+AvXqV1e01rZtJz3PaJJFUpwcbBPpXzo656xZUae2O6LZ2ioaJFvC7w/4YwgeeHhg69bNKF2mnIVeZhRCmROYNG5UT/ljAkXSkaTfyQjQyc2cOVWTur0mazq1YdSoodizeye2bN0TaHwEECaMEfBp1bp9IHkZN5KenDN7hgDasOFj1R5GTXQ8JUuWQYWKLJSKIn2tX686pk6bLUNOIE0HRUPl+dDkxEnTsjDS3i4+zl8wMQgcy9u3byniIFCnkSUVTiNH+pMgl+TM2zdvMXLkEAweMgIlSpSy9EMAYcIYRRzWACGgBmGRxagzT0rjRzDEdM6ECWMkPzpQfoPplFEjh2LI0JFy0sZFh7J+3WpFcgkTJdKfGWHeunkTK1auU/rPOsVAoEH2hDlZphV50Rhy7pExoROsUqUcypevgKZNTfOCoJ7ziGCXrBavIYMHCAgvWLhcAK9Z0wYKTOi8efF9J44fQ/PmrVGwUBG0ad0MsePERv/+Q8Q8MZU4fNhAzZ8hQ0cFAQjt5fyCXgS/fIaBD+0TL0bXN25eR8eOXZEyZSr9jXaSUeG69VsDA4QuPeGYyUk61b1bZ6W2HDNl0rymI549axrKla+IuvUaYOWKpXIQZFZzuOYWPU77QHvLyJf6SRZ2zOih6N6jrxwrWQIymvXqN9I7maI8deq42Bg64KAAwST7/WJba9WuJ7tOtrQ9U0Jp0qBP74Gi6OfOmS42hjl0AnqyePlZgxEunIIJ/o0sZ7XqtSwiY63DyFFDUK1aTZQp46a/k8VjETCDne49+siGlitbQoEOGYigqU9DlkEBAuXQr28P6Va//oMtwIE2n+ND589g7tKlC2jQoDaWLVujuUYbSNab7Eq3br0lY/oeAh/qDX1EyeIFZK8rVqqK5csWYdeuHZIN+0qZb9q4TgCaTKz/J39UrlwWNWrWRqtW7YNt//cAgnUNAvtJEDZ79nQB8rLlKmDw4P5i4vLlKygbwratX78GttFsMXbc5G9088/4Q6gBwtMnj1GpUhkLg8CP/yxAIJ3Iwi86ucqVqwsx5siRE9Wr1xbqsr6o0LPNAKFr155SJF5BAQKpTzrJSZOmI03a9LqHzpno3s+PtGEnXL9+9RuAcPLkcQwfNgg9evSxAAvj+1S2M2dOiXamQyG1Q3aEACFOnDjYt3c3duzcBr/3H5A8RUoULVocLq45Ay0LZNTAfB0ZDzpOFs3wOQKA0AAEtoVROOlzOlHWFBAgkBVgXpQXjX6vnl0UAdP4GdfatavEEIwaNUHAggBh6LBR+M0MECifpUsWCrDRGRvGjM8HBxAYHZNupNPr2q03xo4d+UsAgZOraJE8AhiGIaFRJBAzihRZ99G/X0+4uVVU1TujUF6kMZs3b6jIjnk9UtrlK1Sy1HWwb0TtBHdHjxxUtPbG1xdJkyQVe0RGibpEgHDxwlkzmjcBhLFjR8gBbdu+L5AuhhYgzJ49A7esAMK9u7cxaFB/lChR2gIQSFvWrVMVU6bOhKtrbjmnc2dPKzIiA0MHmyJlKhNAsI+vFIN7/VoyXBvWrxFzRiPL/Pjx40ekI4y2jIiEIIr1CDlz5bYAH0NXQg0Qjh3BhPGj0KJlO6VB5s2dBafMzqJbeekbr30U0Rrfpb6Tct++Y4uAiVHETNmRUq5cpbpqQQyA0KVLD6xdu1L9JYBSzYw5kuX9NMr8TtXK5VDOLQAgkKYmQGAawgAIw4YOVLph4aIVYq0YKdKmcG7yom4xXUBAyuCFACFOnNjoR4BgYyNamZHy1y9fMXTY6DAAhEECiz8CCGTbSE2v37A9WAaBrEu/Pj2QJ19+1YcYIJ8pD4fUaQUa6LxIUTPaN1KClA1ZDNLxrD9gSowBFQECAyzqBdkya0dtrdTBAQSmJGg3DIDA++kYZ8+ZiYULV2jMyc6Q0fV4cF8MAOt6cpgDLLaJjj6zUxbLihv+7cSJY2IdO3T4XXVsxjVgQC+llQcPGal0ZPnyJTB6zAQUKhSYYTXuD45BIEAY0L+3bC/ZEeMiQOD9Dc0AgfeRvSK7UKNmXRUck+0qVLiYAjNG9pQZ/RFZgfv37mDcuFECjGT6xo8bpT67uVW2zAHWJDCdnsU5K968fiOAwMAkqH032hRagEAmhvUK5d0qyWZ37tRWAQGZDKN2j98mq2cdBAQyWr/4j78HIJQpjtJlAxgEa4BAJ0eAwAnbomUboVrry0Q5GykGa4DwXAxCw4aNUaVqTUXKgwb2w4gRY0Xl8mKUT4AQKXJELcckegzKIDAfPHz4QDEIBvNgfH/DhrWiy0hZpU7lgIuXzmPWzOmYOm2OCuCM4iDmmEnpclIwtWKsU+ekYLEJc5LJU6SQIWURzuJF88WcMAK0vsggVK9GBqGcaE/jIoq8fesGmrdoK7To7h4YIPAbBAjMIxpUIZ/lKg/SqqT66NQJEBjtGd9lKocpFOZCGe2wT8YVHEDgd2gMWNNA2nb06OFiVjr+JIPAIqBCBXKKXmzRkmkhkxG3BghkPvr27S6HXqtWfQslzkiRE52gkc6WFCPpauv0Dt9Hh8WUxAvv5yADwgjyzp1bSjcw6p01YyouXAw7QGjdur1ylEEvMgihAgjXr6NuXQKEWUiXLqNozXt370jXSNdPmjQO0WyjKQohXWrUIIwYOU4V0OwLQQKjCUaEM2dOEzXJWqAfrcoJmUFYaMmXsoaAAIF5ZxokRoXMQzO99b1vMKphzvfQof1o266TJXdsLSfrIkWOHw00gTZrmUi3B73o1L8HEJi2ZE0SL2uAwMiwbp1qctrfM55tWzVD7Lj/DoBAlom2qU7d+gKSRiGkIQuCqhUrluHY0UOBAAKDNM7hAgULI22adFqVwvSsqS7JQSwnI2U6yOCicQGEvPnRqZMpxcArOIDAgKyhe23Zrc9fPovdotOiHk6bNlFggDUzBCnBXbSFp0+fFJPGuW4EKby3b5/uSjv16NkfLMYsX+6vAwhs34zpk1QknDZtehXwcukj69BY/8N6GdYssb0EfQwSaVPIjrBtZNFevfQWmCGQD3pR7ypXKoveffqjVKnADLFx73cBgmtmdP7dtIqBF+vWCBCYhue7CBBY50Y/wJT333GFGiDQsQVNMTDyJK1H+qt8+YoyxqSsmUcaNHhkQIrhBwChRo06GDd2pKKg3n0GwtExk9AzBc0NSEj70jDRyHfp0lMFIbyYZzalGBorxUAKvmWLRnArXxFNmrXSO4jKWdjDHBvTAIz+OQlXrFgv405jZgII3zIIrLFo37Y5IkaKKERKJaLTpLOfMnW2KoLpWA1FZ5/JYFBxaOSM5U2cbIxIu3fvo8j1xImjSq9QCYIDCFWrlFdExAidFwvF6JSZc6SsSOURIDRu3AyVzQwC6UnSmozwWSPCNAf7NmbMcN3fslU7FW2W+q0wfu/SHbVrm5Y00VksXDhX1Gnduu6qWDYuAyCsXrPFshkWIxXmoRm50pGxgJOsDMeFxYA05M2bustIEUSpBmHuTDPD0V+rT6wvTsL69WrouRkz52vZLCfkqpXLsHffLhktRlMD/+iDt29eo2+/QbCzj6/Jy+iR9SAjR43H8WNHRaUyV1ei+G9aqcCJTpqfRa0zZ0xF1+69tYSQ1D4BJ+lDUuwseDofJMXwQwZh4hhVSzOSt16iZPQruBRDsAzC9WuoW7capkyZjfgJEmDokAHSdTI5nEdkTeiUySBYA4QFC5YLJHFOsNJcBU4JE2H0qKGIET2GxtpY1UNQwb8Zy+iMMWc6In6CRGjatIUFkJtSDLUxe+4iOGcxFVRZAwQ6G9b4kBGggTfodjI3MWKaVn0YFyna2bOmo1z5CqhQoYrqA8ggsJCMNQYGg5DGwVSDQDBBmpdziQED+8f7mWZgfQzHO2iKgSkmpqICA4Q/cPnyJTEITH8w3cW50LVbLxWQEXySYbCLZ6cUS+gYhFHw8XmJNm1YcxJ40y7293spBuoe03AGKxeIQfjsj+1bN2P58iUgg8JiOQYzvXt30zJUBitMi7KKnHOUrFLGTE5YGQxA4H4FrJWaPWexGDPeX69udfTs1RfZs+fQOKgepl0ny3LwkyePqfCZee7q1dzkHLt172MZP8qd9RDWDAJ/5LdYzMlahn79BomBow5SF7n0sI0AYQZV1xPAs4aENUTGxVTYkMH9VMdA4EsQRPvWs8fvKFqspKh0vs+tfEmMHj1BUX1wF1MG7CdtHdk1XmQG+vfvpaLFoAwC7zcYBEb/9DfM/1OvOMeoG1zBQZvNFDLna3aXHIrWyUgYK69omxg0Llk8X/OU7CSfefjQA2/fvBHjR70TQOjdX8W/wV2sJTFWaRGkGFeOYAACwQQZBNY3EJywOJ+1FwwGCdIZpJL1KFSo6F+CF0IFEDixDh3ch+7dO6uYy71hU8SNE1eFeYMH90P4CDbImSOXDBvzfJyk5d0qon69hnj2/Dnq16+hCJCKz8mvPP7k8ShUsIiKPZhDHzZkAN5/+IAcOXOpEpbRKvNGXO2weNEC7Ny5VSAkbjw7ZMmSVdRQ3z49ULzEb1J+IkNW0bPIpErV6qLXuP6VbapZo45WITByp3MYOGgYChcuLiO0Zs1yLFo4X3UUHAjrXQN79vwdZ8+cQeUq1VQJzupsVoCz0pRMx9Gjh1CiZClkzZpdFeVkGzp1ZkW/qaKUTpqD17FDa+TKlQdZsjhr+QyLe+i4uCseAZHxTaLoCm6llBtv36GzCsmYu6UsWGREI33yxDEVhhUvXhLNmrfRMhf2kZEE0zaMIrhSgIV7J08dR9UqNbQD4AtvbwGETJkyoUvXXvrG3r074eXlpf6wStb64jrjrl06oETJ0nKkVHxWBtMZEGCQkaCB1sqWbC5C21w9wvY98nqkgsL8BVgYulKUONMDZCiyOGezAEd+78D+vTKMzBWT+iVYuHD+nNIeLPSpVLmaCqAmTRgrept1BtQXRk1167mLhmThEYEbl+JyLDg2BEt8lhOJ+3e0btNeBufqlYvapIdjzYr6yRPH4vxFFgd21RiRBWIB5Nkzp7BgwQqkdnCwLCHieBKsMf3BwtRYMWMid978csgGJcyVL2PHjMDzF8/Qs1d/MU8EvyxcZPqpUaPmiB07NjZuWIuhQweiU6cuyJuvoIrhmMZj5bVttOgyBMz9li1fQdT7li0bxIb16tVf+UiugmBbaCSaNG2Be3fvaukc9TyTk5OK5bicmEDTSMuZAKe3itS4IqN0mfIqbGStwIEDezBs2CB07tQNVavVhP9nf2xYv1qV4czzM4rZvWu75hCXAnKzJu8X3vj48YP0yfobrMKfN3eGKu2dMmdRvQTTdEwpli7jppqJDu1bKqfdr99gqR1X5hw4sBeOmTIjUcJEKh7LX6AgypQuj5u3bgp4FilWXNX5TAcsW7ZY7BiZINK9vu/eKhJl0dis2QvlzHft2q56i5SpUstxce6xELZ8+Uqam793aiswO2zEaCSIn0i1HQRmBDR//DFMwI11PAQ8tD2sjyJjQ3CkZZ/mHUcHDuwrgMwcNouPxo8dies3ruL3Lj3h4uKqudOtWyetZpkzd7FAA/vKIlXm+Jme4WqFx16PMGXKRMSOHUssKBk+6gBtE50pncXFSxeURvx/7V0HdFTV1t6pJEBIQnu/FBULTUAsEHooolSpUpUSQqgW1IeAiqggvSvqE0UREFCkiU96kyZVpIQqiBg6TxRCGvnXt+/cmTtnzi0zk5BE7l3LhblzT/vObmefffbBogf70OA/xLw0b96S6RBKDNtpDz/yKLVv35GSbyQzb6C/lR9+hG5c/5vxhlcIBnu/vj05LqFbtzgKCw/jVTUMQ0TiY3sGdSDuBw8WiZ2eaUXxffqzzMAD2YPvYWjjAX/DAEQ7HLuiidvAChyBpd+tWManhkBD4H/EITzXPY6P8yGnxLBh/2ZvMhZE6okRrWzCIhTBs/CYoW+VKlWmwMBgDkwuFImYkpHcLo6Ir171Axs2T7dqQx06dqXTp07RgP7xfARYzekCHsL2Aej+t9OnaOHCeRyEryaPAnaQbzDW8e2USeN4Qfro49V4yxNHcBV5UoUXx0OHvELPdOhEPXomsJ4Un6+//or1CDyYmDPwAWIXevV6juU8tlxxCgtjhIGHuoE38MdCAvQEbzeO7eJ0C+aoekytnDMQsG+OoC0oKkwIlAmYDAoWe+PYU8fKHq4qnPFGVDKOL0JxLF/+Le8vwVWM87aI/ERQ0h9JZ/msPwwHWJmwxGEJQ8AWLVKEGj3RhJk6KCiQBcqKFcsYRATjlChZihURjgyGh4cxONj/ghUJhYyoXZyHLVe2PFurUEyJiYms0HGsMSoymq07xCYg4AQBXTgeg6h3dX8VaMNtDXcTEpDUrRfLe4HLln3LzAaLF5Yjor+xT4hAIAh6lNdmJYPCwX7poUO/sGFT9ZFH6Zf9P7MwwooJ1rjq+oOB8Ez7p1mhK2d7/2SsofSwooDXBFspIHIIB/QZ3hM8UKzwmCCwBeUwZigkrOwgXHC8DwYC9uw5kOjGdT6XDUsZKwnRZQwmx2obe54YH5QuXJVVqz7iXHXCQ7DyhxV09NhRHjdWe99/v5RjLWrUqMMGEQgYQTw4GhhToyavVrTHSdWz+RAUyCWB3yF0kM4bWzKYPwhs0BQ8QMhbAMGN32AEYgWA72EQIEIdik8V5DAOgBNcm6AXuBXhmkNQILw8HFOybTMLVQgAuPH27t1Fv/yyj1JupnB+DBi62v7iGCkCxeCZQXQyxgTaVucAqy8kwIFwgvEHow6rVhhsiGPB0bQCBSNo86b1fOYdp27gWUJwJlbFcHNiZYIjYTAOoTjQN7gbEaCE7+vXb0j33Hsf9//HLZtYCcHY2f/zXhbWWFXcW+Z+FsJqkKAqPaDU8B2UJzxGcE3DO4aTRTj2GhUZRbH1G1C+fOE8twhIA32gT+jHvn27eZsGbWDO4REQg/dwlAxKB/MFLNFOjZha9Njj1Zh2Pv/8E/bCwEWLKHcYblhJYusEhiHooHq1mmw0YrEwf8Fc/h5GKY6aweAAT0GxREUXZj46euQwnxZJTUvhFR9OCUE+4XgesMbcg36hWOEF2bhxLR9hQ7QleAQrNHjNfj15nBNlgVdhDEAeIUofPMDzHYP5VjKLYr9/6ZJvWFmAx0CroEfENaWlpvFCAUYYDEQcCUX0PowV7HVD+eMI5tnff2MjFv2CBw3HEcEL8KAi8BdHJZFPA9ujUD7IuYI4jXr1GjL+MHoWfTOfZTN4GThv27aZTpw8Tk2btmQPHFbzW7dsZsMa25847octXfA8+rVo0XzOh1EjpjYbDQh6RJ4YzBUCmmHQ4FusuOFxBE9EO1IwAwfwD9rAMdXzF86zcQZjEMd4kexJfVAeAYyIC9izdxfHepS57z6Wd2ruAvAAaAd5I8o+WJ4NZvFBbgHErSDfR5XKD/PpB6zscRwZia5gcMXEIGjzJhvayL2DOYut15DnAPOM0wVK0jnl+C9otWy58lS+XAUOFo6MiuakSvgGegXeG3h8YSRA7uO4PvQD6A86CR5JGN/r1q3io4+QCYh9gWEtPphbHMeHzqtQoSLTDXTohYsXqFBEBAfLY3EIOQO+gM6FMYG4E+hiGD3wCmEOsKVYoWJFztGTHY8lDwKECoQwZ/ECYoEBzuQw+E1JcKNYXBAOasYzEBUUgPrgbyQRgvBTM4JBOeI//I161OxWYDg1+YPaBpQ+oo1V971YB9px9SeT62UChbWfkcEJWxxJrpxKXO076lS+d2XtAgGnpaP/qCuYf1fHo44VyhD9QDm8cyasAFRI6OfYV1dTa6IOFU98r22PYxA6tObglp5xCc7sjWpKURUjddxoS7tXif5i5admANP2B0SpxiCAqFAH6g0OBgMjJ4Grv1qG1s6JOldaQsTvaqY4tKfiqWKp9DnN0Z6CoduTSZSReYtpAo/6O+pU61BX52pfkGMASgcrABVjtIMynAkxAL+7sHXSjyMTmoJLIO+lYl7wqGVQHt9r32mTkKg0odKiOB61jyjP9B6ITHpKqnB+50iihXaUNtQxBzB2yt/KPi7+VjPwMf+hPDByjE2lI3zjoivMv0KPTtoQ5tadZ4N47oGFyhsqvalziU7Bg8ZZDB38zvQDmnckDfIQTplKpr6MW+nMAyr/4DsoFK1MUA1qZf7SuT8YoyoXPGRIYKCTzlS5g37xvDnGmi9U2R92669D1mA+QZPASZ1nYAWlfouU7KUqpso8yOlX5EdlrrCqdqcfGU2hXoyVsx+CDx1pdyE/IVNEHlZp20UzwRSITJ2O/uF7hZ+DnfWqPKDSiVudDt7BthvwVeWfIlshn5UZEmUUsAgKCmGR4Z75UdERMtmjz++gU0X+qx4ZJ8055kC72NJmPlXnTx0zxqCVi4p8VmSCVk/06N6JF1XwwqkPjL8F8+exxxVGGvJkYLGjPuD1EcOHsUGG03B6ssZNTzrycQaHQk65P1pdp8o47bg9+E8zD6KeFOcHLWHuNAkfPVhT94VEB1gyEKy3YH/pDwJYBXTq2JYaPdGYhg17yyNQyde6lQjiHXxmNiGhH/VOGJCj+d99HYddzkbARsBGwB8EEFd26fJlPoYP7yw8OdjuQaZSrNzXrVnNWTSxQIOXBd6DtWtX0soffqCJk6a75WPwpx95paxtIOSSmcJWxPvvT2aLF6sZuOf1omC97TLO2CNSHNHjWK3UrVuPateO9bYa+3sbARsBG4E8jQCOaCJzK+LksAWFGK4qlatS3XoNOMgT8U5r16ymw4kH2buI2yxxVBj3AIUEy09o5GlATDpvGwj/5Nm1x2YjYCNgI2AjYCPgIwK2geAjcHYxGwEbARsBGwEbgX8yAj4ZCOKVkN4A5PftUrLGLFxA4Wu7/o4V3TW6ElcPO1/7i/p0y9o4ucGdLTiZYGzTk2MKbJyyhBZzkp6yXLb5I59yMT3lJZxE/eGTgeCNQWB/ayNgI2AjYCNgI2AjkPcQsA2EvDdndo9tBGwEbARsBGwEsh0Bh4HgrUPbqmNLVq9RW9rfrJQ1+16Ln/MUrcPpb3XM2rFaLaO2a+NkjYJzC04yejHbBBLpymzE/wR6uh04aZ2d/mBsNB9WZIzZ/FvFwkx2GMknf8qajT/LHeBCg95ibCbTxfrMvs8NOsDKJnPuxEljIGgJRRViKrgeqR40O+sy4Y5MDdgMlwGjN6EaBjEtK7apZS4ZwYtCWRyrdgPLm7HaOLnYT5zXLKYnZ0NW5yeL6ElKi7mRnnylRRsnd42mR8d5FafcLNsM5Pht5zsbJ4UP3Olf2GKQCT4H+zjx07OGNBUHODIuOu0LR4omabieQCQByIamacOwXZOy3L5Rf9XfVYNGtLYtltUWs4STo908hxPgFObWG4x9xUlJiup6uA8AWs8A1cx7jtCTjZM1vrNx+ufiJOoAh+7xhWcty5jcQk/ejDV34xSQmnJdox29dYUYucVkri0jV5k/bjSr9Yr9FS0msc8yb4dVl5ZRWatjlfXPatncMlZ/MLY6Vn9wUuc8K+bVn7H6U9bGycW5Wc13Mj6yItvuNHrKbpy0mOcm2SajBSOZkrdwchgI2pW2uCp3JHdW9gz4hqm9e3bzHdktWj5NpUrdLWw3OJJ0O3HQAiK2oxokmjbVFTj/KyurfJuWns6XMpUrV85xk5xRu5J2uBZJ8GwPfQAAHDVJREFUu04Xi4CD9luxrCPne+LhA3yDZLfuvfj6UNfqQFaXNzipuHmHEy4w2rBhHVWuXIUqVHiIc57jwqffzpyiR6o+TgGBuINBj9mI05DiwiDkKm/btoMyHo/jRNZxuplyk+cMN3E2aNCYoqOjHJxkND/Zj5PSCW9o0Rt60goLAz4T6UuX/gW6ddKijZMbP0t41Ok+NZUxIsbe8V2upCctnZjIstyLk0QO6slxp5yyLp88jUyLZXHxgSV954scFxcO2UWL6ujdZZtOkKIWGJcCwR3huFb4nXdH0+vDBvONeP36P2+uCIV9DUuuYTdFLe4PZdLmTRv5/m9cCTzw+ZckisZNCngaMU5qEIlANiFa0LReFlfZn37aThMnjqHjx47SqtWb2IAS93NMDQZdnMTViMzQcv/mXFISTZ06idas+YHefPNtvlUOKZwHDx7EVxnP+PBTvnLapfG1eCkYjB83mr76ag41bvwUjR03yZoydxNE7spx+fKlNOODqXTXXSXpnXffcxiXZnibj9UdVxNjQ4qxuALXMeg8aFLsu57ylo3BrKzZKsl7mrBxMpvXrKLFvE5PejiINCeTi95gbOPkyZMyjHMOJ4Njju6dwk1VTZvUpz59B1Cr1u35fvfIyGjOX83iz3l9VCbfdqX87VKmyjuHjc//77o1UWu5KTdvBbjd5Ijrcs+cOU2xsQ2dV+9euXqZFi6Yx1ff4mpp7epBe6sXv+eGlXpdfcMrhZhdN1+JWyzuZV391P6fC6flyxfT1CkTacHCJZzjm2vXGavSthwH3OiGK2dRVr1VTXujoOdKSekPyinYKQoJVyQPHfoqden8LDVt9jQbCDt3bmcPUPce8ZQvn/aKUGXeFDxcc9M7vhsVLlyExo6b7O5xcQMD950pj3rHujtWat0BNH36ZDp6NJGGDHmTr8MV58cTY5kBpzE8NHPrdVnDFFZ67VqlCa1RYLW/MqPBatlciJPT3WQllkfgKcN5VXHyBWMbJ4e0cJOLXvOOP3znU1mZwSz2Oid4NhvpKRfgJDEQPCcCV2meOH6U4uKepf4DXqDY2EbsQv/rr78IVxRjtQwl8tdf1/gub1wKVKbM/RQWlo/vyP7z2p987W1UZDTfgY171HGne9GixfjaXiiJtLR0unz5Eru1UT4qKpqKFSvGd25/OGMaBQYEUHxCPypSuBjfFZ58I5kuX7nE13MWL/5/TCm4zhn3o+Ouelwpm79Afu5X/vACfKUp7v0+f/483xeOb3A/OhQv7rlXDB2XILt+/S8eC67hLFCgoOO+8jNcb1hYGEVHR/O1rFevXuY764sULUarV/+XDYR5X31NGRmZdOH8OQoOCaWSJUvyeNQ+Xrt2jXBpCC4LQV3oP5R1cjLGdJGu/32dSpYqTVcuX6L/Xb1K4fkLcB3KPfTuVjuUulLuEt1MvsEGRbFixSkyMopOnz5Fw4a+Qp3ZQGjJV8teuXKJ/vzf/+iBsuUohLEnSr55g99hPmEIRkcXpqJFi/JVrKqBMHrMRL7ZDBiiHtQfFRVFaemp9L+rKHuNe1aoUBQVLVaMcVX6doOuXr3KdAKc5n01h+9TZwOhdEmiTJmhKGN8Qclw8KFeWb2VjmrFqEGOnmJR3+tjpJQ0SlyYH2cLzsBKWZtaw0AicEzLytpXx5rHcPJwfxvRgrCysnHSgGXAAzZONk4e+Xblho6JB0Gx0C9cOEdfzJpJ8xd8xfvZ99xbhm8b3LhhPd9+9cILL1PDRk/Slh830ccfvU/Ya54wcRqVLn03zf7iM5o3bzbVrhNLFSs+RGtWr6Skc0l0//0PUL++A+nBsuUpLS2VdmzfRps2b2BFCSPi99/P0KCX/k2/nTnNdeCWQ2xplCtXnmLrN6StW36kL7+cRf36PU/t2ndk4wC3Fi5bupiuXr1CtzJvsdKrXbsuNWnagpXfF5/PpO++W0qTp8ygrVt/pH17d7OhUKtWHXrxpVcpPBwKWHl27/qJpk6dSMeOHaFu3eOoT5+BNHz4ENqwfi3Vrl2PevSMpyuXL9MnMz+kIoWL0oCBL9HBg/tp6pQJNHLUeFq7djUlHjrAfWn0xFM08PlBfLf6qVMnae2aVaxobyQnU9Ifv1O7dh2pYaPGdPjwQZo+bTKPf8DAQbR58wZKPHyIxxYXl0CNn2zquALaZcRhXCtX/pcOHzpIQcFB9OvJE/Tgg+Woe49ebGzBQOjU+Vlq1uxpOnnyOE2fNolxmjtvESt4lN+6dTNvHUGBJx4+SFHRhWnwa6+zUaQaCNhW2rxpPX3xxSzKuJVBHTt0ofoNGtG+fXvopx3beWy/nz1DmRm36JV/D6GSJUsztsDh4IH93BaMq927d1FEoUL05pvvODwIegrTgpFgWtTKqsOKwrYSvKutR3QJmnZUEFgK3/n2+NK2jZM1rHMaJ1/n9k6jJxsnY3q2TsdKkKLT969fLVbDbdo0o+HD36GnmrQgOJV37txB48aMov79n2cDAc/HH3/AyvvdkWP4Pu0TJ45RfK9u9Nhj1ei5bnFUqnRp2r59C82bO5s6dexKLZ9uQ/v27aYvZ8+iXr36UoWKFVmx9ejRhdq2fYaefKoZfTrzQ1ZkgwcPo4iISFb+e3btZPd5374DqF37Tvz7pImjqWBEJA0c+BIPacWKZXzNcZeu3alOnVha9M0C+vDDafTii69Srdp1qUCB/LT4229ozZpVNGLESCpfAVsVrmfhwnk085OPaOZnX9Ldpe+mP5KSqGf3ztShYxfq1asPeyCWLVvMe/n16jUgbDFMmTyBvSw1atTmFT/iNrZt3UyTp86g/PkL0IIFcyk8PJyNAvw985MPaf36NfSfT2bzFsHkSeNoy5bN9MqrQ6hKlaq8Mp8xYxoVK1qMEvr0p6JFizs6qEzyd98toU0bN9CQoW+ylwJjXrNmJcXF9aZChSJp2NBXHQZCS/aGwMOBwMP5C5ZQwYIFafOmDbRt2xZq07Y9BzLCKEGcwPC33uWtm4Te3dkLAwNh166d9Mv+fVQ9piZVrfoo7d+/l5YsXkRt23WgSpWqsGcI+MTUrEXPPz+INqxfR9//dzn17/8CGy0wGN577202rN4aMUpiIPjC2Gai3cs63YIwzcqq2w2OPngEcBr1TShrNgy338365VVlbvRkuWSW4WQ2FhsnZU5snHRp0x9atEzwjjmwoCu9qtJ0Xk1kiDcLCR9w0ngQZAToYs7z589RW42BgH5hL3vsmHcpIaG/00D4fNYntGnTBhrx9ii6+557eR+9efPG1KxZCxowQAkm/Hn/XlZCjRo+SR06dqbx40ezsnruuTj+FytmrIrLli3HrvyZMz9yMxBQx6VLF6lH987Us2c8GwhHjiTSy4MG0FsjRlL16jWZoc6c+Y0mThhLpUqVorj4PrT/53305huv0YKFS3lbAe70HTu20oTxo1nBVqtWw01YJiX9Tv379WYPRddnu3P5t0e8zsF1o8dMoEOHDtLhQweoUeMnqWSJ0mwguGIQirLXA8r/gw+m0pgxE+hm8k32etxzTxl6qFJlbuvokUSaP38uzf5yAZUsVZLmfvk5LVu2hD6dNZciC0VSSspNmjZtEl29coWDMUuUKOWkGLjwe8V1pWc6dKamTVuwwXD69K887goVH6Jrf/7JBoK6xRASEsoGyqzPPqH5CxfTrYxbNG/uFxQSGkrx8X0pKCiYt3mACQyoqMgo6h3fnecEhtyBX/ZToyeepIceQt8z6T8fz6AjRw5TnbqxvOWAZ9GihfT3tWtsEL0/fTKXHfTya46YkkyaPHk8HT9+jIYOG06lSiIGQaZcjWjRaM9PT5Bq4wbwjTercyvWtk5/eWhi8KfI8HpldQJjTZncYKz+lDWVelqc9DC2cdKEu2sI3ypN2PTkjpRNT9lNTzpbDJ5C8cKFJGrTurnTg4CJglva3UDIpM9nzXQZCHffy/PZvPkTbgbC/v0/04wZU6hBgyf4+NwrLw+kx6vHUIdnOvOevPIoAhJ75i4D4XXHkUbVQOhCPXvGsYEALwAU/fvvf0wPPFiOy2L/e/y493ivHy7+I0cO0ZtvDHEYCCXoVmYm7fxpB49hKAyE6jAQ3E8/jBo5ghITD9Ons+bQpzM/orCwcN5m6NtvIBspqLt163YcSyEGKWKvftPG9TRt2kQ2KBD/MHv2LKpUqRIbCXgQx3D977+pRctWVLhIYaeB8NmsuewBgFseBsLlSxfZQChZEgaC0kes2Js81YDGT5xC1R6P8VB82EpwxSAgSDGYFiyY5zQQEDvw2WcfU7lyFahr1+5SFYAtBhyPLBQZyf++8sprHDuCfo8Z/Q6dP5dENWrWpnCOjwDmyRQaGsoem7eGD+XtG2zHqH1GkOKRI0doyNDXqVRJHJE1Whnp7aOaraZEQ8FgP1Y6aj1lZ6WvsrJW+qvts6y/Vto2Greehs8KjEWjzUpfvcFJrE9mtFnBOCvG6g/GeQUnLa34yjt3Ck45SYve0JM6p97xnYmB4CIUcYsBgn3v3j00xuFBaMRbDFoD4T3eYsA70YOwf/8+mjFjKhsIcLUPemkAlSlThhL6DKCCERGuIH02EC7TTGGLAb3CeX7Fg6AYCHCbjxr1No0fN4WqPvIYd/z69es0fvx7vG8PLwdiBFwGguJBwDaJy0CA58H92bNnJ734Qn8+5vfDDyuod0J/+mjGdN7vL1++IsdEPPZYdS4k8yBs2riOFfzo0RPowsULfGywY8cuVL9+I6GlTA7+mztnFnsQTA2EAGKPROMn6rL3o3nzpz36LjcQvqJZn/2HtxgQB4EA0DJl7uNxwQBwewKIevfqRgUKFqR6sQ3oa5waadCIOnbsyvM0ZvS7lJGeTv36v0DFi//LTdknJZ2lIa+9TNWqxbBxphp8iIE44naKQSRcPUXm53dsU1lRIqJgM+uP+LuVNvS+8aesL/2QjNXGSWfChbnxBSevtqC8ofd/GD3dDpxMvWlZxE+64iM305Or04qBIB4dlwzK00Ag+vnnvfTeqLfpuW49qEWL1uxSRwzC9m1baOSocQ4DQeZBcBkIUDaTJo6l3Xt20htvvEPlK1Tgo3JYnSMKH8oLHgQEHP578DDnaYBLly9Sj26dqUfPXtS+fWf67bfT1L9fL2rdpj3Fx/dhhXTixHH6+KPpVD2mFrVs2Zq2bdusayBAySpbE+4PXPwJvXtQekY6tW33DDVv3opWfLeUPv7oA87B0PW57lQoItLAQFhL06ZNYQMBsRPYWsEJD6yqixQtypH+iANAjAa8E3PmfE7Lly02MBAcbnmc3LyVST26d+ITFIgNiYoqzB6HU7+eZKWelprCcRrKFoNyzHHhgrn0GbYYFizhmAdsCR07foxefOFlKle+AuOGmBBsZRQrXpwS4pUYhDeGv0NLFy/imIcWLVpR67bP0LffLKSVK7+nvv2ep5o1a3OgIrwaW7ZsYiNt7Oh3KfnGdXr9jbfp/+4qwWOdMnk8HTt+hIYNG8ExCJcuXaDt27Zy3EIxxFfIaNGqwJB9l91l9XjHSrsW+E5Xvtg4WbPc8hpOGJWvdHwn0VN24OQrz1op509/c6oscq+xgWDypKenceDh4MEvUecuz1L37vEUFR3NSYFGjXyLFVtMTE02EJCz4ODBA6w8O3d5jgPSuj3bgerE1qehQ4fzSQGs9qEoY2MbUM+4BELGv7FjRrICgZs/KCiQzp49y22VLnU3zZ07m9atXUWtWrdjZYWAOGTjQzxB4yeb0MCBL1NgYCDNmTOL1q1bSx06dKIy997HWx04UdGhQxcq/q9/0VfzvuR981HvjeOcCtgeWLz4aw6QhPeiZctWFBqqzQ2gAIN9e6y0v138PR8BPHBgP++vN2nSnA0SHOlDYCXc9QvmzaHRYydRzVp12N0Ohb/4269p0KDB/G75sm9p6ZJFdN/9D9D9D5SlixfOc52IkUi5mUITJ4xhY2n06PF8aiMpKYlPHsBgevGlV6hSpYfdVvo4ETFx4mgqx96MChwIiNX8k081peNHj9CECWOoQYNGFNerDyEGYfKksbRu3Ro+ZQIc9+zeSZ/8ZwYr9ypVH6WbycmUnp5KPeP68HwmxHejqMKFaeKk6RQcFMy5J1C+U+eu3D+cWsHWCQwcbEMcO5JIzVo8zSc9sBXz/vuT+fTKI48+zgbNxo3r2PBr3aYdPdu1By1Z8g1vu+DURadOz5qRouN3Kyttvar8KWuxe2afWRUoXI9spWHWgDerTxsn8wBAI7zvYHryh46tknBWfudPf3OqrFfjzyJa1Iw1IDX1hivLjc5+MBT4unWr6NSpU5x3AEcUcWzuZkoyH3HDPjvyCMTE1KKzf5ylkydPsFKAexnHCrG6j4iIYFc8Iv7Xrl1Fv50+xatcuNrxDt+sxhHIpD+oaJEiVK9eQ6pUuTIFBQfT0cREWrFiKXuIq8fU4OOTu3b9xMFuyMdQu1YdevSx6pwDYffunygx8RAbDDASKlepSnfdVYKPK2Jle+7cOVagTZo0o5SUVFq96r+sVEuVvpvq1KlH9957n8eU4KgiTkD0iu/LxgC2PbBNcl+Z+5VATCI6cOBnPjp56eJFPh7Yqk07On/uHBtDOImAmAPUj2C+Hdu30p49u/hUAcZep2597iNOd+zYsY1Sbt7k1fzjj1dnZYosjRkZ6VSh/ENUt159jk1QH6RB3rN3Nx9BxHgefKAsBxhiuwD1nTh+jPIXKEB168RSSmoKbd++lW7cuE4PPFCWDYeIiEJs1G3buoUuX7lMJe4qwW0gVwTGjLnEHFSuVIWeatKcEKy6adN6xhffwaBYv24N/frrrxQRUZDjEWAswBC8fv1vnieMNyw8nMeDecYcVKlSherUjqWjx4/Qwvnz+GRIpcpV3LaXDFfPumatCZMYMrqXDOa1m1IzIqtlTVeTBn32SqgJaNs4WRPNdzpOVmnMxun2yzarMkZG6Y6yri0GmcB13NyHvXGsttmSyCQKDAqk8LBwrhZKDgoNef2RwwDf4l1wSBAFB4XwKhoPTocgSj44JJhSU1I4QBBPaEgor17xwD0Nb0VgUACFhxVgJYQH5+7RBsrkCw3lBD5wpSOGAE9IaDCFhmDln8nloShRfWhoCK+a0be01DROlqSOAUmc8A2UJo8pMIBCQkO4z0qHXYs3rHyx1QAlxxBk3qL0jAzOG6D0EYmeUH+6ko0wgBgf9Ds1JZX/RqInBO8BA1cfbzn6HsaGBzDGVoaKcWhICK/ice8E3sGzEpovHwWqmQ4dyYLwDTwlmbduUXBICOULzcfYpKY5MMokZ/4E9BFPYBBRvtAwxlLpZwq3hf5hHjHHN64j8ZIyT2gbniKMHfUCE3hbgC3Kpqal8RgRZAqDQs13g/FgXAA7NF8on5wAjSBgEn3F38k3kxkvjoHQEyRichfN/IiXPbrNH8+lkCxIbMPob1lSGe33umWFK89l/TUq6xyEJBu2lj5F5s4xnIwSMknc5s6x2zi5TeGdQE96vOvGV77SE2hNkwgtN/GdntzQk0+6slCb1DZ7cXKPQVApVQzM5L8dHZERsFgOf7vV4U9Zx2SL4Gq5ShZo68pR7G65oR6jsix8HVdwimde9cpm2Vj9wUlS1mysjKlDQEMza41Es7J3Kk7aq8hVRW3Tk4bfBYWvYmPTk4KEU1b4iJPKs0x7FnnWTT5J5KmMjqW6IAflk7d8d7twuh260ox3tHI8i3Fyj0FQO6I9PSGeitBbvehZvlZWayrjaIWJrF2P1ZLjhajYxLIyS0wcq9VxaZnJxsk1I1YwtrJyEGnAjCb0DFYzmhBpSTavWpow8hqYldW2ZQUnMwyM6rOKsRH9661cRGVvhrHVsep9J3o1ZX2W8a2V+qziZFR/Tsm23EhPNk6eKQms6hSrtJhdPGtAT64YBD2h4LROHL0zEwoeQtWRuEU0AszAM2rXm7JW+ivWBw+CbEVtZLRkJ056ysxtNSKZHxsnIa1FFtCiTU+ee6luAk6S+VBPAOZmvjMT2jkpn5wX0GkEgxHGTpx16N+fsfpTNrvlk42T3GjxwF2fZ10eBK11IrXADS64ka2u3N5lQ1nRmvIgVO3yXtCwemWdKyTHFoMs41624mSwn+QrxjZO7nENehfV5AacpKswf3gnj9GT0UVNlnhW/UjC70bePqOLv3Ij3+UYTv7Qok5ZU75TV5aSuTWjiduJk9sqPI/g5KRtfV0pD1LU8yYYuRitukXFSbXithTrFvunV6fMdeJtWSODICdwsuJSNbLqZZ4cGyd5/IUscNdfWjSjJ6P5MaJzGV3LYkqkwciaoCdvXcU5RU82Ti6u9ZXfzWhR5i3LKh2gR4fZRU9aus5OHeBN3VZ4Nodxcj/maEXhGQlNPZeRzEUuMyjM2hfrkVn3Rm3JFKHVPnvTlrfj0OuXP/3NqbJZhZMZhnq/e9N+XqEnq/wj+87GSUHFpidrktFXnKzIML0e3E6evV1tmeFohSZzgXzyDFI0MwCsTLI1UnQxrpnVaNamlckwAtub/voysf4wj9aQ8hcnb8eZU2P1p10r3iQjerpTMLZxssYNNk7WcMpJnr3dOsufsfpT1l9a9AEnTw+CTEBacZvodd7XsjKlL2tD752VCGi9NszKZvVYZUSTHWMV59YbjGWY2Dh5bk3cDpy085jVtOgNTeR2erJxclfuerLYK5zEYA5xBSPaE7LgDxnhuMohVw3S7btnuFQjsvWITmUEtR7xe+V35a1BfJrmK6UmtTeuf41vgxUj2Y1A12KVO3FSDAQZgWhx1iowcd68LSujH3FuxTr15lNLAzKste+M6Eccq5bmxTaM+mLj5D67svnRCxbTzo+/GOclenJJLU/sspKeZHRsBSe9b4zKZgff2Tip+sqFrkwWZwNOSJaGhGZIhsYHAwIDObGbXvOKCtYqeTlpq+Tt/qtaVlQUemlatL1QkgIbkazSK08rXk0nLC+rlJHXLeuvyyjQmguedeuPVasCjXHytOi1o3O16S1OCo7yRElmStxo1OJvVgWTlrD16tebfbGsVsHL6tUbn0wxGc+wsUK0UtbfseoZbDJKt3Fylx42PbmUjrv88A0nvUWfudRW+iEaifoaKG/znb84abGyImO02sZLjJGRNSUljTPGcuZUTBKMAz354qnX7Td5GAH92xz1VtxmnhBj880lCERPjNxM0k8+YW5iuaZFxkRyM8tTYKr90gq5rChr4yQcP5R4FK3ShEzgWi0rClvRuJQx9z+BnvSUhjpeI/40on8tXjZOLjTM+F2PhmV0LM5NNpXF7bNIWx8SEuZIEy9cB5+HFZ/ddWsIuLYYjL73xQsgChq9v2UCRfatntvZSjtGK0VVUJqtuK3gaeNkBSXPy/OsrOStzLPYutl8+NpudtKTaIjKVnxGRouNk/HljNlFE97KEaN59oaOvaFFs7Fr2sW2QsrNVAoODqV8YbizRbkXx37uLATc8yCowki2QjCyWsWVgqjM9cpqrWPZN1qmE/skYzBZu+p86rlQzcal9tHqasisPrEfZhhYwdLGybVBqaVh7fac3ntxfmVY6vGFHk2I7VqhCbFdo3HI+M3KWI22o8zo7J+Ak9Z4ssJ3eu54o7Le4iSTS2ayLbvpiYgvnruVkUlh4fmdl+ndWarRHi0Q+H8AWY7w6aTzlwAAAABJRU5ErkJggg==;" parent="1" vertex="1">
                    <mxGeometry x="24" y="470" width="389.59" height="239" as="geometry"/>
                </mxCell>
            </root>
        </mxGraphModel>
    </diagram>
</mxfile>